<?xml version="1.0" encoding="UTF-8"?>
<svg id="Layer_1" data-name="Layer 1" xmlns="http://www.w3.org/2000/svg" viewBox="0 0 15.89 13.16" style="
fill: white">
  <defs>
    <style>
      .cls-1 {
        stroke-width: 0px;
      }
    </style>
  </defs>
  <path class="cls-1" d="m13.02,11.48c-1.72-2.15-5.38-2.32-5.38-2.32,0,0-.05,0-.05-.89,1.18-.64,1.94-1.85,2-3.19v-2.62C9.59-.16,6.73,0,6.73,0h-.22s-2.86-.16-2.86,2.46v2.62c.06,1.34.82,2.55,2,3.19,0,.89-.05.89-.05.89,0,0-3.64.16-5.36,2.3l-.04.08c-.12.17-.19.38-.19.6,0,.57.46,1.03,1.03,1.03h11.18c.57,0,1.03-.46,1.03-1.03,0-.22-.07-.43-.19-.6l-.02-.06Z"/>
  <path class="cls-1" d="m15.22,3.13h-1.45v-1.45c0-.37-.3-.67-.67-.67s-.67.3-.67.67v1.45h-1.45c-.37,0-.67.3-.67.67s.3.67.67.67h1.45v1.45c0,.37.3.67.67.67s.67-.3.67-.67v-1.45h1.45c.37,0,.67-.3.67-.67s-.3-.67-.67-.67Z"/>
</svg>