<?xml version="1.0" encoding="UTF-8"?>
<svg id="Layer_1" data-name="Layer 1" xmlns="http://www.w3.org/2000/svg" viewBox="0 0 10.36 14.52" style="fill: white">
  <path d="m1.59,5.72l2.7-2.7v7.67c0,.49.4.89.89.89s.89-.4.89-.89V3.02l2.7,2.7c.35.35.91.35,1.25,0s.35-.91,0-1.25L5.8.26c-.17-.17-.4-.26-.63-.26s-.45.09-.63.26L.34,4.47C0,4.82,0,5.38.34,5.72s.91.35,1.25,0Z"/>
  <path d="m9.5,10.4c-.47,0-.86.38-.86.86v1.43s-.02.07-.03.09H1.75s-.03-.04-.03-.09v-1.43c0-.48-.38-.86-.86-.86s-.86.38-.86.86v1.43c0,1,.77,1.81,1.72,1.81h6.92c.95,0,1.72-.81,1.72-1.81v-1.43c0-.48-.39-.86-.86-.86Z"/>
</svg>