<?xml version="1.0" encoding="UTF-8"?>
<svg id="Layer_1" data-name="Layer 1" xmlns="http://www.w3.org/2000/svg" viewBox="0 0 17.23 17.23" style="
fill:#e41e26">
  <defs>
    <style>
      .cls-1 {
        fill: none;
      }

      .cls-1, .cls-2 {
        stroke-width: 0px;
      }
    </style>
  </defs>
  <path class="cls-1" d="m4.15,11.96c-.12-.96-.24-1.89-.36-2.83H1.05s-.01.04-.01.05c.08,1.13.4,2.19.96,3.17.02.04.12.06.18.05.54-.12,1.07-.25,1.6-.37.13-.03.27-.05.37-.07Z"/>
  <path class="cls-1" d="m5.81,1.56c-1.23.48-2.25,1.23-3.11,2.28.61.13,1.19.26,1.77.39.32-.98.74-1.86,1.34-2.67Z"/>
  <path class="cls-1" d="m4.15,5.21c-.62-.15-1.26-.31-1.9-.48-.13-.03-.17,0-.23.1-.42.73-.7,1.5-.86,2.32-.06.31-.09.62-.13.94h2.76c.12-.98.25-1.94.37-2.89Z"/>
  <path class="cls-1" d="m2.63,13.3c.88,1.1,1.94,1.89,3.22,2.37-.63-.83-1.06-1.75-1.39-2.76-.61.13-1.2.25-1.83.38Z"/>
  <path class="cls-1" d="m7.1,15.49c.29.27.62.48,1.01.59v-3.46c-.87.05-1.73.1-2.62.16.38,1.03.82,1.98,1.62,2.71Z"/>
  <path class="cls-1" d="m8.1,4.55V1.08c-.48.14-.85.41-1.18.76-.68.71-1.1,1.58-1.44,2.53.89.06,1.75.12,2.62.17Z"/>
  <path class="cls-1" d="m8.1,5.56c-.97-.07-1.93-.13-2.9-.2-.21.87-.4,2.33-.34,2.73h3.24v-2.53Z"/>
  <path class="cls-1" d="m5.2,11.79c.97-.06,1.93-.12,2.9-.18v-2.47h-3.26c.03.91.14,1.8.35,2.66Z"/>
  <path class="cls-1" d="m14.58,3.88c-.88-1.07-1.91-1.84-3.15-2.33.61.82,1.04,1.72,1.36,2.7.6-.12,1.18-.25,1.8-.38Z"/>
  <path class="cls-1" d="m13.09,11.97c.68.16,1.38.32,2.1.49.6-1.02.94-2.13,1.02-3.33h-2.75c-.12.96-.24,1.89-.36,2.84Z"/>
  <path class="cls-1" d="m11.39,15.68c1.27-.48,2.31-1.25,3.19-2.33-.62-.14-1.2-.27-1.8-.4-.33.99-.76,1.91-1.39,2.73Z"/>
  <path class="cls-1" d="m9.13,12.63v3.48c1.5-.62,2.07-1.93,2.63-3.31-.9-.06-1.76-.11-2.63-.17Z"/>
  <path class="cls-1" d="m13.1,5.23c.12.95.24,1.9.36,2.86h2.75c-.08-1.21-.42-2.32-1.02-3.32-.72.16-1.42.32-2.09.46Z"/>
  <path class="cls-1" d="m11.55,3.82c-.31-.74-.69-1.44-1.26-2.01-.33-.33-.69-.6-1.16-.73v3.47c.88-.05,1.74-.1,2.63-.16-.08-.21-.14-.39-.22-.57Z"/>
  <path class="cls-1" d="m12.05,5.38c-.98.06-1.94.12-2.91.18v2.53h3.26c-.02-.92-.14-1.82-.35-2.71Z"/>
  <path class="cls-1" d="m9.14,11.61c.97.07,1.93.13,2.9.2.19-.69.4-2.25.35-2.68h-3.24v2.48Z"/>
  <path class="cls-2" d="m13.98,1.87C12.68.79,11.16.18,9.48.04,6.54-.21,4.07.77,2.1,2.98.97,4.25.32,5.76.08,7.44c-.03.22-.05.44-.08.66v1.01c.04.33.08.65.13.98.35,2,1.3,3.66,2.81,5,1.29,1.14,2.79,1.81,4.49,2.06.23.03.45.05.68.08h1.01c.33-.04.66-.08.98-.13,1.81-.31,3.36-1.13,4.64-2.43,1.23-1.24,2.04-2.72,2.33-4.44.56-3.37-.48-6.17-3.11-8.36Zm-5.87-.78v3.46c-.87-.06-1.73-.12-2.62-.17.34-.95.75-1.82,1.44-2.53.33-.34.7-.62,1.18-.76Zm-3.24,7.01c-.06-.4.13-1.87.34-2.73.97.07,1.93.13,2.9.2v2.53h-3.24Zm3.24,1.03v2.47c-.97.06-1.93.12-2.9.18-.21-.86-.32-1.75-.35-2.66h3.26ZM5.81,1.56c-.6.8-1.02,1.69-1.34,2.67-.58-.13-1.16-.25-1.77-.39.86-1.05,1.88-1.8,3.11-2.28ZM1.15,7.15c.16-.82.44-1.59.86-2.32.06-.1.11-.13.23-.1.64.17,1.28.32,1.9.48-.12.95-.24,1.91-.37,2.89H1.02c.04-.32.07-.63.13-.94Zm.85,5.19c-.56-.98-.88-2.04-.96-3.17,0-.02,0-.03.01-.05h2.74c.12.94.24,1.87.36,2.83-.1.02-.24.04-.37.07-.53.12-1.07.25-1.6.37-.05.01-.15,0-.18-.05Zm.63.95c.63-.13,1.22-.26,1.83-.38.33,1,.76,1.93,1.39,2.76-1.29-.48-2.34-1.27-3.22-2.37Zm5.47,2.78c-.39-.11-.72-.32-1.01-.59-.8-.74-1.24-1.68-1.62-2.71.89-.05,1.75-.1,2.62-.16v3.46ZM14.58,3.88c-.62.13-1.2.25-1.8.38-.32-.98-.75-1.88-1.36-2.7,1.25.48,2.28,1.25,3.15,2.33Zm-5.45,4.22v-2.53c.97-.06,1.94-.12,2.91-.18.21.89.33,1.79.35,2.71h-3.26Zm2.9,3.71c-.97-.07-1.93-.13-2.9-.2v-2.48h3.24c.05.43-.15,1.99-.35,2.68ZM9.13,1.08c.47.13.83.4,1.16.73.57.58.94,1.28,1.26,2.01.07.17.13.35.22.57-.89.05-1.75.1-2.63.16V1.08Zm0,15.02v-3.48c.87.06,1.73.11,2.63.17-.56,1.38-1.14,2.69-2.63,3.31Zm2.25-.43c.63-.82,1.05-1.74,1.39-2.73.6.13,1.19.26,1.8.4-.88,1.08-1.92,1.86-3.19,2.33Zm3.8-3.22c-.72-.17-1.42-.33-2.1-.49.12-.94.24-1.88.36-2.84h2.75c-.08,1.2-.42,2.31-1.02,3.33Zm-1.73-4.37c-.12-.96-.24-1.91-.36-2.86.67-.15,1.37-.3,2.09-.46.6,1.01.94,2.12,1.02,3.32h-2.75Z"/>
</svg>