<?xml version="1.0" encoding="UTF-8"?>
<svg id="Layer_1" data-name="Layer 1" xmlns="http://www.w3.org/2000/svg" viewBox="0 0 35 29.05" style="
fill: white">
  <defs>
    <style>
      .cls-1 {
        stroke-width: 0px;
      }
    </style>
  </defs>
  <path class="cls-1" d="m9.66,19.15l-.04.09c-.14.2-.22.44-.22.7,0,.66.54,1.2,1.2,1.2h13.05c.66,0,1.2-.54,1.2-1.2,0-.26-.08-.5-.22-.7l-.03-.07c-2.01-2.51-6.27-2.7-6.27-2.7,0,0-.06,0-.06-1.04,1.37-.75,2.26-2.16,2.34-3.72v-3.06c0-3.06-3.35-2.87-3.35-2.87h-.25s-3.34-.19-3.34,2.87v3.06c.08,1.56.96,2.97,2.33,3.72,0,1.04-.06,1.04-.06,1.04,0,0-4.25.19-6.26,2.68Z"/>
  <path class="cls-1" d="m5.67,15.65l3.26-3.26c.53-.53.53-1.4,0-1.94s-1.4-.53-1.94,0l-.89.89c1.39-5.04,5.94-8.61,11.27-8.61,4.67,0,8.89,2.76,10.77,7.04.3.69,1.11,1.01,1.8.71.69-.3,1.01-1.11.71-1.8C28.34,3.41,23.13,0,17.38,0,10.56,0,4.73,4.72,3.26,11.3l-.84-.85c-.53-.53-1.4-.53-1.94,0s-.53,1.4,0,1.94l3.26,3.26c.27.27.62.4.97.4s.7-.13.97-.4Z"/>
  <path class="cls-1" d="m34.48,16.32l-3.26-3.26c-.53-.53-1.4-.53-1.94,0l-3.26,3.26c-.53.53-.53,1.4,0,1.94s1.4.53,1.94,0l.71-.71c-1.37,5.03-5.98,8.68-11.29,8.68-4.85,0-9.14-2.92-10.93-7.43-.28-.7-1.07-1.05-1.78-.77s-1.05,1.07-.77,1.78c2.2,5.56,7.49,9.16,13.47,9.16,6.9,0,12.87-4.98,14.2-11.68l.97.97c.27.27.62.4.97.4s.7-.13.97-.4c.53-.53.53-1.4,0-1.94Z"/>
</svg>