<?xml version="1.0" encoding="UTF-8"?>
<svg id="Layer_1" data-name="Layer 1" xmlns="http://www.w3.org/2000/svg" viewBox="0 0 9.51 11.23" style="
    fill: white;
">
  <path d="m6.46,8.47c-.15-.08-.3-.1-.47-.07-.19.04-.39.25-.39.45,0,.2,0,.39,0,.59,0,.1-.01.21-.05.3-.1.22-.28.32-.52.32-1.14,0-2.27,0-3.41,0-.16,0-.29-.08-.39-.2-.1-.12-.1-.27-.1-.42,0-1.45,0-2.9,0-4.34,0-.04,0-.09,0-.13,0-.26.21-.49.51-.49,1.14,0,2.27,0,3.41,0,.18,0,.36.06.45.23.06.11.08.25.09.38.02.21,0,.42.02.62.03.29.26.45.53.45.3,0,.54-.17.56-.47.02-.3,0-.61-.02-.92-.02-.34-.18-.63-.4-.88-.34-.37-.78-.53-1.28-.53-1.08,0-2.15,0-3.23,0-.13,0-.27,0-.4.03-.44.08-.79.28-1.05.65C.09,4.35,0,4.7,0,5.08c0,1.46,0,2.91,0,4.37,0,.14.01.28.04.42.09.48.36.85.79,1.09.18.1.39.15.58.22h3.84s.09-.03.13-.04c.61-.14,1.02-.5,1.22-1.09.13-.38.11-.78.09-1.18,0-.17-.08-.32-.24-.4Z"/>
  <path d="m9.51,1.95c0-.18-.01-.37-.04-.55-.07-.53-.35-.92-.82-1.19C8.38.06,8.09,0,7.79,0c-1.06,0-2.12,0-3.18,0-.23,0-.46.01-.69.08-.32.11-.58.29-.79.56-.22.29-.34.61-.34.97,0,.23-.01.45,0,.68.03.3.24.43.49.45.24.02.5-.1.58-.37.02-.08.03-.16.04-.24,0-.16,0-.31,0-.47,0-.34.22-.54.55-.54,1.12,0,2.23,0,3.35,0,.15,0,.29.03.4.15.13.13.17.3.17.48,0,.72,0,1.45,0,2.17,0,.38,0,.76,0,1.13,0,.38,0,.76,0,1.15,0,.3-.23.51-.53.51-1.15,0-2.3,0-3.45,0-.23,0-.47-.23-.47-.45,0-.21,0-.42-.01-.62,0-.11-.03-.24-.08-.34-.11-.21-.31-.26-.53-.26-.27,0-.48.2-.5.44-.02.28-.04.56,0,.84.05.44.23.82.58,1.11.31.26.66.39,1.06.39,1.11,0,2.22,0,3.33,0,.13,0,.27,0,.4-.03.44-.09.8-.32,1.06-.7.2-.3.29-.65.29-1.01,0-1.38,0-2.76,0-4.14Z"/>
</svg>