<?xml version="1.0" encoding="UTF-8"?>
<svg id="Layer_1" data-name="Layer 1" xmlns="http://www.w3.org/2000/svg" viewBox="0 0 10.37 14.57" style="
    fill: white;
">
  <defs>
    <style>
      .cls-1 {
        fill: none;
      }
    </style>
  </defs>
  <path class="cls-1" d="m9.22,10.37c-1.08-1.36-3.39-1.46-3.39-1.46,0,0-.03,0-.03-.56.74-.4,1.22-1.17,1.26-2.01v-1.65c0-1.65-1.81-1.55-1.81-1.55h-.14s-1.81-.1-1.81,1.55v1.65c.04.84.52,1.61,1.26,2.01,0,.56-.03.56-.03.56,0,0-2.29.1-3.38,1.45l-.02.05c-.08.11-.12.24-.12.38,0,.36.29.65.65.65h7.05c.36,0,.65-.29.65-.65,0-.14-.04-.27-.12-.38v-.04Z"/>
  <path d="m9.61,0h-5.47L0,4.17v9.59c0,.42.34.76.76.76h8.86c.42,0,.76-.34.76-.76V.76c0-.42-.34-.76-.76-.76Zm-.9,11.43H1.66c-.36,0-.65-.29-.65-.65,0-.14.04-.27.12-.38l.02-.05c1.09-1.35,3.38-1.45,3.38-1.45,0,0,.03,0,.03-.56-.74-.4-1.22-1.17-1.26-2.01v-1.65c0-1.65,1.81-1.55,1.81-1.55h.14s1.81-.1,1.81,1.55v1.65c-.04.84-.52,1.61-1.26,2.01,0,.56.03.56.03.56,0,0,2.31.1,3.39,1.46v.04c.09.11.14.24.14.38,0,.36-.29.65-.65.65Z"/>
</svg>