<?xml version="1.0" encoding="UTF-8"?>
<svg id="Layer_1" data-name="Layer 1" xmlns="http://www.w3.org/2000/svg" viewBox="0 0 12.85 18.8" style="
fill : #367BF5">
  <defs>
    <style>
      .cls-1 {
        fill: none;
      }
    </style>
  </defs>
  <path class="cls-1" d="m3.1,7.35c-.31.06-.54.36-.54.65l.97,9.48c0,.31.27.53.64.53.27,0,.53-.31.49-.61l-.91-9.56c-.04-.28-.35-.53-.66-.5Z"/>
  <path class="cls-1" d="m6.58,7.31c-.31,0-.58.25-.58.59v9.54c0,.31.27.57.58.57.35,0,.58-.27.58-.57V7.9c0-.34-.23-.59-.58-.59Z"/>
  <path class="cls-1" d="m10.13,7.35c-.31-.04-.6.21-.64.5l-.93,9.56c-.04.31.14.61.49.61.31,0,.62-.23.66-.53l.94-9.48c0-.29-.23-.59-.53-.65Z"/>
  <path d="m1.05,5.04L11.43,1.5c.43-.15.66-.57.51-.99-.16-.38-.62-.61-1.01-.46l-2.71.94c-.14-.44-.64-.69-1.07-.56l-3.35,1.17c-.43.15-.66.61-.51,1.09l-2.73.9c-.39.17-.66.61-.51,1.01.16.42.62.59,1.01.44Z"/>
  <path d="m12.27,5.28H.88c-.31,0-.54.23-.54.44v.98c0,.21.23.4.54.4h.12v.21l.95,10.44c0,.61.47,1,.97,1h7.42c.49,0,.94-.38.94-1l.97-10.44v-.21h.02c.31,0,.58-.19.58-.4v-.98c0-.21-.27-.44-.58-.44Zm-8.1,12.73c-.37,0-.64-.23-.64-.53l-.97-9.48c0-.29.23-.59.54-.65.31-.04.62.21.66.5l.91,9.56c.04.31-.23.61-.49.61Zm2.98-.57c0,.31-.23.57-.58.57-.31,0-.58-.27-.58-.57V7.9c0-.34.27-.59.58-.59.35,0,.58.25.58.59v9.54Zm2.57.04c-.04.31-.35.53-.66.53-.35,0-.53-.31-.49-.61l.93-9.56c.04-.28.33-.53.64-.5.31.06.53.36.53.65l-.94,9.48Z"/>
</svg>