<?xml version="1.0" encoding="UTF-8"?>
<svg id="Layer_1" data-name="Layer 1" xmlns="http://www.w3.org/2000/svg" viewBox="0 0 10.18 10.08" style="fill:#1db954">
  <defs>
    <style>
      .cls-1 {
        fill: none;
      }
    </style>
  </defs>
  <path class="cls-1" d="m2.5,3.23c-.43,0-.77.35-.77.78s.35.77.77.77.77-.35.77-.77-.35-.78-.77-.78Z"/>
  <path class="cls-1" d="m5.09,3.23c-.43,0-.77.35-.77.78s.35.77.77.77.77-.35.77-.77-.35-.78-.77-.78Z"/>
  <path class="cls-1" d="m7.68,3.23c-.43,0-.77.35-.77.78s.35.77.77.77.78-.35.78-.77-.35-.78-.78-.78Z"/>
  <path d="m9.76,0H.42c-.23,0-.42.19-.42.42v7.33c0,.23.19.42.42.42h1.25v1.48c0,.16.1.31.25.38.06.03.12.04.18.04.1,0,.2-.04.28-.1l2.09-1.8h5.3c.23,0,.42-.19.42-.42V.42c0-.23-.19-.42-.42-.42ZM2.5,4.78c-.43,0-.77-.35-.77-.77s.35-.78.77-.78.77.35.77.78-.35.77-.77.77Zm2.59,0c-.43,0-.77-.35-.77-.77s.35-.78.77-.78.77.35.77.78-.35.77-.77.77Zm2.59,0c-.43,0-.77-.35-.77-.77s.35-.78.77-.78.78.35.78.78-.35.77-.78.77Z"/>
</svg>