<?xml version="1.0" encoding="UTF-8"?>
<svg id="Layer_1" data-name="Layer 1" xmlns="http://www.w3.org/2000/svg" viewBox="0 0 10.18 10.08" style="
    fill: white;
">
  <defs>
    <style>
      .cls-1 {
        fill: none;
      }
    </style>
  </defs>
  <path class="cls-1" d="m5.23,1.17c-.79,0-1.54.31-2.1.87s-.87,1.31-.87,2.1.31,1.54.87,2.1,1.31.87,2.1.87,1.54-.31,2.1-.87.87-1.31.87-2.1-.31-1.54-.87-2.1-1.31-.87-2.1-.87Zm.46,3.25l-1.99,1.05c-.07.04-.14.05-.22.05-.17,0-.33-.09-.41-.25-.06-.11-.07-.24-.03-.35.04-.12.12-.22.23-.27l1.5-.79v-1.75c0-.26.21-.46.46-.46s.46.21.46.46v2.31Z"/>
  <path d="m9.76,0H.42c-.23,0-.42.19-.42.42v7.33c0,.23.19.42.42.42h1.25v1.48c0,.16.1.31.25.38.06.03.12.04.18.04.1,0,.2-.04.28-.1l2.09-1.8h5.3c.23,0,.42-.19.42-.42V.42c0-.23-.19-.42-.42-.42Zm-2.43,6.24c-.56.56-1.31.87-2.1.87s-1.54-.31-2.1-.87-.87-1.31-.87-2.1.31-1.54.87-2.1,1.31-.87,2.1-.87,1.54.31,2.1.87.87,1.31.87,2.1-.31,1.54-.87,2.1Z"/>
  <path d="m5.23,1.65c-.26,0-.46.21-.46.46v1.75l-1.5.79c-.11.06-.19.16-.23.27-.04.12-.02.24.03.35.08.15.24.25.41.25.08,0,.15-.02.22-.05l1.99-1.05v-2.31c0-.26-.21-.46-.46-.46Z"/>
</svg>