<?xml version="1.0" encoding="UTF-8"?>
<svg id="Layer_1" data-name="Layer 1" xmlns="http://www.w3.org/2000/svg" viewBox="0 0 11.18 8.53"   style="fill:#228cce">
  <path d="m6.53,5.44c-.32.21-.68.32-1.07.29-.33-.02-.63-.16-.9-.34C3.08,4.41,1.61,3.42.13,2.44c-.04-.03-.08-.05-.13-.09v.15C0,4.15,0,5.81,0,7.46c0,.29.16.53.39.7.21.16.45.22.71.22,3,0,6.01,0,9.01,0,.47,0,.93-.36,1.01-.78,0-.02.03-.03.04-.04V2.35c-.19.12-.39.24-.58.37-1.36.9-2.71,1.81-4.07,2.72Z"/>
  <path d="m11.12.71C10.97.27,10.59,0,10.08,0,7.27,0,4.45,0,1.64,0c-.24,0-.49,0-.73.02-.23,0-.42.1-.58.25C.1.49-.02.76,0,1.09c.02.31.14.56.39.73,1.55,1.04,3.1,2.08,4.66,3.11.2.13.42.18.66.14.24-.04.43-.16.63-.29,1.39-.92,2.78-1.85,4.17-2.77.23-.15.46-.3.57-.57.03-.07.06-.14.09-.21v-.35c-.02-.05-.04-.11-.06-.16Z"/>
</svg>