<?xml version="1.0" encoding="UTF-8"?>
<svg id="Layer_1" data-name="Layer 1" xmlns="http://www.w3.org/2000/svg" viewBox="0 0 25 25" style="
fill:white">
  <defs>
    <style>
      .cls-1 {
        fill: none;
      }
    </style>
  </defs>
  <path class="cls-1" d="m18.3,12.04H6.62c-.21,0-.38.07-.48.2-.11.14-.14.34-.09.57l1.22,5.2c.15.65.63,1.08.88,1.08h.38c0-1.79,3.14-1.9,3.14-1.9,0,0,.03,0,.03-.46-.8-.34-1.39-.97-1.52-1.67l-.18-1.37c-.18-1.37,2.39-1.26,2.39-1.26h.19s2.57-.06,2.3,1.3l-.27,1.36c-.18.69-.82,1.32-1.64,1.65-.04.46,0,.46,0,.46h0s3.14.13,3.01,1.89h.67c.25,0,.74-.44.91-1.09l1.29-5.2c.06-.23.03-.43-.08-.57-.1-.13-.26-.19-.47-.19Z"/>
  <path d="m19.84,11.4c-.36-.46-.92-.72-1.54-.72H6.62c-.62,0-1.19.26-1.55.71-.37.47-.5,1.1-.35,1.73l1.22,5.2c.13.54.41,1.06.78,1.45.42.44.93.68,1.43.68h8.49c.5,0,1-.24,1.43-.68.38-.39.66-.9.8-1.45l1.29-5.2c.16-.63.04-1.27-.33-1.74Zm-.99,1.41l-1.29,5.2c-.16.66-.65,1.09-.91,1.09h-.67c.12-1.76-3.01-1.89-3.01-1.89h0s-.03,0,0-.46c.82-.33,1.45-.95,1.64-1.65l.27-1.36c.27-1.36-2.3-1.29-2.3-1.29h-.19s-2.56-.11-2.39,1.26l.18,1.37c.14.7.73,1.33,1.52,1.67,0,.46-.03.46-.03.46,0,0-3.15.11-3.14,1.9h-.38c-.25,0-.73-.43-.88-1.08l-1.22-5.2c-.05-.23-.02-.43.09-.57.1-.13.27-.2.48-.2h11.68c.21,0,.37.07.47.19.11.14.14.34.08.57Z"/>
  <path d="m8.7,8.43h7.53c.6,0,1.08.48,1.08,1.08h1.36c0-1.35-1.09-2.44-2.44-2.44h-7.53c-1.35,0-2.44,1.1-2.44,2.44h1.36c0-.6.48-1.08,1.08-1.08Z"/>
  <path d="m10.12,4.81h4.7c.6,0,1.08.48,1.08,1.08h1.36c0-1.35-1.1-2.44-2.44-2.44h-4.7c-1.35,0-2.44,1.1-2.44,2.44h1.36c0-.6.48-1.08,1.08-1.08Z"/>
</svg>