<?xml version="1.0" encoding="UTF-8"?>
<svg id="Layer_1" data-name="Layer 1" xmlns="http://www.w3.org/2000/svg" viewBox="0 0 14.57 14.57" style="fill:#f8b318">
  <defs>
    <style>
      .cls-1 {
        fill: none;
      }
    </style>
  </defs>
  <path class="cls-1" d="m11.19,3.38c-1.04-1.04-2.43-1.62-3.9-1.62s-2.86.57-3.9,1.62-1.62,2.43-1.62,3.9.57,2.86,1.62,3.9,2.43,1.62,3.9,1.62,2.86-.57,3.9-1.62,1.62-2.43,1.62-3.9-.57-2.86-1.62-3.9Zm-3.04,4.42l-3.7,1.96c-.12.07-.26.1-.4.1-.32,0-.61-.18-.76-.46-.11-.2-.13-.44-.06-.66.07-.22.22-.4.42-.51l2.78-1.47v-3.25c0-.47.39-.86.86-.86s.86.39.86.86v4.29Z"/>
  <path d="m12.41,2.16C11.04.79,9.22.04,7.29.04S3.54.79,2.17,2.16.05,5.34.05,7.28s.75,3.75,2.12,5.12c1.37,1.37,3.19,2.12,5.12,2.12s3.75-.75,5.12-2.12c1.37-1.37,2.12-3.19,2.12-5.12s-.75-3.75-2.12-5.12Zm-1.22,9.02c-1.04,1.04-2.43,1.62-3.9,1.62s-2.86-.57-3.9-1.62-1.62-2.43-1.62-3.9.57-2.86,1.62-3.9,2.43-1.62,3.9-1.62,2.86.57,3.9,1.62,1.62,2.43,1.62,3.9-.57,2.86-1.62,3.9Z"/>
  <path d="m7.29,2.65c-.47,0-.86.39-.86.86v3.25l-2.78,1.47c-.2.11-.35.29-.42.51-.07.22-.05.45.06.66.15.28.44.46.76.46.14,0,.28-.03.4-.1l3.7-1.96V3.51c0-.47-.39-.86-.86-.86Z"/>
</svg>