<?xml version="1.0" encoding="UTF-8"?>
<svg id="Layer_1" data-name="Layer 1" xmlns="http://www.w3.org/2000/svg" viewBox="0 0 9.06 11.14" style="fill:white">
  <defs>
    <style>
      .cls-1 {
        stroke-width: 0px;
      }
    </style>
  </defs>
  <path class="cls-1" d="m4.52,0c-.67,0-1.22.55-1.22,1.22,0,.67.55,1.22,1.22,1.22.67,0,1.22-.55,1.22-1.22C5.74.55,5.19,0,4.52,0Z"/>
  <path class="cls-1" d="m2.76,11.14c-.06-.02-.12-.04-.17-.06-.28-.11-.43-.36-.38-.66.21-1.19.44-2.37.64-3.56.1-.59.18-1.18.23-1.77.04-.43-.05-.52-.46-.65-.62-.19-1.24-.38-1.85-.58-.19-.06-.37-.15-.53-.27-.37-.27-.29-.92.12-1.12.13-.06.25-.05.38-.01.92.28,1.86.48,2.81.62.75.1,1.5.07,2.25-.05.85-.13,1.68-.33,2.5-.57.27-.08.48,0,.62.24.18.3.24.73-.25.98-.22.12-.47.2-.7.28-.52.19-1.04.36-1.56.55-.45.17-.5.23-.46.74.1,1.09.32,2.16.52,3.23.12.64.24,1.27.36,1.91.06.34-.11.62-.45.71-.03,0-.06.02-.09.03h-.28c-.34-.09-.48-.34-.55-.66-.04-.17-.06-.35-.1-.52-.18-.78-.36-1.57-.55-2.35-.04-.17-.12-.34-.19-.5-.06-.13-.13-.13-.2,0-.02.04-.05.09-.06.14-.06.17-.13.35-.17.53-.19.87-.38,1.74-.57,2.61-.07.34-.19.64-.57.75h-.28Z"/>
  <path class="cls-1" d="m4.52,0c.67,0,1.22.55,1.22,1.22,0,.67-.55,1.22-1.22,1.22-.67,0-1.22-.55-1.22-1.22C3.31.55,3.85,0,4.52,0Z"/>
</svg>