<?xml version="1.0" encoding="UTF-8"?>
<svg id="Layer_1" data-name="Layer 1" xmlns="http://www.w3.org/2000/svg" viewBox="0 0 16.04 16.08" style="fill:#1db954">
  <defs>
    <style>
      .cls-1 {
        fill: none;
      }
    </style>
  </defs>
  <path class="cls-1" d="m11.91,8.87c-1.7,0-3.08,1.38-3.08,3.08s1.38,3.08,3.08,3.08,3.08-1.38,3.08-3.08-1.38-3.08-3.08-3.08Zm1.54,3.92h-2.07c-.28,0-.51-.23-.51-.51v-2.04c0-.28.23-.51.51-.51s.51.23.51.51v1.53h1.56c.28,0,.51.23.51.51s-.23.51-.51.51Z"/>
  <path d="m1.05,4.82h10.67v2.1h1.02v-3.96c0-.54-.44-.98-.98-.98h-.9V.54c0-.28-.23-.51-.51-.51s-.51.23-.51.51v1.44H2.93V.54C2.93.26,2.7.03,2.42.03s-.51.23-.51.51v1.44h-.9C.47,1.98.03,2.42.03,2.96v9.07c0,.54.44.98.98.98h5.91v-1.02H1.05v-7.16Z"/>
  <rect x="1.93" y="5.96" width="1.93" height="1.93"/>
  <rect x="1.93" y="8.94" width="1.93" height="1.93"/>
  <rect x="4.91" y="5.96" width="1.93" height="1.93"/>
  <rect x="4.91" y="8.94" width="1.93" height="1.93"/>
  <rect x="7.9" y="5.96" width="1.93" height="1.93"/>
  <path d="m13.45,11.76h-1.56v-1.53c0-.28-.23-.51-.51-.51s-.51.23-.51.51v2.04c0,.28.23.51.51.51h2.07c.28,0,.51-.23.51-.51s-.23-.51-.51-.51Z"/>
  <path d="m11.91,7.85c-2.26,0-4.1,1.84-4.1,4.1s1.84,4.1,4.1,4.1,4.1-1.84,4.1-4.1-1.84-4.1-4.1-4.1Zm0,7.18c-1.7,0-3.08-1.38-3.08-3.08s1.38-3.08,3.08-3.08,3.08,1.38,3.08,3.08-1.38,3.08-3.08,3.08Z"/>
</svg>