<?xml version="1.0" encoding="UTF-8"?>
<svg id="Layer_1" data-name="Layer 1" xmlns="http://www.w3.org/2000/svg" viewBox="0 0 12.5 12.43" style="fill:#228cce">
  <defs>
    <style>
      .cls-1 {
        fill: none;
      }
    </style>
  </defs>
  <path class="cls-1" d="m5.56,4.87c-.58.99-1.15,1.97-1.73,2.97.01.01.04.03.06.05.48.32.81.76.98,1.31.03.1.07.12.17.12.75,0,1.5,0,2.24,0h.29c.16-.65.55-1.12,1.07-1.49-.58-1-1.16-1.98-1.73-2.95-.46.11-.9.13-1.35,0Z"/>
  <path d="m12.39,9.42c-.13-.62-.45-1.12-.96-1.49-.43-.32-.93-.46-1.47-.47-.05,0-.12-.04-.14-.08-.21-.34-.41-.69-.61-1.04-.41-.7-.81-1.39-1.22-2.09.09-.12.18-.22.27-.34.43-.62.57-1.3.39-2.02-.14-.58-.46-1.06-.96-1.42C7.06.02,6.35-.1,5.61.08c-.65.16-1.15.54-1.5,1.11-.31.51-.43,1.07-.34,1.66.08.5.29.96.66,1.32.05.05.06.09.02.15-.08.12-.15.24-.22.37-.52.89-1.04,1.78-1.55,2.67-.05.08-.1.11-.19.11-.21.01-.43,0-.62.07-.5.15-.94.4-1.28.82-.48.6-.68,1.28-.53,2.02.17.88.68,1.53,1.52,1.87.64.26,1.28.24,1.91-.03.68-.3,1.15-.81,1.38-1.52.04-.12.09-.14.2-.14.51,0,1.02,0,1.53,0h.98c.15.56.45,1.01.9,1.35.65.49,1.38.63,2.16.41.55-.15.99-.46,1.33-.92.44-.6.58-1.26.44-1.99Zm-4.82-.1h-.29c-.75,0-1.5,0-2.24,0-.09,0-.14-.02-.17-.12-.17-.55-.5-.98-.98-1.31-.02-.02-.05-.04-.06-.05.58-.99,1.15-1.98,1.73-2.97.45.13.89.11,1.35,0,.57.98,1.15,1.96,1.73,2.95-.52.37-.91.85-1.07,1.49Z"/>
</svg>