<?xml version="1.0" encoding="UTF-8"?>
<svg id="Layer_1" data-name="Layer 1" xmlns="http://www.w3.org/2000/svg" viewBox="0 0 15.04 12.46" style="fill:#f8b318">
  <defs>
    <style>
      .cls-1 {
        fill: none;
      }
    </style>
  </defs>
  <path class="cls-1" d="m9.39,1.25c0-.07-.06-.13-.13-.13h-3.44c-.07,0-.13.06-.13.13v.79h3.7v-.79Z"/>
  <path class="cls-1" d="m13.95,4.88H1.08c-.09,0-.16.07-.16.16v.63c0,.09.07.16.16.16h1.73v1.46c0,.25.2.45.45.45h.99c.25,0,.45-.2.45-.45v-1.46h5.64v1.46c0,.25.2.45.45.45h.99c.25,0,.45-.2.45-.45v-1.46h1.7c.09,0,.16-.07.16-.16v-.63c0-.09-.07-.16-.16-.16Z"/>
  <path d="m14.08,2.05h-3.64v-.79c0-.65-.53-1.18-1.18-1.18h-3.44c-.65,0-1.18.53-1.18,1.18v.79H.98C.47,2.05.06,2.46.06,2.96v8.54c0,.51.41.92.92.92h13.1c.51,0,.92-.41.92-.92V2.96c0-.51-.41-.92-.92-.92Zm-8.39-.79c0-.07.06-.13.13-.13h3.44c.07,0,.13.06.13.13v.79h-3.7v-.79Zm8.42,4.42c0,.09-.07.16-.16.16h-1.7v1.46c0,.25-.2.45-.45.45h-.99c-.25,0-.45-.2-.45-.45v-1.46h-5.64v1.46c0,.25-.2.45-.45.45h-.99c-.25,0-.45-.2-.45-.45v-1.46h-1.73c-.09,0-.16-.07-.16-.16v-.63c0-.09.07-.16.16-.16h12.87c.09,0,.16.07.16.16v.63Z"/>
</svg>