<?xml version="1.0" encoding="UTF-8"?>
<svg id="Layer_1" data-name="Layer 1" xmlns="http://www.w3.org/2000/svg" viewBox="0 0 25 25" style="fill:#1db954">
  <path d="m20.5,18.62l-.03-.07c-2.16-2.7-6.74-2.9-6.74-2.9h0s-.07,0-.07-1.12c1.48-.8,2.43-2.32,2.51-4v-3.29c0-3.29-3.6-3.08-3.6-3.08h-.27s-3.59-.2-3.59,3.08v3.29c.08,1.68,1.03,3.19,2.51,4,0,1.12-.07,1.12-.07,1.12,0,0-4.56.2-6.72,2.88l-.05.09c-.15.21-.24.47-.24.75,0,.71.58,1.29,1.29,1.29h14.02c.71,0,1.29-.58,1.29-1.29,0-.28-.09-.54-.24-.75Z"/>
</svg>