<?xml version="1.0" encoding="UTF-8"?>
<svg id="Layer_1" data-name="Layer 1" xmlns="http://www.w3.org/2000/svg" viewBox="0 0 15.47 15.47" style="fill:white">
  <defs>
    <style>
      .cls-1 {
        fill: none;
      }
    </style>
  </defs>
  <path class="cls-1" d="m12.27,1.41L1.91,11.77l1.79,1.79L14.06,3.2c-.09-.2-.3-.55-.77-1.02-.47-.47-.82-.68-1.02-.77Z"/>
  <path d="m14.24,1.23C13.01,0,12.21-.02,11.99,0c-.15.02-.3.08-.41.19L.8,10.98c-.1.1-.16.22-.19.35L.01,14.68c-.04.22.03.44.19.59.13.13.3.2.47.2.04,0,.08,0,.12-.01l3.35-.6c.13-.02.26-.09.35-.19L15.27,3.89c.11-.11.18-.25.19-.41.02-.22,0-1.02-1.23-2.25ZM3.7,13.56l-1.79-1.79L12.27,1.41c.2.09.55.3,1.02.77.47.47.68.82.77,1.02L3.7,13.56Z"/>
</svg>