<?xml version="1.0" encoding="UTF-8"?>
<svg id="Layer_1" data-name="Layer 1" xmlns="http://www.w3.org/2000/svg" viewBox="0 0 16.1 16.1" style="
fill: white
">
  <defs> 
    <style>
      .cls-1 {
        fill: none;
      }
    </style>
  </defs>
  <path class="cls-1" d="m1.57,8.05c0,1.73.67,3.35,1.9,4.58s2.85,1.9,4.58,1.9c1.46,0,2.85-.48,3.99-1.37L2.95,4.06c-.89,1.13-1.37,2.52-1.37,3.99Z"/>
  <path class="cls-1" d="m12.63,3.47c-1.22-1.22-2.85-1.9-4.58-1.9-1.46,0-2.85.48-3.99,1.37l9.09,9.09c.89-1.13,1.37-2.52,1.37-3.99,0-1.73-.67-3.35-1.9-4.58Z"/>
  <path d="m13.74,2.36c-1.52-1.52-3.54-2.36-5.69-2.36S3.88.84,2.36,2.36,0,5.9,0,8.05s.84,4.17,2.36,5.69c1.52,1.52,3.54,2.36,5.69,2.36s4.17-.84,5.69-2.36,2.36-3.54,2.36-5.69-.84-4.17-2.36-5.69Zm-5.69,12.17c-1.73,0-3.35-.67-4.58-1.9s-1.9-2.85-1.9-4.58c0-1.46.48-2.85,1.37-3.99l9.09,9.09c-1.13.89-2.52,1.37-3.99,1.37Zm5.1-2.49L4.06,2.95c1.13-.89,2.52-1.37,3.99-1.37,1.73,0,3.35.67,4.58,1.9s1.9,2.85,1.9,4.58c0,1.46-.48,2.85-1.37,3.99Z"/>
</svg>