<?xml version="1.0" encoding="UTF-8"?>
<svg id="Layer_1" data-name="Layer 1" xmlns="http://www.w3.org/2000/svg" viewBox="0 0 37 37">
  <defs>
    <style>
      .cls-1 {
        fill: #e41e26;
      }

      .cls-1, .cls-2 {
        stroke-width: 0px;
      }

      .cls-2 {
        fill: #fff;
      }
    </style>
  </defs>
  <circle class="cls-1" cx="18.5" cy="18.5" r="18.5"/>
  <g id="Group_932" data-name="Group 932">
    <path id="Path_2267" data-name="Path 2267" class="cls-2" d="m20.17,22.7s-.09,0-.09-1.45c1.92-1.04,3.15-3.01,3.26-5.18v-4.26c0-4.26-4.66-4-4.66-4h-.35s-4.66-.26-4.66,4v4.26c.11,2.18,1.34,4.14,3.25,5.18,0,1.45-.09,1.45-.09,1.45,0,0-5.91.26-8.72,3.73l-.06.12c-.2.27-.31.61-.31.97,0,.92.75,1.67,1.67,1.67h.65s17.07,0,17.07,0h.46c.92,0,1.67-.75,1.67-1.67,0-.36-.12-.7-.31-.97l-.04-.09c-2.79-3.5-8.74-3.76-8.74-3.76"/>
  </g>
</svg>