<?xml version="1.0" encoding="UTF-8"?>
<svg id="Layer_1" data-name="Layer 1" xmlns="http://www.w3.org/2000/svg" viewBox="0 0 16.26 17.23">
  <defs>
    <style>
      .cls-1 {
        fill: none;
      }

      .cls-2 {
        fill: #f8b318;
      }

      .cls-3 {
        fill: #ee4745;
      }

      .cls-4 {
        fill: #1db954;
      }

      .cls-5 {
        fill: #228cce;
      }
    </style>
  </defs>
  <path class="cls-1" d="m1.72,13.48l6.58,1.78V2L1.72,3.93v9.55Zm.54-2.73v-.03c.71-.86,2.17-.83,2.17-.83,0,0,.02,0,.02-.45-.47-.33-.78-.91-.8-1.55v-1.25c0-1.25,1.15-1.45,1.15-1.45l.09-.02s1.15-.37,1.15,1.09v1.46c-.02.75-.33,1.42-.8,1.75,0,.47.02.47.02.47,0,0,1.47.2,2.16,1.56v.04c.06.11.09.24.09.38,0,.35-.18.59-.41.54l-.11-.02-4.22-.88-.16-.03c-.23-.05-.41-.28-.41-.52,0-.1.03-.18.08-.24Z"/>
  <path class="cls-3" d="m2.59,11.52l.16.03,4.22.88.11.02c.23.05.41-.19.41-.54,0-.14-.03-.27-.08-.38v-.04c-.7-1.36-2.17-1.56-2.17-1.56,0,0-.02,0-.02-.47.47-.33.78-1,.8-1.75v-1.46c0-1.46-1.15-1.09-1.15-1.09l-.09.02s-1.15.2-1.15,1.45v1.25c.03.64.33,1.22.8,1.55,0,.45-.02.45-.02.45,0,0-1.46-.03-2.15.83v.03c-.06.06-.09.15-.09.24,0,.24.18.48.41.52Z"/>
  <path class="cls-2" d="m9.66.17c-.22-.16-.5-.21-.76-.14L.62,2.46c-.36.11-.62.44-.62.82v10.85c0,.39.26.73.63.83l8.29,2.24c.07.02.15.03.22.03.19,0,.37-.06.52-.18.21-.16.34-.42.34-.68V.86c0-.27-.13-.53-.34-.69Zm-1.37,15.08l-6.58-1.78V3.93l6.58-1.93v13.25Z"/>
  <path class="cls-5" d="m12.91,1.83c-.18-.16-.42-.24-.66-.21l-1.6.17v1.71l.84-.08v10.55l-.84-.06.02,1.71,1.61.13s.05,0,.07,0c.22,0,.42-.08.58-.23.18-.16.28-.39.28-.63V2.47c0-.24-.1-.48-.28-.64Z"/>
  <path class="cls-4" d="m16.03,4.26c-.15-.14-.35-.21-.55-.2l-1.61.11v1.46l.93-.06v6.21l-.92-.04v1.47l1.62.08s.02,0,.04,0c.19,0,.37-.07.51-.2.14-.14.23-.33.23-.53v-7.76c0-.2-.08-.4-.23-.54Z"/>
</svg>