<?xml version="1.0" encoding="UTF-8"?>
<svg id="Layer_1" data-name="Layer 1" xmlns="http://www.w3.org/2000/svg" viewBox="0 0 15.5 15.69" style="
fill:white">
  <defs>
    <style>
      .cls-1 {
        fill: none;
      }

      .cls-1, .cls-2 {
        stroke-width: 0px;
      }
    </style>
  </defs>
  <path class="cls-1" d="m5.45,1.33c-1.1,0-2.14.43-2.92,1.21-1.61,1.61-1.61,4.23,0,5.84,1.61,1.61,4.23,1.61,5.84,0,1.61-1.61,1.61-4.23,0-5.84-.78-.78-1.82-1.21-2.92-1.21Z"/>
  <path class="cls-2" d="m15.32,13.81l-4.58-4.58c-.24-.24-.62-.24-.86,0l-.25-.25c1.81-2.14,1.71-5.36-.31-7.38-1.03-1.03-2.4-1.6-3.86-1.6S2.63.57,1.6,1.6C-.53,3.73-.53,7.19,1.6,9.32c1.06,1.06,2.46,1.6,3.86,1.6,1.17,0,2.34-.37,3.31-1.12l.27.27c-.24.24-.24.63,0,.86l4.58,4.58c.24.24.63.24.87,0l.84-.84c.24-.24.24-.63,0-.87Zm-6.95-5.43c-1.61,1.61-4.23,1.61-5.84,0-1.61-1.61-1.61-4.23,0-5.84.78-.78,1.82-1.21,2.92-1.21s2.14.43,2.92,1.21c1.61,1.61,1.61,4.23,0,5.84Z"/>
</svg>