<?xml version="1.0" encoding="UTF-8"?>
<svg id="Layer_1" data-name="Layer 1" xmlns="http://www.w3.org/2000/svg" viewBox="0 0 37 37">
  <defs>
    <style>
      .cls-1 {
        fill: none;
      }

      .cls-1, .cls-2, .cls-3 {
        stroke-width: 0px;
      }

      .cls-2 {
        fill: none;
      }

      .cls-3 {
        fill: #f8b318;
      }
    </style>
  </defs>
  <circle class="cls-2" cx="18.5" cy="18.5" r="18.5"/>
  <g>
    <path class="cls-1" d="m17.45,16.39c-.91,1.56-1.82,3.1-2.74,4.67.02.02.06.05.09.07.75.51,1.28,1.19,1.55,2.06.05.16.12.2.27.2,1.18,0,2.37,0,3.55,0h.46c.26-1.02.87-1.77,1.7-2.35-.92-1.57-1.83-3.11-2.74-4.64-.73.18-1.43.2-2.14,0Z"/>
    <path class="cls-3" d="m28.26,23.54c-.2-.98-.72-1.76-1.52-2.35-.69-.5-1.47-.73-2.32-.74-.08,0-.18-.06-.22-.13-.33-.54-.64-1.08-.96-1.63-.64-1.1-1.29-2.19-1.93-3.28.14-.18.29-.35.42-.54.68-.97.9-2.04.62-3.18-.22-.91-.72-1.67-1.51-2.23-1.01-.71-2.12-.91-3.3-.63-1.03.25-1.82.85-2.37,1.75-.49.81-.69,1.68-.54,2.61.13.79.45,1.5,1.04,2.08.08.08.09.14.03.23-.12.19-.23.38-.35.57-.82,1.4-1.64,2.79-2.46,4.19-.07.13-.16.17-.3.18-.33.02-.68,0-.99.11-.79.24-1.49.63-2.02,1.3-.75.94-1.08,2.01-.84,3.18.27,1.38,1.07,2.4,2.41,2.94,1.01.41,2.03.38,3.02-.05,1.08-.47,1.82-1.27,2.18-2.39.06-.18.15-.22.32-.22.81,0,1.61,0,2.42,0h1.55c.24.88.71,1.59,1.42,2.13,1.03.77,2.18.99,3.42.65.86-.23,1.57-.72,2.1-1.44.69-.94.93-1.98.69-3.13Zm-7.63-.16h-.46c-1.18,0-2.37,0-3.55,0-.15,0-.22-.03-.27-.2-.27-.86-.8-1.55-1.55-2.06-.04-.03-.07-.06-.09-.07.92-1.56,1.83-3.11,2.74-4.67.71.2,1.42.18,2.14,0,.9,1.53,1.81,3.08,2.74,4.64-.83.58-1.44,1.33-1.7,2.35Z"/>
  </g>
</svg>