<?xml version="1.0" encoding="UTF-8"?>
<svg id="Layer_1" data-name="Layer 1" xmlns="http://www.w3.org/2000/svg" viewBox="0 0 37 37">
  <defs>
    <style>
      .cls-1 {
        fill: none;
      }

      .cls-1, .cls-2, .cls-3 {
        stroke-width: 0px;
      }

      .cls-2 {
        fill: #f8b318;
      }

      .cls-3 {
        fill: #fff;
      }
    </style>
  </defs>
  <circle class="cls-2" cx="18.5" cy="18.5" r="18.5"/>
  <g>
    <path class="cls-1" d="m18.77,10.99c-1.54,0-2.99.6-4.08,1.69-1.09,1.09-1.69,2.54-1.69,4.08s.6,2.99,1.69,4.08c1.09,1.09,2.54,1.69,4.08,1.69s2.99-.6,4.08-1.69,1.69-2.54,1.69-4.08-.6-2.99-1.69-4.08c-1.09-1.09-2.54-1.69-4.08-1.69Zm.9,6.31l-3.87,2.05c-.13.07-.27.1-.42.1-.33,0-.64-.18-.8-.48-.11-.21-.14-.46-.06-.69.07-.23.23-.42.44-.53l2.91-1.54v-3.4c0-.5.4-.9.9-.9s.9.4.9.9v4.48Z"/>
    <path class="cls-3" d="m27.55,8.72H9.45c-.45,0-.82.37-.82.82v14.23c0,.45.37.82.82.82h2.42v2.87c0,.32.19.61.48.74.11.05.23.07.34.07.19,0,.38-.07.53-.2l4.06-3.49h10.28c.45,0,.82-.37.82-.82v-14.23c0-.45-.37-.82-.82-.82Zm-4.71,12.11c-1.09,1.09-2.54,1.69-4.08,1.69s-2.99-.6-4.08-1.69c-1.09-1.09-1.69-2.54-1.69-4.08s.6-2.99,1.69-4.08c1.09-1.09,2.54-1.69,4.08-1.69s2.99.6,4.08,1.69c1.09,1.09,1.69,2.54,1.69,4.08s-.6,2.99-1.69,4.08Z"/>
    <path class="cls-3" d="m18.77,11.91c-.5,0-.9.4-.9.9v3.4l-2.91,1.54c-.21.11-.37.3-.44.53-.07.23-.05.47.06.69.16.3.46.48.8.48.15,0,.29-.04.42-.1l3.87-2.05v-4.48c0-.5-.4-.9-.9-.9Z"/>
  </g>
</svg>