<?xml version="1.0" encoding="UTF-8"?>
<svg id="Layer_1" data-name="Layer 1" xmlns="http://www.w3.org/2000/svg" viewBox="0 0 25 25">
  <path d="m16.83,12.45c-.03-.56-.03-1.13-.1-1.69-.08-.63-.16-1.26-.35-1.86-.24-.73-.62-1.09-1.48-1.08-1.68,0-3.36,0-5.04,0-.56,0-.94.25-1.19.73-.27.53-.39,1.09-.45,1.68-.06.63-.15,1.26-.19,1.89-.03.59,0,1.19,0,1.79,0,.33.22.52.48.66.24.13.56.04.77-.14.25-.2.31-.47.32-.77.03-1.06.06-2.12.1-3.19h.43v.29c0,3.38,0,6.77,0,10.15,0,.11,0,.23,0,.34.01.32.37.69.8.66.34-.03.7-.35.72-.68.03-.44.06-.88.1-1.32.02-.22.03-.45.05-.67.06-.69.14-1.37.19-2.06.04-.5.07-1.01.11-1.52h.68c.05.5.1,1,.14,1.5.05.61.1,1.21.15,1.82.05.71.09,1.43.15,2.14.03.4.33.8.79.79.46-.01.81-.39.81-.92,0-3.42,0-6.83,0-10.25v-.26c.31-.03.34-.03.35.13.04.37.08.73.1,1.1.03.53.04,1.07.05,1.6,0,.19,0,.38,0,.56.03.46.55.86.98.7.37-.15.6-.41.59-.8,0-.44-.03-.89-.05-1.33Z"/>
  <path d="m12.37,6.78c1.2-.03,1.9-.83,1.9-1.84,0-1.08-.76-1.8-1.87-1.81-.99,0-1.76.77-1.78,1.82-.02.97.85,1.85,1.75,1.83Z"/>
</svg>