<?xml version="1.0" encoding="UTF-8"?>
<svg id="Layer_1" data-name="Layer 1" xmlns="http://www.w3.org/2000/svg" viewBox="0 0 25 25" style="fill:white">
  <defs>
    <style>
      .cls-1 {
        fill: none;
      }
    </style>
  </defs>
  <path class="cls-1" d="m16.94,6.38h-3.78v.19c0,.39-.32.71-.71.71s-.71-.32-.71-.71v-.19h-4.11c-.28,0-.5.22-.5.5v12.16c0,.28.22.5.5.5h9.31c.28,0,.5-.22.5-.5V6.88c0-.28-.22-.5-.5-.5Zm-.34,11.3c0,.45-.36.81-.81.81h-6.68c-.45,0-.81-.36-.81-.81v-.09c0-.45.36-.81.81-.81h6.68c.45,0,.81.36.81.81v.09Zm-.01-1.99s-.08.06-.12.06h-7.93s-.09-.02-.12-.06c-.03-.04-.04-.09-.03-.13.18-.9.86-1.6,1.96-2,.62-.23,1.21-.3,1.46-.33,0-.05,0-.13,0-.25-.65-.39-1.07-1.09-1.1-1.84,0,0,0,0,0,0v-1.45c0-.45.14-.81.42-1.07.5-.47,1.25-.45,1.33-.44h.11c.08,0,.83-.03,1.33.44.28.26.42.62.42,1.07v1.45h0c-.04.76-.46,1.46-1.1,1.85,0,.12,0,.2,0,.25.25.02.84.1,1.46.33,1.1.4,1.77,1.09,1.96,2,0,.05,0,.1-.03.13Z"/>
  <path d="m14.66,13.55c-.62-.23-1.21-.3-1.46-.33,0-.05,0-.13,0-.25.65-.39,1.07-1.09,1.1-1.84h0v-1.45c0-.45-.14-.81-.42-1.07-.5-.47-1.25-.45-1.33-.44h-.11c-.08,0-.83-.03-1.33.44-.28.26-.42.62-.42,1.07v1.45s0,0,0,0c.04.76.46,1.45,1.1,1.84,0,.12,0,.2,0,.25-.25.02-.84.1-1.46.33-1.1.4-1.77,1.09-1.96,2,0,.05,0,.1.03.13.03.04.08.06.12.06h7.93s.09-.02.12-.06c.03-.04.04-.09.03-.13-.18-.9-.86-1.6-1.96-2Z"/>
  <path d="m16.94,4.95h-3.78v-1.51c0-.39-.32-.71-.71-.71s-.71.32-.71.71v1.51h-4.11c-1.06,0-1.93.87-1.93,1.93v12.16c0,1.06.87,1.93,1.93,1.93h9.31c1.06,0,1.93-.87,1.93-1.93V6.88c0-1.06-.87-1.93-1.93-1.93Zm.5,14.09c0,.28-.22.5-.5.5H7.63c-.28,0-.5-.22-.5-.5V6.88c0-.28.22-.5.5-.5h4.11v.19c0,.39.32.71.71.71s.71-.32.71-.71v-.19h3.78c.28,0,.5.22.5.5v12.16Z"/>
  <path d="m9.1,16.78h6.68c.45,0,.81.36.81.81v.08c0,.45-.36.81-.81.81h-6.68c-.45,0-.81-.36-.81-.81v-.09c0-.45.36-.81.81-.81Z"/>
</svg>