<?xml version="1.0" encoding="UTF-8"?>
<svg id="Layer_1" data-name="Layer 1" xmlns="http://www.w3.org/2000/svg" viewBox="0 0 25 25" >
  <path d="m16.74,12.58c-.08-.54-.18-1.08-.27-1.62-.09-.52-.16-1.05-.3-1.56-.28-1.04-.92-1.63-2.14-1.59-1.13.04-2.27.02-3.4,0-.8-.01-1.35.37-1.69,1.07-.35.74-.39,1.55-.54,2.34-.08.44-.15.89-.22,1.34-.06.34-.17.69-.15,1.03.02.41.28.68.64.73.54.07.84-.23.91-.63.08-.43.13-.86.2-1.29.09-.57.19-1.13.29-1.7.04-.22.1-.44.14-.66.02,0,.03,0,.05.01.02.31.04.61.06.92.02.31.06.63.03.94-.05.51-.15,1.02-.24,1.53-.11.69-.22,1.38-.35,2.06-.18.95-.4,1.89-.57,2.83-.06.33,0,.67.48.73.13.02.27.04.4.05.58.06,1.16.17,1.74.18.69.01,1.39-.04,2.08-.09.48-.03.95-.09,1.43-.15.23-.03.45-.27.41-.5-.11-.7-.24-1.39-.36-2.08-.12-.66-.25-1.32-.37-1.99-.09-.51-.19-1.03-.27-1.54-.06-.39-.15-.79-.16-1.18-.02-.43.02-.87.04-1.31,0-.12.05-.24.08-.35.09.27.13.54.17.81.09.55.19,1.11.29,1.66.07.41.14.83.24,1.23.11.4.38.55.85.52.29-.02.6-.28.61-.61.01-.38-.05-.76-.11-1.14Z"/>
  <path d="m12.43,6.79c.96.02,1.92-.84,1.84-1.86.01-1.08-.86-1.8-1.87-1.8-.94,0-1.84.81-1.75,1.98.06.88.82,1.65,1.78,1.67Z"/>
  <path d="m10.57,20.97c.02.17.05.34.08.52.04.2.17.35.36.4.18.05.39.04.5-.14.11-.18.18-.38.24-.58.11-.38.19-.76.29-1.14-.54-.04-1.05-.08-1.59-.12.04.37.09.72.13,1.06Z"/>
  <path d="m13.27,21.52c.07.27.28.4.53.38.23-.02.42-.2.47-.46.03-.18.06-.36.09-.54.04-.31.07-.62.1-.96-.53.04-1.04.08-1.57.12.13.5.25.98.38,1.46Z"/>
</svg>