<?xml version="1.0" encoding="UTF-8"?>
<svg id="Layer_1" data-name="Layer 1" xmlns="http://www.w3.org/2000/svg" viewBox="0 0 25 25">
  <defs>
    <style>
      .cls-1 {
        fill: #228cce;
      }
    </style>
  </defs>
  <path class="cls-1" d="m18.49,16.76h-3.02c-.22-.7-.88-1.21-1.65-1.21s-1.43.51-1.65,1.21h-6.3c-.44,0-.79.35-.79.79s.35.79.79.79h6.59c.32.41.81.67,1.37.67s1.05-.26,1.37-.67h3.3c.44,0,.79-.35.79-.79s-.35-.79-.79-.79Z"/>
  <path class="cls-1" d="m18.49,11.93h-7.54c-.27-.6-.88-1.02-1.58-1.02s-1.31.42-1.58,1.02h-1.93c-.44,0-.79.35-.79.79s.35.79.79.79h2.01c.3.52.86.86,1.5.86s1.2-.35,1.5-.86h7.62c.44,0,.79-.35.79-.79s-.35-.79-.79-.79Z"/>
  <path class="cls-1" d="m5.86,8.52h8.3c.29.54.87.91,1.53.91s1.23-.37,1.53-.91h1.28c.44,0,.79-.35.79-.79s-.35-.79-.79-.79h-1.25c-.28-.58-.87-.97-1.56-.97s-1.27.4-1.56.97H5.86c-.44,0-.79.35-.79.79s.35.79.79.79Z"/>
</svg>