<?xml version="1.0" encoding="UTF-8"?>
<svg id="Layer_1" data-name="Layer 1" xmlns="http://www.w3.org/2000/svg" viewBox="0 0 25 25">
  <defs>
    <style>
      .cls-1 {
        fill: #228cce;
      }
    </style>
  </defs>
  <path class="cls-1" d="m7.84,3.92c-.37,0-.67.3-.67.67v15.49c0,.37.3.67.67.67s.67-.3.67-.67V4.59c0-.37-.3-.67-.67-.67Z"/>
  <path class="cls-1" d="m16.03,8.48l2.91-2.67c.12-.11.16-.28.1-.43-.06-.15-.2-.25-.36-.25h-8.97c-.22,0-.39.18-.39.39v5.91c0,.22.18.39.39.39h8.97c.16,0,.31-.1.36-.25.06-.15.02-.32-.1-.43l-2.91-2.67Z"/>
</svg>