<?xml version="1.0" encoding="UTF-8"?>
<svg id="Layer_1" data-name="Layer 1" xmlns="http://www.w3.org/2000/svg" viewBox="0 0 25 25" style="
    fill: white;
">
  <defs>
    <style>
      .cls-1 {
        fill: none;
      }
    </style>
  </defs>
  <path class="cls-1" d="m12.22,12.6c-1.09-.35-1.85-.86-1.85-1.86,0-.91.63-1.62,1.76-1.85v-.68c-.08.01-.16.03-.25.04-2.09.45-3.4,2.48-2.95,4.57.35,1.61,1.63,2.75,3.15,2.99v-.66c-.7-.04-1.38-.23-1.76-.43l.32-1.37c.45.22,1.06.44,1.75.44.51,0,.87-.14.87-.46s-.3-.5-1.04-.73Z"/>
  <path class="cls-1" d="m13.26,8.2v.61c.69.02,1.15.16,1.51.32l-.32,1.32c-.27-.11-.76-.34-1.5-.34-.59,0-.77.21-.77.43,0,.25.34.44,1.17.73,1.25.42,1.71.99,1.71,1.89s-.66,1.68-1.85,1.9v.76c.1-.01.19-.03.29-.05,2.09-.45,3.4-2.48,2.95-4.57-.35-1.62-1.65-2.78-3.2-3Z"/>
  <path d="m18.52,14.69l-.66.14-.27-.18c.61-1.13.83-2.47.54-3.82-.31-1.44-1.18-2.7-2.42-3.5-1.24-.8-2.74-1.08-4.18-.77s-2.7,1.18-3.5,2.42c-.8,1.24-1.07,2.74-.76,4.18.31,1.44,1.18,2.7,2.42,3.5,1.24.8,2.74,1.07,4.18.77,1.35-.29,2.48-1.05,3.25-2.06l.27.18.14.66,5.08,3.28.98-1.52-5.08-3.28Zm-6.13-.91c-.69,0-1.3-.22-1.75-.44l-.32,1.37c.38.2,1.07.39,1.76.43v.66c-1.52-.24-2.8-1.39-3.15-2.99-.45-2.09.86-4.12,2.95-4.57.08-.02.16-.03.25-.04v.68c-1.13.23-1.76.95-1.76,1.85,0,1.01.77,1.51,1.85,1.86.74.23,1.04.42,1.04.73s-.36.46-.87.46Zm1.11,1.98c-.1.02-.19.04-.29.05v-.76c1.19-.22,1.85-.98,1.85-1.9s-.46-1.47-1.71-1.89c-.84-.29-1.17-.48-1.17-.73,0-.22.18-.43.77-.43.75,0,1.23.23,1.5.34l.32-1.32c-.36-.16-.83-.3-1.51-.32v-.61c1.54.22,2.85,1.38,3.2,3,.45,2.09-.86,4.12-2.95,4.57Z"/>
</svg>