<?xml version="1.0" encoding="UTF-8"?>
<svg id="Layer_1" data-name="Layer 1" xmlns="http://www.w3.org/2000/svg" viewBox="0 0 25 25">
  <defs>
    <style>
      .cls-1 {
        fill: #1db954;
      }
    </style>
  </defs>
  <path class="cls-1" d="m21.78,10.64c-.44-.16-7.84-2.38-7.84-2.38,0,0-.85-.24-1.9.08s-7.46,2.2-7.46,2.2c0,0-.68.31-.11.5s7.76,2.38,7.76,2.38c0,0,1.04.25,1.9,0,.87-.25,7.65-2.36,7.65-2.36,0,0,.44-.27,0-.42Z"/>
  <path class="cls-1" d="m13.9,14.78c-.14.05-.5.09-.79.09s-.76-.09-.76-.09l-4.61-1.43v4.05s1.35,1.35,5.48,1.35,5.34-1.37,5.34-1.37l-.08-4.09s-4.44,1.45-4.58,1.5Z"/>
  <path class="cls-1" d="m5.82,15.99l-.39-.68v-2.95l-.57-.19v3.05l-.44.84c-.06.12-.1.25-.1.39,0,.45.37.82.82.82s.82-.37.82-.82c0-.13-.03-.25-.08-.36-.02-.03-.04-.07-.06-.1Z"/>
</svg>