<?xml version="1.0" encoding="UTF-8"?>
<svg id="Layer_1" data-name="Layer 1" xmlns="http://www.w3.org/2000/svg" viewBox="0 0 25 25">
  <defs>
    <style>
      .cls-1 {
        fill: none;
      }

      .cls-2 {
        fill: #1db954;
      }
    </style>
  </defs>
  <path class="cls-1" d="m16.95,8.93c-1.25-1.25-2.91-1.94-4.67-1.94s-3.42.69-4.67,1.94-1.94,2.91-1.94,4.67.69,3.42,1.94,4.67,2.91,1.94,4.67,1.94,3.42-.69,4.67-1.94c1.25-1.25,1.94-2.91,1.94-4.67s-.69-3.42-1.94-4.67Zm-4.48,4.55v-5.13c2.83,0,5.13,2.3,5.13,5.13h-5.13Z"/>
  <path class="cls-2" d="m18.15,7.73c-.7-.7-1.5-1.26-2.38-1.66-.82-.38-1.7-.62-2.6-.72v-.81h.5c.49,0,.89-.4.89-.89s-.4-.89-.89-.89h-2.77c-.49,0-.89.4-.89.89s.4.89.89.89h.5v.81c-.91.1-1.78.34-2.6.72-.88.41-1.68.97-2.38,1.66-1.57,1.57-2.43,3.65-2.43,5.87s.86,4.3,2.43,5.87,3.65,2.43,5.87,2.43,4.3-.86,5.87-2.43,2.43-3.65,2.43-5.87-.86-4.3-2.43-5.87Zm-1.2,10.54c-1.25,1.25-2.91,1.94-4.67,1.94s-3.42-.69-4.67-1.94-1.94-2.91-1.94-4.67.69-3.42,1.94-4.67,2.91-1.94,4.67-1.94,3.42.69,4.67,1.94c1.25,1.25,1.94,2.91,1.94,4.67s-.69,3.42-1.94,4.67Z"/>
  <path class="cls-2" d="m12.48,8.35v5.13h5.13c0-2.83-2.3-5.13-5.13-5.13Z"/>
</svg>