<?xml version="1.0" encoding="UTF-8"?>
<svg id="Layer_1" data-name="Layer 1" xmlns="http://www.w3.org/2000/svg" viewBox="0 0 25 25">
  <defs>
    <style>
      .cls-1 {
        fill: none;
      }

      .cls-2 {
        fill: #1db954;
      }
    </style>
  </defs>
  <path class="cls-1" d="m17.73,11.35c-1.97,0-3.57-1.6-3.57-3.57,0-1.22.61-2.3,1.55-2.95-1.05-.46-2.19-.71-3.36-.71-.87,0-1.71.13-2.51.39.02.6-.02,1.71-.02,1.71l-2.82,2.67h-2.16c-.52,1.09-.79,2.29-.79,3.54,0,2.22.86,4.3,2.43,5.87.38.38.8.72,1.23,1.02-.04-.76-.14-2.46-.11-3.05.03-.77-.23-.7-.23-.7,0,0-1.48-.67-1.78-.87s-.27-.54-.27-.54c0,0-.07-2.62,0-3.32.07-.7.4-.67.4-.67,0,0,2.38-.03,2.68,0,.3.03.17.1.94.97s3.22,1.37,3.22,1.37c0,0,.39-.01.7.03.09.01.05.41.07,1.29.01.56-.07,1.33-.07,1.33l-4.32,4.83c1.06.48,2.21.73,3.4.73,2.14,0,4.16-.81,5.71-2.27.38-1.34,1.11-4.56.4-7.17-.24.05-.48.07-.73.07Z"/>
  <path class="cls-2" d="m18.92,5.85c-1.75-1.75-4.09-2.72-6.57-2.72s-4.81.97-6.57,2.72-2.72,4.09-2.72,6.57.97,4.81,2.72,6.57,4.09,2.72,6.57,2.72,4.81-.97,6.57-2.72c1.75-1.75,2.72-4.09,2.72-6.57s-.97-4.81-2.72-6.57Zm-.86,12.59c-1.55,1.47-3.56,2.27-5.71,2.27-1.19,0-2.35-.25-3.4-.73l4.32-4.83s.08-.77.07-1.33c-.02-.88.02-1.28-.07-1.29-.31-.05-.7-.03-.7-.03,0,0-2.45-.5-3.22-1.37s-.64-.94-.94-.97c-.3-.03-2.68,0-2.68,0,0,0-.33-.03-.4.67-.07.7,0,3.32,0,3.32,0,0-.03.33.27.54s1.78.87,1.78.87c0,0,.27-.07.23.7-.03.59.07,2.29.11,3.05-.44-.3-.85-.64-1.23-1.02-1.57-1.57-2.43-3.65-2.43-5.87,0-1.24.27-2.45.79-3.54h2.16l2.82-2.67s.03-1.11.02-1.71c.8-.25,1.65-.39,2.51-.39,1.18,0,2.32.24,3.36.71-.94.64-1.55,1.72-1.55,2.95,0,1.97,1.6,3.57,3.57,3.57.25,0,.49-.03.73-.07.71,2.61-.03,5.83-.4,7.17Z"/>
</svg>