<?xml version="1.0" encoding="UTF-8"?>
<svg id="Layer_1" data-name="Layer 1" xmlns="http://www.w3.org/2000/svg" viewBox="0 0 10.86 14.49" style="
    fill: white;
">
  <defs>
    <style>
      .cls-1 {
        fill: none;
      }
    </style>
  </defs>
  <path class="cls-1" d="m9.39,1.28H1.47c-.1,0-.19.08-.19.19v11.43c1-1.58,3.57-1.69,3.57-1.69,0,0,.03,0,.03-.56-.75-.41-1.23-1.17-1.27-2.02v-1.66c0-1.66,1.81-1.56,1.81-1.56h.14s1.82-.1,1.82,1.56v1.66c-.04.85-.52,1.61-1.27,2.02,0,.56.03.56.03.56,0,0,2.34.11,3.42,1.49V1.47c0-.1-.08-.19-.19-.19Z"/>
  <path d="m9.39,0H1.47C.66,0,0,.66,0,1.47v11.55c0,.81.66,1.47,1.47,1.47h7.92c.81,0,1.47-.66,1.47-1.47V1.47c0-.81-.66-1.47-1.47-1.47Zm.19,12.7c-1.08-1.38-3.42-1.49-3.42-1.49,0,0-.03,0-.03-.56.75-.41,1.23-1.17,1.27-2.02v-1.66c0-1.66-1.82-1.56-1.82-1.56h-.14s-1.81-.1-1.81,1.56v1.66c.04.85.52,1.61,1.27,2.02,0,.56-.03.56-.03.56,0,0-2.57.12-3.57,1.69V1.47c0-.1.08-.19.19-.19h7.92c.1,0,.19.08.19.19v11.23Z"/>
</svg>