<?xml version="1.0" encoding="UTF-8"?>
<svg id="Layer_1" data-name="Layer 1" xmlns="http://www.w3.org/2000/svg" viewBox="0 0 25 25">
  <defs>
    <style>
      .cls-1 {
        fill: none;
      }

      .cls-2 {
        fill: #f8b318;
      }

      .cls-3 {
        fill: #e41e26;
      }

      .cls-4 {
        fill: #1db954;
      }

      .cls-5 {
        fill: #228cce;
      }
    </style>
  </defs>
  <path class="cls-1" d="m5.53,17.64l6.53,1.76V6.26l-6.53,1.91v9.47Zm.53-2.71v-.03c.7-.86,2.15-.82,2.15-.82,0,0,.02,0,.02-.44-.47-.33-.77-.91-.8-1.54v-1.24c0-1.24,1.14-1.44,1.14-1.44l.09-.02s1.14-.37,1.14,1.08v1.45c-.02.74-.33,1.4-.8,1.73,0,.47.02.47.02.47,0,0,1.46.2,2.14,1.54v.04c.06.11.09.24.09.37,0,.34-.18.58-.41.53l-.11-.02-4.19-.88-.16-.03c-.23-.05-.41-.28-.41-.52,0-.09.03-.18.08-.24Z"/>
  <path class="cls-3" d="m6.4,15.7l.16.03,4.19.88.11.02c.23.05.41-.19.41-.53,0-.13-.03-.26-.08-.37v-.04c-.7-1.35-2.15-1.54-2.15-1.54,0,0-.02,0-.02-.47.47-.33.77-.99.8-1.73v-1.45c0-1.45-1.14-1.08-1.14-1.08l-.09.02s-1.14.2-1.14,1.44v1.24c.03.63.33,1.21.8,1.54,0,.45-.02.44-.02.44,0,0-1.45-.03-2.14.82v.03c-.06.06-.09.15-.09.24,0,.24.18.47.41.52Z"/>
  <path class="cls-2" d="m12.67,4.3l-8.23,2.41c-.36.11-.61.44-.61.82v10.76c0,.38.26.72.63.82l8.23,2.22c.07.02.15.03.22.03.19,0,.37-.06.52-.18.21-.16.33-.41.33-.68V5.12c0-.27-.13-.52-.34-.68s-.49-.21-.75-.14Zm-.61,15.1l-6.53-1.76v-9.47l6.53-1.91v13.15Z"/>
  <path class="cls-5" d="m15.99,5.87l-1.59.17v1.69l.83-.08v10.47l-.83-.06.02,1.7,1.6.13s.05,0,.07,0c.21,0,.42-.08.58-.23.17-.16.27-.39.27-.63V6.72c0-.24-.1-.47-.28-.63-.18-.16-.42-.24-.66-.21Z"/>
  <path class="cls-4" d="m19.74,8.49c-.15-.14-.34-.21-.55-.19l-1.6.11v1.45l.92-.06v6.16l-.92-.04v1.45l1.61.08s.02,0,.04,0c.19,0,.37-.07.5-.2.14-.14.23-.33.23-.53v-7.7c0-.2-.08-.39-.23-.53Z"/>
</svg>