<?xml version="1.0" encoding="UTF-8"?>
<svg id="Layer_1" data-name="Layer 1" xmlns="http://www.w3.org/2000/svg" viewBox="0 0 25 25" style="
    fill: white;
">
  <defs>
    <style>
      .cls-1 {
        fill: none;
      }
    </style>
  </defs>
  <path class="cls-1" d="m11.2,8.16s-.02,0-.03,0c-1.88.59-2.93,2.59-2.34,4.47.39,1.26,1.42,2.14,2.61,2.42,0-.09,0-.2,0-.34-.86-.47-1.42-1.36-1.47-2.34v-1.92c0-1.92,2.1-1.8,2.1-1.8h.16s2.1-.12,2.1,1.8v1.92c-.05.98-.61,1.87-1.47,2.34,0,.16,0,.28,0,.37.14-.03.28-.06.42-.1,1.88-.59,2.93-2.59,2.34-4.47-.58-1.88-2.57-2.93-4.44-2.35Z"/>
  <path d="m16.61,14.32l.27.14.19.6,4.97,2.6.78-1.49-4.97-2.6-.6.19-.27-.14c.49-1.13.55-2.4.18-3.58-.85-2.72-3.75-4.23-6.46-3.38-1.17.37-2.17,1.14-2.83,2.18-1.48,2.35-.82,5.43,1.45,6.99-1.05.39-2.15,1.12-2.43,2.48h10.54c-.27-1.32-1.31-2.04-2.33-2.44.59-.39,1.1-.91,1.5-1.55Zm-3.31.67c-.14.04-.28.08-.42.1,0-.09,0-.21,0-.37.86-.47,1.42-1.36,1.47-2.34v-1.92c0-1.92-2.1-1.8-2.1-1.8h-.16s-2.1-.12-2.1,1.8v1.92c.05.98.6,1.87,1.47,2.34,0,.14,0,.25,0,.34-1.2-.27-2.22-1.16-2.61-2.42-.59-1.88.46-3.89,2.34-4.47,0,0,.02,0,.03,0,1.88-.58,3.87.48,4.44,2.35.59,1.88-.46,3.89-2.34,4.47Z"/>
</svg>