<?xml version="1.0" encoding="UTF-8"?>
<svg id="Layer_1" data-name="Layer 1" xmlns="http://www.w3.org/2000/svg" viewBox="0 0 25 25">
  <defs>
    <style>
      .cls-1 {
        fill: none;
      }

      .cls-2 {
        fill: #f8b318;
      }
    </style>
  </defs>
  <path class="cls-1" d="m12.44,17.21h-2.08c-.12,0-.23.1-.23.23s.1.23.23.23h2.08c.12,0,.23-.1.23-.23s-.1-.23-.23-.23Z"/>
  <path class="cls-2" d="m4.43,5.84h14.31c.38,0,.68.3.68.68v9.2c0,.38-.3.68-.68.68H4.43c-.38,0-.68-.3-.68-.68V6.52c0-.38.3-.68.68-.68Z"/>
  <path class="cls-2" d="m20.61,16.92H2.7c-.28,0-.51.23-.51.51s.23.51.51.51h17.91c.28,0,.51-.23.51-.51s-.23-.51-.51-.51Zm-8.17.73h-2.08c-.12,0-.23-.1-.23-.23s.1-.23.23-.23h2.08c.12,0,.23.1.23.23s-.1.23-.23.23Z"/>
</svg>