<?xml version="1.0" encoding="UTF-8"?>
<svg id="Layer_1" data-name="Layer 1" xmlns="http://www.w3.org/2000/svg" viewBox="0 0 11.56 11.79" style="
        fill: #f8b318;
">
  <defs>
    <style>
      .cls-1 {
        fill: none;
      }
    </style>
  </defs>
  <g>
    <polygon class="cls-1" points=".94 10.85 5.3 10.85 6.26 10.85 10.62 10.85 10.62 6.26 10.62 4.36 .94 4.36 .94 10.85"/>
    <path d="m10.66,1.78h-.81V.48c0-.26-.21-.46-.46-.46s-.46.21-.46.46v1.3H2.65V.48C2.65.22,2.44.01,2.18.01s-.46.21-.46.46v1.3h-.81C.41,1.78.02,2.18.02,2.67v8.22c0,.49.4.89.89.89h9.75c.49,0,.89-.4.89-.89V2.67c0-.49-.4-.89-.89-.89Zm-.04,4.48v4.59H.94v-6.49h9.67v1.91Z"/>
  </g>
  <rect x="2.16" y="5.39" width="1.75" height="1.75" rx=".19" ry=".19"/>
  <rect x="4.89" y="5.39" width="1.75" height="1.75" rx=".19" ry=".19"/>
  <rect x="7.57" y="5.39" width="1.75" height="1.75" rx=".19" ry=".19"/>
  <rect x="7.57" y="8.09" width="1.75" height="1.75" rx=".19" ry=".19"/>
  <rect x="4.89" y="8.09" width="1.75" height="1.75" rx=".19" ry=".19"/>
  <rect x="2.13" y="8.09" width="1.75" height="1.75" rx=".19" ry=".19"/>
</svg>