<?xml version="1.0" encoding="UTF-8"?>
<svg id="Layer_1" data-name="Layer 1" xmlns="http://www.w3.org/2000/svg" viewBox="0 0 18.97 12.14">
  <defs>
    <style>
      .cls-1 {
        fill: none;
      }
    </style>
  </defs>
  <path class="cls-1" d="m10.27,11.39h-2.08c-.12,0-.23.1-.23.23s.1.23.23.23h2.08c.12,0,.23-.1.23-.23s-.1-.23-.23-.23Z"/>
  <path d="m2.27.02h14.31c.38,0,.68.3.68.68v9.2c0,.38-.3.68-.68.68H2.27c-.38,0-.68-.3-.68-.68V.7C1.59.33,1.9.02,2.27.02Z"/>
  <path d="m18.45,11.11H.53c-.28,0-.51.23-.51.51s.23.51.51.51h17.91c.28,0,.51-.23.51-.51s-.23-.51-.51-.51Zm-8.17.73h-2.08c-.12,0-.23-.1-.23-.23s.1-.23.23-.23h2.08c.12,0,.23.1.23.23s-.1.23-.23.23Z"/>
</svg>