<?xml version="1.0" encoding="UTF-8"?>
<svg id="Layer_1" data-name="Layer 1" xmlns="http://www.w3.org/2000/svg" viewBox="0 0 25 19.26">
  <defs>
    <style>
      .cls-1 {
        fill: none;
      }
    </style>
  </defs>
  <path class="cls-1" d="m12.45,3.97c-1.28,0-2.32,1.04-2.32,2.32s1.04,2.32,2.32,2.32,2.32-1.04,2.32-2.32-1.04-2.32-2.32-2.32Z"/>
  <path d="m18.72,5.01c-.24-1.32-.92-2.49-1.96-3.39C15.72.72,14.41.17,12.97.05c-2.36-.21-4.33.7-5.69,2.64-1.44,2.05-1.62,4.25-.54,6.37.92,1.8,1.91,3.59,2.86,5.33.31.57.63,1.15.95,1.73.35.64.71,1.28,1.1,1.95.18.31.36.63.55.97.08.14.22.22.38.22h0c.16,0,.31-.09.38-.23l.39-.74c.26-.49.5-.95.74-1.41l.94-1.77c1.05-1.99,2.11-3.98,3.16-5.98.63-1.2.81-2.58.53-4.12Zm-6.27,3.6c-1.28,0-2.32-1.04-2.32-2.32s1.04-2.32,2.32-2.32,2.32,1.04,2.32,2.32-1.04,2.32-2.32,2.32Z"/>
</svg>