<?xml version="1.0" encoding="UTF-8"?>
<svg id="Layer_1" data-name="Layer 1" xmlns="http://www.w3.org/2000/svg" viewBox="0 0 19.93 13.72">
  <path d="m19.79,9.92v-.03c-1.01-1.24-3.12-1.34-3.12-1.34,0,0-.03,0-.03-.52.68-.37,1.12-1.07,1.16-1.84v-1.51c0-1.51-1.66-1.42-1.66-1.42h-.12s-1.65-.09-1.65,1.42v1.51c.04.77.48,1.47,1.15,1.84,0,.52-.03.52-.03.52,0,0-1.93.09-2.96,1.18-.87-.19-1.51-.21-1.51-.21,0,0-.06,0-.06-.93,1.22-.67,2.01-1.92,2.08-3.31v-2.72C13.04-.16,10.06,0,10.06,0h-.23s-2.97-.17-2.97,2.55v2.72c.07,1.39.85,2.64,2.08,3.31,0,.93-.06.93-.06.93,0,0-.63.03-1.51.21-1.04-1.09-2.96-1.18-2.96-1.18,0,0-.03,0-.03-.52.68-.37,1.12-1.07,1.16-1.84v-1.51c0-1.51-1.66-1.42-1.66-1.42h-.12s-1.65-.09-1.65,1.42v1.51c.04.77.48,1.47,1.15,1.84,0,.52-.03.52-.03.52,0,0-2.1.09-3.1,1.33l-.02.04c-.07.1-.11.22-.11.35,0,.33.27.59.59.59h3.9c-.44.28-.84.63-1.17,1.04l-.04.08c-.13.18-.2.39-.2.62,0,.59.48,1.07,1.07,1.07h11.61c.59,0,1.07-.48,1.07-1.07,0-.23-.07-.45-.2-.62l-.02-.06c-.34-.42-.75-.77-1.19-1.06h3.9c.33,0,.59-.27.59-.59,0-.13-.04-.25-.11-.35Z"/>
</svg>