<?xml version="1.0" encoding="UTF-8"?>
<svg id="Layer_1" data-name="Layer 1" xmlns="http://www.w3.org/2000/svg" viewBox="0 0 37 37">
  <defs>
    <style>
      .cls-1 {
        fill: #228cce;
      }

      .cls-1, .cls-2 {
        stroke-width: 0px;
      }

      .cls-2 {
        fill: #fff;
      }
    </style>
  </defs>
  <circle class="cls-1" cx="18.5" cy="18.5" r="18.5"/>
  <g>
    <path class="cls-2" d="m19.92,20.32c-.49.31-1.03.46-1.61.43-.5-.03-.95-.23-1.36-.5-2.23-1.43-4.45-2.86-6.68-4.29-.06-.04-.12-.08-.2-.13v.22c0,2.4,0,4.8,0,7.2,0,.42.24.76.59,1.02.32.24.68.32,1.08.32,4.54,0,9.08,0,13.61,0,.71,0,1.41-.52,1.53-1.14,0-.02.04-.04.06-.06v-7.55c-.29.18-.59.36-.87.54-2.05,1.32-4.1,2.63-6.15,3.95Z"/>
    <path class="cls-2" d="m26.85,13.44c-.23-.63-.8-1.02-1.57-1.02-4.25,0-8.5,0-12.76,0-.37,0-.73.01-1.1.03-.34.01-.63.15-.87.37-.35.32-.52.71-.5,1.19.03.45.21.82.59,1.06,2.34,1.51,4.69,3.02,7.04,4.52.3.19.63.26,1,.2.37-.05.65-.24.95-.42,2.1-1.34,4.19-2.69,6.29-4.03.34-.22.7-.43.87-.83.04-.1.09-.21.14-.31v-.51c-.03-.08-.06-.16-.09-.24Z"/>
  </g>
</svg>