<?xml version="1.0" encoding="utf-8"?>
<!-- Generator: Adobe Illustrator 27.8.1, SVG Export Plug-In . SVG Version: 6.00 Build 0)  -->
<svg version="1.1" id="Layer_1" xmlns="http://www.w3.org/2000/svg" xmlns:xlink="http://www.w3.org/1999/xlink" x="0px" y="0px"
	 viewBox="0 0 45.6 13.22" style="enable-background:new 0 0 45.6 13.22;" xml:space="preserve">
<style type="text/css">
	.st0{fill:#FFFFFF;}
	.st1{fill:#1DB954;}
	.st2{fill:#228CCE;}
	.st3{fill:#F8B318;}
	.st4{fill:#ED1C24;}
</style>
<g>
	<path class="st4" d="M0.28,4.18c0.32-0.6,0.69-0.67,1.35-0.37C5.17,5.46,8.91,6.44,12.75,7c3.96,0.58,7.95,0.69,11.94,0.38
		c3.53-0.27,7-0.86,10.38-1.95c1.44-0.46,2.82-1.08,4.24-1.61c0.23-0.09,0.49-0.17,0.72-0.14c0.57,0.08,0.88,0.7,0.58,1.21
		c-0.38,0.64-0.79,1.28-1.28,1.84c-1.7,1.92-3.9,3.12-6.25,4.02c-4.98,1.92-10.16,2.45-15.45,2.09c-2.86-0.19-5.67-0.69-8.39-1.6
		c-2.47-0.82-4.78-1.93-6.76-3.66C1.55,6.76,0.83,5.8,0.23,4.74C0.14,4.56,0.2,4.34,0.28,4.18z"/>
	<path class="st4" d="M39.51,0.19c0,0,3.73-0.14,5.21,2.28c1.37,2.24,0.49,3.99-0.77,4.14c-1.26,0.14-0.42-1.35-2.1-3.21
		C40.18,1.54,37.88,0.54,39.51,0.19z"/>
</g>
</svg>
