<?xml version="1.0" encoding="UTF-8"?>
<svg id="Layer_1" data-name="Layer 1" xmlns="http://www.w3.org/2000/svg" viewBox="0 0 79.32 100">
  <defs>
    <style>
      .cls-1 {
        fill: #fff;
      }

      .cls-2 {
        fill: #429ad5;
      }
    </style>
  </defs>
  <path class="cls-2" d="m39.77.5C18.03.5.41,22.66.41,50s17.62,49.5,39.36,49.5,39.36-22.16,39.36-49.5S61.51.5,39.77.5Zm26.57,52.24c.74-.2,1.5.25,1.69.99l1.98,7.53c.19.74-.25,1.5-.99,1.69-.12.03-.24.05-.35.05-.62,0-1.18-.41-1.34-1.04l-1.98-7.53c-.19-.74.25-1.5.99-1.69Zm-5.26,3.78c-.19-.74.25-1.5.99-1.69.74-.19,1.5.25,1.69.99l1.98,7.53c.19.74-.25,1.5-.99,1.69-.12.03-.24.05-.35.05-.62,0-1.18-.41-1.34-1.04l-1.98-7.53Zm-.74,11.56c-.11.03-.22.04-.33.04-.62,0-1.19-.42-1.35-1.06l-2.24-9.14c-.18-.74.27-1.5,1.02-1.68.74-.18,1.5.27,1.68,1.02l2.24,9.13c.18.74-.27,1.5-1.02,1.68ZM27.87,25.66c5.2,0,9.69,3.04,11.9,7.47,2.21-4.43,6.7-7.47,11.9-7.47,7.38,0,13.36,6.11,13.36,13.64s-5.98,13.65-13.36,13.65c-5.2,0-9.69-3.04-11.9-7.47-2.21,4.43-6.7,7.47-11.9,7.47-7.38,0-13.36-6.11-13.36-13.65s5.98-13.64,13.36-13.64Zm27.08,45.23c-.08.01-.15.02-.23.02-.67,0-1.25-.48-1.37-1.16l-1.69-10.21c-.13-.76.39-1.47,1.14-1.6.76-.12,1.47.39,1.6,1.14l1.69,10.21c.13.76-.39,1.47-1.14,1.6Zm-5.54,1.41c-.05,0-.1,0-.15,0-.7,0-1.3-.53-1.38-1.24l-1.15-10.43c-.08-.76.47-1.45,1.23-1.53.76-.09,1.45.47,1.53,1.23l1.15,10.43c.08.76-.47,1.45-1.23,1.53Zm-4.06-.55c.04.77-.55,1.42-1.32,1.45-.02,0-.05,0-.07,0-.73,0-1.35-.58-1.38-1.32l-.57-11.43c-.04-.77.55-1.42,1.32-1.45.77-.04,1.42.55,1.45,1.32l.57,11.43Zm-5.6-11.6l-.21,11.98c-.01.76-.63,1.36-1.39,1.36,0,0-.02,0-.03,0-.77-.01-1.38-.65-1.36-1.41l.21-11.98c.01-.77.64-1.36,1.41-1.36.77.01,1.38.65,1.36,1.41Zm-4.68-.2l-.62,11.67c-.04.74-.65,1.31-1.38,1.31-.02,0-.05,0-.07,0-.77-.04-1.35-.69-1.31-1.46l.62-11.67c.04-.77.7-1.35,1.46-1.31.77.04,1.35.69,1.31,1.46Zm-5.23-.18l-1.13,10.65c-.08.71-.68,1.24-1.38,1.24-.05,0-.1,0-.15,0-.76-.08-1.31-.76-1.23-1.53l1.13-10.65c.08-.76.76-1.31,1.53-1.23.76.08,1.31.76,1.23,1.53Zm-4.18-.19l-1.97,8.99c-.14.65-.72,1.09-1.35,1.09-.1,0-.2-.01-.3-.03-.75-.16-1.22-.9-1.06-1.65l1.97-8.99c.16-.75.9-1.22,1.65-1.06.75.16,1.22.9,1.06,1.65Zm-4.78-1.62l-2.35,8.47c-.17.61-.73,1.02-1.34,1.02-.12,0-.25-.02-.37-.05-.74-.21-1.17-.97-.97-1.71l2.35-8.47c.21-.74.97-1.17,1.71-.97.74.21,1.17.97.97,1.71Zm-9.76,4.1l2.58-7.14c.26-.72,1.06-1.09,1.78-.83.72.26,1.09,1.06.83,1.78l-2.58,7.14c-.2.56-.74.92-1.31.92-.16,0-.32-.03-.47-.08-.72-.26-1.09-1.06-.83-1.78Zm29.5,18.84c-11.51,0-22.62-4.35-31.29-12.25-.57-.52-.61-1.39-.09-1.96.52-.57,1.39-.61,1.96-.09,8.16,7.43,18.61,11.53,29.42,11.53s21.83-4.31,30.07-12.14c.56-.53,1.43-.5,1.96.05.53.56.5,1.43-.05,1.96-8.77,8.32-20.13,12.9-31.98,12.9Z"/>
  <path class="cls-1" d="m27.87,52.95c5.2,0,9.69-3.04,11.9-7.47,2.21,4.43,6.7,7.47,11.9,7.47,7.38,0,13.36-6.11,13.36-13.65s-5.98-13.64-13.36-13.64c-5.2,0-9.69,3.04-11.9,7.47-2.21-4.43-6.7-7.47-11.9-7.47-7.38,0-13.36,6.11-13.36,13.64s5.98,13.65,13.36,13.65Zm23.58-16.95c1.79,0,3.23,1.48,3.23,3.3s-1.45,3.3-3.23,3.3-3.23-1.48-3.23-3.3,1.45-3.3,3.23-3.3Zm-24.47,0c1.79,0,3.23,1.48,3.23,3.3s-1.45,3.3-3.23,3.3-3.23-1.48-3.23-3.3,1.45-3.3,3.23-3.3Z"/>
  <path d="m72.66,66.05c-.53-.56-1.41-.58-1.96-.05-8.25,7.83-18.93,12.14-30.07,12.14s-21.26-4.09-29.42-11.53c-.57-.52-1.44-.47-1.96.09-.52.57-.48,1.44.09,1.96,8.67,7.9,19.78,12.25,31.29,12.25s23.22-4.58,31.98-12.9c.56-.53.58-1.41.05-1.96Z"/>
  <path d="m36.99,60.09l-.21,11.98c-.01.77.6,1.4,1.36,1.41,0,0,.02,0,.03,0,.75,0,1.37-.6,1.39-1.36l.21-11.98c.01-.77-.6-1.4-1.36-1.41-.77,0-1.4.6-1.41,1.36Z"/>
  <path d="m43.34,59c-.77.04-1.35.69-1.32,1.45l.57,11.43c.04.74.65,1.32,1.38,1.32.02,0,.05,0,.07,0,.77-.04,1.35-.69,1.32-1.45l-.57-11.43c-.04-.77-.68-1.36-1.45-1.32Z"/>
  <path d="m47.96,59.11c-.76.08-1.31.77-1.23,1.53l1.15,10.43c.08.71.68,1.24,1.38,1.24.05,0,.1,0,.15,0,.76-.08,1.31-.77,1.23-1.53l-1.15-10.43c-.08-.76-.77-1.32-1.53-1.23Z"/>
  <path d="m52.8,57.94c-.76.13-1.27.84-1.14,1.6l1.69,10.21c.11.68.7,1.16,1.37,1.16.08,0,.15,0,.23-.02.76-.12,1.27-.84,1.14-1.6l-1.69-10.21c-.12-.76-.84-1.26-1.6-1.14Z"/>
  <path d="m57.44,56.26c-.74.18-1.2.93-1.02,1.68l2.24,9.14c.16.63.72,1.06,1.35,1.06.11,0,.22-.01.33-.04.74-.18,1.2-.93,1.02-1.68l-2.24-9.13c-.18-.74-.93-1.2-1.68-1.02Z"/>
  <path d="m64.4,65.09c.12,0,.24-.01.35-.05.74-.19,1.18-.95.99-1.69l-1.98-7.53c-.19-.74-.95-1.18-1.69-.99-.74.19-1.18.95-.99,1.69l1.98,7.53c.16.62.73,1.04,1.34,1.04Z"/>
  <path d="m67.33,61.97c.16.62.73,1.04,1.34,1.04.12,0,.24-.02.35-.05.74-.19,1.18-.95.99-1.69l-1.98-7.53c-.19-.74-.95-1.18-1.69-.99-.74.19-1.18.95-.99,1.69l1.98,7.53Z"/>
  <path d="m32.31,59.79l-.62,11.67c-.04.77.55,1.42,1.31,1.46.02,0,.05,0,.07,0,.73,0,1.35-.57,1.38-1.31l.62-11.67c.04-.77-.55-1.42-1.31-1.46-.76-.04-1.42.55-1.46,1.31Z"/>
  <path d="m27.09,59.47l-1.13,10.65c-.08.76.47,1.45,1.23,1.53.05,0,.1,0,.15,0,.7,0,1.3-.53,1.38-1.24l1.13-10.65c.08-.76-.47-1.45-1.23-1.53-.76-.08-1.45.47-1.53,1.23Z"/>
  <path d="m22.96,58.98l-1.97,8.99c-.16.75.31,1.49,1.06,1.65.1.02.2.03.3.03.64,0,1.21-.44,1.35-1.09l1.97-8.99c.16-.75-.31-1.49-1.06-1.65-.75-.16-1.49.31-1.65,1.06Z"/>
  <path d="m18.21,57.22l-2.35,8.47c-.2.74.23,1.5.97,1.71.12.03.25.05.37.05.61,0,1.17-.4,1.34-1.02l2.35-8.47c.2-.74-.23-1.5-.97-1.71-.74-.2-1.5.23-1.71.97Z"/>
  <path d="m11.96,63.84c.16.06.31.08.47.08.57,0,1.1-.35,1.31-.92l2.58-7.14c.26-.72-.11-1.52-.83-1.78-.72-.26-1.52.11-1.78.83l-2.58,7.14c-.26.72.11,1.52.83,1.78Z"/>
  <path d="m26.98,42.61c1.79,0,3.23-1.48,3.23-3.3s-1.45-3.3-3.23-3.3-3.23,1.48-3.23,3.3,1.45,3.3,3.23,3.3Z"/>
  <path d="m51.45,42.61c1.79,0,3.23-1.48,3.23-3.3s-1.45-3.3-3.23-3.3-3.23,1.48-3.23,3.3,1.45,3.3,3.23,3.3Z"/>
</svg>