<?xml version="1.0" encoding="UTF-8"?>
<svg id="Layer_1" data-name="Layer 1" xmlns="http://www.w3.org/2000/svg" viewBox="0 0 184.7 100">
  <defs>
    <style>
      .cls-1 {
        fill: #fff;
      }

      .cls-2 {
        fill: #429ad5;
      }
    </style>
  </defs>
  <path class="cls-2" d="m92.38.5C41.92.5.87,41.55.87,92.01c0,4.14,3.35,7.49,7.49,7.49h168.04c4.14,0,7.49-3.35,7.49-7.49C183.89,41.55,142.84.5,92.38.5Zm-17.11,17.66c6.98,0,13.02,4,15.98,9.82,2.97-5.82,9-9.82,15.98-9.82,9.91,0,17.94,8.03,17.94,17.94s-8.03,17.94-17.94,17.94c-6.98,0-13.02-4-15.98-9.82-2.97,5.82-9,9.82-15.98,9.82-9.91,0-17.94-8.03-17.94-17.94s8.03-17.94,17.94-17.94Zm16.4,71.19c-29.29,0-53.12-19.82-53.12-44.18,0-.85.69-1.54,1.54-1.54s1.54.69,1.54,1.54c0,22.66,22.45,41.1,50.04,41.1s50.04-18.44,50.04-41.1c0-.85.69-1.54,1.54-1.54s1.54.69,1.54,1.54c0,24.36-23.83,44.18-53.12,44.18Z"/>
  <path class="cls-1" d="m75.27,54.05c6.98,0,13.02-4,15.98-9.82,2.97,5.82,9,9.82,15.98,9.82,9.91,0,17.94-8.03,17.94-17.94s-8.03-17.94-17.94-17.94c-6.98,0-13.02,4-15.98,9.82-2.97-5.82-9-9.82-15.98-9.82-9.91,0-17.94,8.03-17.94,17.94s8.03,17.94,17.94,17.94Zm29.37-26.78c2.4,0,4.34,1.94,4.34,4.34s-1.94,4.34-4.34,4.34-4.34-1.94-4.34-4.34,1.94-4.34,4.34-4.34Zm-33.72,0c2.4,0,4.34,1.94,4.34,4.34s-1.94,4.34-4.34,4.34-4.34-1.94-4.34-4.34,1.94-4.34,4.34-4.34Z"/>
  <path d="m70.93,35.95c2.4,0,4.34-1.94,4.34-4.34s-1.94-4.34-4.34-4.34-4.34,1.94-4.34,4.34,1.94,4.34,4.34,4.34Z"/>
  <path d="m104.65,35.95c2.4,0,4.34-1.94,4.34-4.34s-1.94-4.34-4.34-4.34-4.34,1.94-4.34,4.34,1.94,4.34,4.34,4.34Z"/>
  <path d="m143.25,43.64c-.85,0-1.54.69-1.54,1.54,0,22.66-22.45,41.1-50.04,41.1s-50.04-18.44-50.04-41.1c0-.85-.69-1.54-1.54-1.54s-1.54.69-1.54,1.54c0,24.36,23.83,44.18,53.12,44.18s53.12-19.82,53.12-44.18c0-.85-.69-1.54-1.54-1.54Z"/>
</svg>