<?xml version="1.0" encoding="UTF-8"?>
<svg id="Layer_1" data-name="Layer 1" xmlns="http://www.w3.org/2000/svg" viewBox="0 0 184 100">
  <defs>
    <style>
      .cls-1 {
        fill: #fff;
      }

      .cls-2 {
        fill: #429ad5;
      }
    </style>
  </defs>
  <path class="cls-2" d="m176.12.28H8.08C3.94.28.59,3.64.59,7.79c0,50.57,41.05,91.71,91.51,91.71S183.61,58.36,183.61,7.79c0-4.15-3.35-7.51-7.49-7.51ZM42.44,35.28c0-13.31,10.79-24.1,24.1-24.1,9.21,0,17.22,5.17,21.27,12.77,4.06-7.6,12.06-12.77,21.27-12.77,13.31,0,24.1,10.79,24.1,24.1s-10.79,24.1-24.1,24.1c-9.21,0-17.22-5.17-21.27-12.77-4.05,7.6-12.06,12.77-21.27,12.77-13.31,0-24.1-10.79-24.1-24.1Zm92.15,36.02l-15.39,11.78c-.4.31-.9.48-1.41.48h-34.73c-1.28,0-2.31-1.04-2.31-2.31s1.04-2.31,2.31-2.31h33.95l14.76-11.31c1.01-.78,2.47-.58,3.24.43.78,1.01.58,2.47-.43,3.24Z"/>
  <path class="cls-1" d="m87.82,46.61c4.06,7.6,12.06,12.77,21.27,12.77,13.31,0,24.1-10.79,24.1-24.1s-10.79-24.1-24.1-24.1c-9.21,0-17.22,5.17-21.27,12.77-4.05-7.6-12.06-12.77-21.27-12.77-13.31,0-24.1,10.79-24.1,24.1s10.79,24.1,24.1,24.1c9.21,0,17.22-5.17,21.27-12.77Zm12.3-26.42c3.22,0,5.83,2.61,5.83,5.83s-2.61,5.83-5.83,5.83-5.83-2.61-5.83-5.83,2.61-5.83,5.83-5.83Zm-42.29,11.67c-3.22,0-5.83-2.61-5.83-5.83s2.61-5.83,5.83-5.83,5.83,2.61,5.83,5.83-2.61,5.83-5.83,5.83Z"/>
  <path d="m131.78,67.63l-14.76,11.31h-33.95c-1.28,0-2.31,1.04-2.31,2.31s1.04,2.31,2.31,2.31h34.73c.51,0,1-.17,1.41-.48l15.39-11.78c1.01-.78,1.21-2.23.43-3.24-.78-1.01-2.23-1.21-3.24-.43Z"/>
  <path d="m100.12,31.85c3.22,0,5.83-2.61,5.83-5.83s-2.61-5.83-5.83-5.83-5.83,2.61-5.83,5.83,2.61,5.83,5.83,5.83Z"/>
  <path d="m57.83,20.19c-3.22,0-5.83,2.61-5.83,5.83s2.61,5.83,5.83,5.83,5.83-2.61,5.83-5.83-2.61-5.83-5.83-5.83Z"/>
</svg>