<?xml version="1.0" encoding="utf-8"?>
<!-- Generator: Adobe Illustrator 27.8.1, SVG Export Plug-In . SVG Version: 6.00 Build 0)  -->
<svg version="1.1" id="Layer_1" xmlns="http://www.w3.org/2000/svg" xmlns:xlink="http://www.w3.org/1999/xlink" x="0px" y="0px"
	 viewBox="0 0 75 56.83" style="enable-background:new 0 0 75 56.83;" xml:space="preserve">
<style type="text/css">
	.st0{fill:#CFD1D2;}
	.st1{fill:#E11E26;}
	.st2{fill:#1DB954;}
	.st3{fill:#228CCE;}
	.st4{fill:#F8B318;}
	.st5{fill:#FFFFFF;}
	.st6{fill:none;}
	.st7{fill:#D69513;}
	.st8{fill:url(#SVGID_1_);}
	.st9{fill:#F5EFE9;}
	.st10{fill:#186F9B;}
	.st11{fill:#231F20;}
	.st12{fill:#B21823;}
	.st13{fill:#2E9346;}
	.st14{fill:#E8E8E8;}
	.st15{fill:#A51620;}
</style>
<g>
	<path class="st6" d="M19.59,12.91c-3.26,0.43-6.22,2.11-8.31,4.82c-2.81,3.63-3.44,8.34-1.7,12.59c1.45,3.54,4.32,6.13,7.87,7.25
		V21.48C17.44,18.38,18.22,15.47,19.59,12.91z"/>
	<path class="st6" d="M51.93,10.76c-0.08,0.7-0.2,1.33-0.35,1.9c1.45,2.61,2.28,5.62,2.28,8.82v17.36h-0.62
		c0.87,0,1.65,0.4,2.18,1.01c1.33-0.42,2.63-1.03,3.86-1.83c4.75-3.08,7.4-8.24,7.09-13.81c-0.3-5.4-3.37-10.08-8.21-12.5
		c-2.18-1.09-4.52-1.63-6.85-1.63c-0.47,0-0.94,0.03-1.41,0.07c0.23,0.29,0.46,0.59,0.67,0.9C51.37,10.95,51.93,10.76,51.93,10.76z"
		/>
	<path class="st1" d="M25.42,47.13c0,5.25,4.26,9.51,9.51,9.51s9.51-4.26,9.51-9.51c0,0-5,2.11-9.51,2.11S25.42,47.13,25.42,47.13z"
		/>
	<path class="st4" d="M53.86,38.84V21.48c0-3.2-0.83-6.2-2.28-8.82c-1.63,6.26-7.12,5.53-11.05,1.77c-3.23,3.05-4.99,7.29-4.8,11.81
		c0.23,5.4,3.24,10.11,8.03,12.6h9.48H53.86z M40.21,33.72c-1.55,0-2.81-1.83-2.81-4.1c0-2.26,1.26-4.1,2.81-4.1s2.81,1.83,2.81,4.1
		C43.02,31.89,41.76,33.72,40.21,33.72z M45.45,24.84c-0.27,0.05-0.55,0.09-0.86,0.07c-0.3-0.02-0.65-0.11-0.93-0.33
		c-0.28-0.21-0.47-0.51-0.58-0.78c-0.12-0.28-0.18-0.55-0.23-0.8c-0.05-0.23-0.09-0.45-0.13-0.61c-0.08,0.06-0.18,0.15-0.28,0.27
		c-0.14,0.17-0.28,0.35-0.42,0.55c-0.14,0.2-0.28,0.4-0.45,0.61c-0.08,0.1-0.17,0.21-0.27,0.32c-0.11,0.11-0.22,0.22-0.42,0.33
		c-0.05,0.03-0.12,0.05-0.17,0.07c-0.08,0.02-0.14,0.04-0.23,0.03c-0.17,0.01-0.36-0.06-0.48-0.15c-0.12-0.09-0.2-0.18-0.25-0.26
		c-0.04-0.05-0.05-0.08-0.07-0.12c-0.02-0.04-0.04-0.07-0.06-0.11c-0.12-0.24-0.18-0.47-0.23-0.69c-0.2,0.3-0.4,0.62-0.6,0.94l0,0
		c-0.16,0.26-0.5,0.34-0.76,0.18c-0.26-0.16-0.34-0.5-0.18-0.76c0,0,0-0.01,0.01-0.01c0.27-0.42,0.53-0.84,0.86-1.27
		c0.09-0.11,0.17-0.21,0.3-0.34c0.06-0.06,0.14-0.13,0.28-0.21c0.05-0.02,0.1-0.04,0.15-0.06c0.06-0.02,0.15-0.02,0.23-0.02
		c0.08,0.01,0.19,0.04,0.26,0.08c0.06,0.04,0.14,0.1,0.17,0.14c0.15,0.19,0.16,0.28,0.19,0.37c0.03,0.09,0.04,0.16,0.05,0.23
		l0.07,0.36c0.04,0.21,0.09,0.39,0.16,0.54c0.01-0.01,0.02-0.01,0.02-0.02c0.07-0.07,0.14-0.15,0.21-0.24
		c0.14-0.17,0.28-0.37,0.43-0.57c0.15-0.2,0.3-0.4,0.48-0.61c0.09-0.1,0.19-0.21,0.31-0.31c0.12-0.1,0.25-0.21,0.45-0.29
		c0.1-0.04,0.22-0.07,0.36-0.07c0.14,0,0.32,0.04,0.45,0.14c0.07,0.05,0.11,0.1,0.17,0.15c0.04,0.05,0.07,0.1,0.1,0.15
		c0.02,0.04,0.05,0.09,0.06,0.13l0.04,0.12c0.09,0.31,0.12,0.55,0.16,0.78c0.08,0.46,0.21,0.85,0.43,1.02
		c0.11,0.09,0.26,0.14,0.44,0.15c0.18,0.02,0.39,0,0.6-0.04l0.01,0c0.25-0.04,0.48,0.12,0.53,0.37
		C45.86,24.56,45.7,24.79,45.45,24.84z"/>
	<path class="st4" d="M23.02,12.91c-0.59-0.08-1.17-0.12-1.75-0.12c-0.57,0-1.13,0.05-1.69,0.12c-1.37,2.55-2.15,5.47-2.15,8.57
		v16.08c0.71,0.22,1.43,0.41,2.18,0.51c4.55,0.61,8.94-1.19,11.75-4.82c2.81-3.63,3.44-8.34,1.7-12.59
		C31.33,16.42,27.57,13.52,23.02,12.91z M26.23,24.26c-0.03,0-0.07,0-0.11-0.01c-0.07-0.01-0.14-0.03-0.21-0.05
		c-0.07-0.02-0.13-0.06-0.19-0.1c-0.05-0.04-0.1-0.08-0.14-0.12c-0.16-0.17-0.23-0.32-0.29-0.46c-0.12-0.28-0.19-0.53-0.27-0.76
		c-0.08-0.22-0.17-0.44-0.25-0.54c-0.04-0.05-0.07-0.07-0.1-0.08c-0.02-0.01-0.06-0.02-0.13,0c-0.14,0.03-0.34,0.14-0.52,0.27
		l-0.01,0.01c-0.2,0.14-0.48,0.09-0.62-0.11c-0.14-0.2-0.09-0.48,0.11-0.62l0,0c0.24-0.16,0.48-0.34,0.84-0.43
		c0.17-0.05,0.4-0.06,0.62,0.01c0.22,0.07,0.4,0.22,0.52,0.36c0.24,0.29,0.33,0.57,0.43,0.82c0.09,0.25,0.17,0.5,0.25,0.68
		c0.03,0.08,0.07,0.13,0.1,0.16c0.03-0.01,0.1-0.03,0.16-0.06c0.08-0.04,0.17-0.1,0.26-0.17c0.35-0.27,0.69-0.62,0.98-1
		c0.07-0.1,0.13-0.2,0.2-0.3c-0.07-0.2-0.12-0.41-0.11-0.68c0-0.05,0.01-0.11,0.02-0.17c0.02-0.07,0.03-0.13,0.06-0.2
		c0.02-0.04,0.04-0.08,0.06-0.12c0.03-0.04,0.07-0.09,0.11-0.13c0.08-0.08,0.23-0.16,0.34-0.17c0.14-0.03,0.23-0.01,0.32,0.01
		c0.09,0.03,0.18,0.06,0.26,0.12c0.09,0.07,0.16,0.15,0.21,0.25c0.03,0.05,0.04,0.09,0.06,0.13c0.01,0.04,0.02,0.09,0.03,0.13
		c0.03,0.3-0.04,0.47-0.1,0.63c-0.03,0.08-0.07,0.14-0.1,0.21c0.07,0.09,0.14,0.17,0.22,0.22c0.12,0.09,0.24,0.11,0.38,0.1
		c0.14-0.01,0.32-0.07,0.49-0.17c0.17-0.1,0.34-0.24,0.51-0.39l0.02-0.01c0.23-0.2,0.58-0.18,0.79,0.05
		c0.2,0.23,0.18,0.58-0.05,0.79c0,0-0.01,0-0.01,0.01c-0.22,0.19-0.45,0.37-0.72,0.52c-0.27,0.15-0.59,0.27-0.96,0.3
		c-0.37,0.02-0.77-0.09-1.06-0.31c-0.08-0.05-0.13-0.12-0.19-0.18c-0.34,0.42-0.72,0.81-1.18,1.15c-0.12,0.08-0.25,0.17-0.39,0.24
		c-0.15,0.07-0.31,0.14-0.54,0.17L26.23,24.26z M29.51,33.72c-1.55,0-2.81-1.83-2.81-4.1c0-2.26,1.26-4.1,2.81-4.1
		s2.81,1.83,2.81,4.1C32.32,31.89,31.06,33.72,29.51,33.72z"/>
	<path class="st4" d="M50.56,11.06c-0.21-0.31-0.44-0.61-0.67-0.9c-0.91,0.08-1.81,0.25-2.7,0.5
		C48.35,11.19,49.63,11.18,50.56,11.06z"/>
	<path class="st4" d="M23.2,11.58c5.03,0.68,9.18,3.89,11.11,8.58c0.21,0.51,0.38,1.02,0.52,1.53c0.75-3.13,2.39-5.97,4.77-8.22
		c-0.81-0.93-1.52-1.99-2.07-3.15c-3.49-7.26-8.25-5.7-8.25-5.7c-0.03-0.05-0.05-0.1-0.08-0.15c-3.6,1.37-6.66,3.83-8.75,7.01
		C21.35,11.43,22.27,11.46,23.2,11.58z"/>
	<path class="st4" d="M34.82,29.4c-0.49,1.66-1.28,3.24-2.39,4.67c-1.78,2.3-4.14,3.92-6.77,4.77h15.56
		C37.98,36.56,35.72,33.24,34.82,29.4z"/>
	<path class="st4" d="M45.85,9.68c0.97-0.34,1.97-0.58,2.98-0.73c-1.52-1.59-3.31-2.9-5.32-3.86c0.64,1.31,1.14,2.62,1.62,3.57
		C45.34,9.05,45.59,9.39,45.85,9.68z"/>
	<path class="st4" d="M53.24,38.84h-9.48c0.01,0,0.01,0.01,0.02,0.01c3.67,1.9,7.81,2.21,11.64,1
		C54.89,39.24,54.11,38.84,53.24,38.84z"/>
	<path class="st4" d="M43.16,40.04c-0.69-0.35-1.32-0.76-1.94-1.2H25.66c-1.37,0.44-2.8,0.69-4.28,0.69c-0.64,0-1.29-0.04-1.93-0.13
		c-0.84-0.11-1.66-0.31-2.45-0.56h-1.49c-1.6,0-2.89,1.3-2.89,2.89v0.94c0,1.6,1.3,2.89,2.89,2.89h37.72c1.6,0,2.89-1.3,2.89-2.89
		v-0.94c0-0.24-0.04-0.47-0.09-0.69c-1.71,0.57-3.47,0.86-5.24,0.86C48.2,41.91,45.59,41.29,43.16,40.04z"/>
	<path d="M45.28,23.94l-0.01,0c-0.21,0.04-0.42,0.06-0.6,0.04c-0.18-0.02-0.33-0.07-0.44-0.15c-0.22-0.16-0.35-0.56-0.43-1.02
		c-0.05-0.23-0.07-0.47-0.16-0.78l-0.04-0.12c-0.02-0.04-0.04-0.09-0.06-0.13c-0.03-0.05-0.06-0.1-0.1-0.15
		c-0.05-0.05-0.09-0.1-0.17-0.15c-0.13-0.1-0.32-0.14-0.45-0.14c-0.14,0-0.25,0.03-0.36,0.07c-0.2,0.08-0.33,0.19-0.45,0.29
		c-0.12,0.1-0.21,0.21-0.31,0.31c-0.18,0.21-0.34,0.41-0.48,0.61c-0.15,0.2-0.29,0.4-0.43,0.57c-0.07,0.09-0.14,0.17-0.21,0.24
		c-0.01,0.01-0.02,0.01-0.02,0.02c-0.07-0.15-0.12-0.33-0.16-0.54l-0.07-0.36c-0.01-0.07-0.03-0.14-0.05-0.23
		c-0.04-0.09-0.04-0.18-0.19-0.37c-0.04-0.04-0.11-0.1-0.17-0.14c-0.07-0.04-0.18-0.07-0.26-0.08c-0.07,0-0.17,0-0.23,0.02
		c-0.05,0.01-0.1,0.03-0.15,0.06c-0.14,0.08-0.22,0.15-0.28,0.21c-0.13,0.12-0.21,0.23-0.3,0.34c-0.33,0.43-0.59,0.84-0.86,1.27
		c0,0,0,0.01-0.01,0.01c-0.16,0.26-0.08,0.6,0.18,0.76c0.26,0.16,0.6,0.08,0.76-0.18l0,0c0.2-0.32,0.4-0.64,0.6-0.94
		c0.05,0.22,0.11,0.45,0.23,0.69c0.02,0.04,0.04,0.07,0.06,0.11c0.02,0.04,0.04,0.07,0.07,0.12c0.06,0.08,0.13,0.18,0.25,0.26
		c0.12,0.09,0.3,0.16,0.48,0.15c0.09,0,0.16-0.02,0.23-0.03c0.06-0.02,0.12-0.05,0.17-0.07c0.2-0.11,0.31-0.22,0.42-0.33
		c0.1-0.11,0.19-0.21,0.27-0.32c0.16-0.21,0.31-0.41,0.45-0.61c0.14-0.2,0.28-0.39,0.42-0.55c0.1-0.12,0.2-0.21,0.28-0.27
		c0.05,0.16,0.09,0.38,0.13,0.61c0.05,0.25,0.11,0.52,0.23,0.8c0.11,0.27,0.3,0.57,0.58,0.78c0.28,0.21,0.63,0.31,0.93,0.33
		c0.31,0.02,0.59-0.02,0.86-0.07c0.24-0.05,0.4-0.28,0.36-0.53C45.77,24.06,45.53,23.9,45.28,23.94z"/>
	<path d="M27.25,23.84c0.46-0.34,0.84-0.73,1.18-1.15c0.06,0.06,0.12,0.13,0.19,0.18c0.29,0.22,0.7,0.33,1.06,0.31
		c0.37-0.02,0.69-0.15,0.96-0.3c0.27-0.15,0.5-0.33,0.72-0.52c0,0,0.01,0,0.01-0.01c0.23-0.2,0.25-0.56,0.05-0.79
		c-0.2-0.23-0.56-0.25-0.79-0.05l-0.02,0.01c-0.17,0.15-0.34,0.29-0.51,0.39c-0.17,0.1-0.34,0.16-0.49,0.17
		c-0.14,0-0.26-0.02-0.38-0.1c-0.08-0.05-0.15-0.13-0.22-0.22c0.03-0.07,0.07-0.13,0.1-0.21c0.05-0.16,0.12-0.33,0.1-0.63
		c-0.01-0.04-0.02-0.09-0.03-0.13c-0.01-0.04-0.03-0.08-0.06-0.13c-0.05-0.1-0.12-0.18-0.21-0.25c-0.09-0.06-0.17-0.1-0.26-0.12
		c-0.09-0.02-0.18-0.04-0.32-0.01c-0.12,0.01-0.26,0.09-0.34,0.17c-0.04,0.04-0.08,0.09-0.11,0.13c-0.02,0.04-0.04,0.08-0.06,0.12
		c-0.03,0.08-0.05,0.14-0.06,0.2c-0.01,0.05-0.02,0.12-0.02,0.17c-0.01,0.26,0.04,0.47,0.11,0.68c-0.07,0.1-0.12,0.2-0.2,0.3
		c-0.29,0.37-0.62,0.73-0.98,1c-0.09,0.06-0.18,0.12-0.26,0.17c-0.07,0.04-0.13,0.06-0.16,0.06c-0.02-0.03-0.06-0.09-0.1-0.16
		c-0.09-0.19-0.16-0.43-0.25-0.68c-0.1-0.25-0.19-0.53-0.43-0.82c-0.12-0.14-0.3-0.29-0.52-0.36c-0.22-0.07-0.45-0.06-0.62-0.01
		c-0.36,0.09-0.6,0.26-0.84,0.43l0,0c-0.2,0.14-0.25,0.42-0.11,0.62c0.14,0.2,0.42,0.25,0.62,0.11l0.01-0.01
		c0.18-0.13,0.38-0.24,0.52-0.27c0.07-0.02,0.11-0.01,0.13,0c0.02,0.01,0.05,0.03,0.1,0.08c0.09,0.11,0.18,0.32,0.25,0.54
		c0.08,0.23,0.15,0.48,0.27,0.76c0.06,0.14,0.14,0.3,0.29,0.46c0.05,0.04,0.09,0.08,0.14,0.12c0.06,0.04,0.11,0.07,0.19,0.1
		c0.07,0.03,0.14,0.05,0.21,0.05c0.03,0,0.07,0.01,0.11,0.01l0.09-0.01c0.23-0.02,0.39-0.1,0.54-0.17
		C27.01,24.01,27.13,23.93,27.25,23.84z"/>
	<path d="M67.7,24.15c-0.33-5.89-3.67-10.98-8.95-13.62c-3.14-1.57-6.59-2.09-9.93-1.58c-1.01,0.15-2,0.4-2.98,0.73
		c0.4,0.44,0.86,0.76,1.34,0.98c0.89-0.25,1.79-0.41,2.7-0.5c0.47-0.04,0.94-0.07,1.41-0.07c2.34,0,4.68,0.54,6.85,1.63
		c4.84,2.43,7.91,7.1,8.21,12.5c0.31,5.57-2.34,10.73-7.09,13.81c-1.23,0.8-2.53,1.4-3.86,1.83c-3.83,1.21-7.96,0.9-11.64-1
		c-0.01,0-0.01-0.01-0.02-0.01c-4.8-2.49-7.8-7.19-8.03-12.6c-0.19-4.51,1.57-8.75,4.8-11.81c-0.32-0.3-0.63-0.63-0.92-0.97
		c-2.38,2.25-4.02,5.09-4.77,8.22c-0.15-0.51-0.32-1.03-0.52-1.53c-1.93-4.69-6.08-7.9-11.11-8.58c-0.93-0.13-1.85-0.16-2.76-0.11
		c-4,0.23-7.7,2.16-10.23,5.43c-3.1,4.02-3.8,9.22-1.88,13.91c1.6,3.91,4.75,6.78,8.66,8.02c0.79,0.25,1.61,0.44,2.45,0.56
		c0.65,0.09,1.29,0.13,1.93,0.13c1.48,0,2.91-0.25,4.28-0.69c2.63-0.85,4.99-2.47,6.77-4.77c1.11-1.43,1.9-3.02,2.39-4.67
		c0.9,3.84,3.16,7.16,6.41,9.44c0.62,0.43,1.25,0.84,1.94,1.2c2.42,1.25,5.03,1.87,7.64,1.87c1.77,0,3.53-0.3,5.24-0.86
		c1.37-0.46,2.7-1.08,3.96-1.9C65.16,35.81,68.04,30.2,67.7,24.15z M31.38,33.26c-2.81,3.63-7.2,5.44-11.75,4.82
		c-0.76-0.1-1.48-0.29-2.18-0.51c-3.55-1.12-6.41-3.71-7.87-7.25c-1.74-4.25-1.11-8.95,1.7-12.59c2.09-2.7,5.06-4.38,8.31-4.82
		c0.56-0.07,1.12-0.12,1.69-0.12c0.58,0,1.16,0.04,1.75,0.12c4.55,0.61,8.31,3.52,10.05,7.76C34.82,24.92,34.18,29.62,31.38,33.26z"
		/>
	<path d="M37.53,10.33c0.55,1.15,1.26,2.21,2.07,3.15c0.29,0.34,0.6,0.66,0.92,0.97c3.94,3.75,9.42,4.49,11.05-1.77
		c0.15-0.58,0.27-1.21,0.35-1.9c0,0-0.56,0.19-1.36,0.3c-0.94,0.13-2.21,0.13-3.37-0.4c-0.48-0.22-0.94-0.54-1.34-0.98
		c-0.27-0.29-0.51-0.62-0.72-1.03c-0.48-0.95-0.98-2.26-1.62-3.57c-1.92-3.93-5.07-7.84-12.77-1.73c-2.18-4.27-4.21-3.71-1.55,1.12
		c0.03,0.05,0.05,0.1,0.08,0.15C29.28,4.62,34.04,3.06,37.53,10.33z"/>
	<path class="st5" d="M29.51,25.52c-1.55,0-2.81,1.83-2.81,4.1c0,2.26,1.26,4.1,2.81,4.1s2.81-1.83,2.81-4.1
		C32.32,27.36,31.06,25.52,29.51,25.52z M28.96,31.32c-0.72-0.75-0.72-2.64,0-3.39c0.72-0.75,1.63,0.19,1.63,1.7
		C30.59,31.13,29.69,32.07,28.96,31.32z"/>
	<path class="st5" d="M40.21,25.52c-1.55,0-2.81,1.83-2.81,4.1c0,2.26,1.26,4.1,2.81,4.1s2.81-1.83,2.81-4.1
		C43.02,27.36,41.76,25.52,40.21,25.52z M39.76,31.2c-0.56-0.6-0.53-2.09,0.05-2.68c0.58-0.58,1.28,0.17,1.26,1.36
		C41.04,31.08,40.32,31.81,39.76,31.2z"/>
	<path d="M28.97,27.92c-0.72,0.75-0.73,2.64,0,3.39c0.72,0.75,1.63-0.19,1.63-1.69C30.59,28.11,29.69,27.17,28.97,27.92z"/>
	<path d="M39.8,28.53c-0.58,0.58-0.61,2.07-0.05,2.68c0.56,0.6,1.29-0.13,1.31-1.32C41.08,28.7,40.38,27.94,39.8,28.53z"/>
</g>
</svg>
