<?xml version="1.0" encoding="utf-8"?>
<!-- Generator: Adobe Illustrator 27.8.1, SVG Export Plug-In . SVG Version: 6.00 Build 0)  -->
<svg version="1.1" id="Layer_1" xmlns="http://www.w3.org/2000/svg" xmlns:xlink="http://www.w3.org/1999/xlink" x="0px" y="0px"
	 viewBox="0 0 75 58.94" style="enable-background:new 0 0 75 58.94;" xml:space="preserve">
<style type="text/css">
	.st0{fill:#CFD1D2;}
	.st1{fill:#E11E26;}
	.st2{fill:#1DB954;}
	.st3{fill:#228CCE;}
	.st4{fill:#F8B318;}
	.st5{fill:#FFFFFF;}
	.st6{fill:none;}
	.st7{fill:#D69513;}
	.st8{fill:url(#SVGID_1_);}
	.st9{fill:#F5EFE9;}
	.st10{fill:#186F9B;}
	.st11{fill:#231F20;}
	.st12{fill:#B21823;}
	.st13{fill:#2E9346;}
	.st14{fill:#E8E8E8;}
	.st15{fill:#A51620;}
</style>
<g>
	<path class="st6" d="M33.56,48.31l-10.9-10.9c-1.98,8.04-1.24,13.6,2.16,16.06c3.57,2.59,9.96,1.56,16.67-2.68
		c0.04-0.19,0.12-0.4,0.27-0.62c0.27-0.41,0.69-0.77,1.2-1.08v-2.3l-1.52,1.52C39.26,50.48,35.74,50.48,33.56,48.31z"/>
	<path class="st1" d="M22.09,35.9c0.49,0.13,0.79,0.63,0.67,1.12c-0.03,0.13-0.06,0.26-0.09,0.39l10.9,10.9
		c2.17,2.17,5.7,2.17,7.87,0l1.52-1.52v-0.2l-2.07,2.06V35.32c-0.14-0.05-0.27-0.08-0.41-0.13c-3.51-1.37-5.98-4.34-6.74-8
		c-0.23,0.34-0.51,0.66-0.86,0.94c-2.49,1.99-6.2,0.55-6.68-2.61c-0.48-3.15,2.63-5.64,5.6-4.48c0.85,0.33,1.5,0.9,1.95,1.58
		c0.52-2.41,1.84-4.59,3.85-6.2c3.09-2.48,7.15-3.1,10.84-1.66s6.26,4.64,6.86,8.56s-0.89,7.74-3.99,10.22
		c-1.59,1.28-3.44,2.05-5.36,2.31v7.95l14.89-14.89c2.17-2.17,2.17-5.7,0-7.87l-19.4-19.4c-2.17-2.17-5.7-2.17-7.87,0l-19.4,19.4
		c-2.17,2.17-2.17,5.7,0,7.87l7.16,7.16C21.53,35.9,21.81,35.83,22.09,35.9z M27.34,33.95L27.34,33.95c0.54-0.13,1.08,0.21,1.2,0.74
		c0.71,2.99,2.65,4.93,5.77,5.79c2.45,0.67,4.71,0.4,4.73,0.4c0.54-0.06,1.05,0.32,1.12,0.87c0.03,0.26-0.04,0.53-0.2,0.74
		c-0.16,0.21-0.4,0.34-0.67,0.38c0,0-0.52,0.06-1.34,0.06c-2.86,0-9.7-0.76-11.36-7.77C26.48,34.61,26.81,34.07,27.34,33.95z
		 M23.81,18.67c4.83-4.9,8.53-2.59,8.69-2.49c0.42,0.27,0.54,0.83,0.27,1.25c-0.27,0.42-0.83,0.54-1.25,0.27
		c-0.1-0.06-2.67-1.55-6.42,2.25c-0.16,0.16-0.37,0.25-0.58,0.27c-0.25,0.02-0.51-0.07-0.7-0.26
		C23.46,19.59,23.46,19.02,23.81,18.67z"/>
	<path class="st5" d="M31.8,21.04c-2.97-1.16-6.08,1.33-5.6,4.48c0.48,3.15,4.19,4.6,6.68,2.61c0.35-0.28,0.63-0.6,0.86-0.94
		c-0.04-0.19-0.09-0.37-0.12-0.56c-0.21-1.37-0.15-2.72,0.13-4.02C33.3,21.94,32.65,21.37,31.8,21.04z M30.99,26.49
		c-1.22-0.53-1.42-2.19-0.35-2.98s2.6-0.13,2.75,1.19C33.55,26.02,32.21,27.01,30.99,26.49z"/>
	<path d="M30.64,23.5c-1.07,0.8-0.88,2.45,0.35,2.98c1.22,0.53,2.56-0.46,2.41-1.79C33.24,23.37,31.71,22.71,30.64,23.5z"/>
	<path class="st11" d="M37.97,42.92c0.82,0,1.33-0.06,1.34-0.06c0.26-0.03,0.5-0.17,0.67-0.38c0.16-0.21,0.24-0.47,0.2-0.74
		c-0.07-0.55-0.58-0.93-1.12-0.87c-0.02,0-2.29,0.27-4.73-0.4c-3.12-0.86-5.07-2.8-5.77-5.79c-0.13-0.54-0.67-0.87-1.2-0.74h0
		c-0.54,0.13-0.87,0.67-0.74,1.2C28.27,42.16,35.1,42.92,37.97,42.92z"/>
	<path class="st12" d="M42.95,46.59V35.83c-0.7-0.1-1.39-0.28-2.07-0.51v13.33L42.95,46.59z"/>
	<path class="st5" d="M41.2,33.33c3.02,1.18,6.34,0.67,8.87-1.36s3.75-5.15,3.26-8.36s-2.59-5.82-5.61-7
		c-1.07-0.42-2.19-0.63-3.29-0.63c-1.99,0-3.95,0.67-5.58,1.98c-2.53,2.03-3.75,5.15-3.26,8.36S38.18,32.15,41.2,33.33z M43.66,23.3
		c1.34-3.09,5.53-3.58,7.54-0.87c2.01,2.71,0.34,6.58-3.01,6.96C44.83,29.78,42.32,26.4,43.66,23.3z"/>
	<path d="M48.18,29.39c3.35-0.39,5.02-4.26,3.01-6.96c-2.01-2.71-6.2-2.22-7.54,0.87C42.32,26.4,44.83,29.78,48.18,29.39z"/>
	<path class="st4" d="M42.95,52.3v4.75c0,0.83,0.67,1.5,1.5,1.5s1.5-0.67,1.5-1.5v-4.94c-0.05,0.01-0.09,0.03-0.14,0.04
		C44.71,52.45,43.72,52.47,42.95,52.3z"/>
	<path class="st4" d="M45.95,35.85c1.92-0.26,3.77-1.04,5.36-2.31c3.09-2.48,4.58-6.3,3.99-10.22s-3.16-7.12-6.86-8.56
		s-7.75-0.82-10.84,1.66c-2.01,1.61-3.33,3.8-3.85,6.2c-0.28,1.29-0.34,2.65-0.13,4.02c0.03,0.19,0.08,0.37,0.12,0.56
		c0.75,3.66,3.22,6.63,6.74,8c0.14,0.05,0.27,0.08,0.41,0.13c0.68,0.23,1.38,0.41,2.07,0.51v10.76v0.2v2.3
		c0.85-0.52,1.95-0.87,3-0.98v-4.32V35.85z M38.85,17.97c1.63-1.31,3.59-1.98,5.58-1.98c1.1,0,2.21,0.21,3.29,0.63
		c3.02,1.18,5.12,3.79,5.61,7s-0.73,6.33-3.26,8.36s-5.84,2.53-8.87,1.36s-5.12-3.79-5.61-7S36.32,20,38.85,17.97z"/>
	<path class="st11" d="M24.52,20.2c0.21-0.02,0.42-0.1,0.58-0.27c3.75-3.8,6.32-2.3,6.42-2.25c0.42,0.27,0.98,0.15,1.25-0.27
		c0.27-0.42,0.15-0.98-0.27-1.25c-0.15-0.1-3.86-2.41-8.69,2.49c-0.35,0.36-0.35,0.93,0.01,1.28C24.01,20.13,24.27,20.22,24.52,20.2
		z"/>
	<path d="M41.75,50.17c-0.14,0.22-0.23,0.42-0.27,0.62c-6.71,4.24-13.09,5.27-16.67,2.68c-3.4-2.46-4.14-8.01-2.16-16.06
		c0.03-0.13,0.06-0.26,0.09-0.39c0.13-0.49-0.17-0.99-0.67-1.12c-0.28-0.07-0.56,0.01-0.77,0.17c-0.16,0.12-0.29,0.29-0.35,0.5
		c-2.91,11.44-0.1,16.32,2.77,18.4c1.85,1.34,4.28,1.9,7.05,1.7c3.52-0.25,7.6-1.72,11.73-4.34c0.04-0.03,0.06-0.06,0.1-0.09
		c0.1,0.03,0.22,0.05,0.33,0.07c0.77,0.17,1.76,0.15,2.86-0.14c0.05-0.01,0.1-0.03,0.14-0.04c2.82-0.82,4.13-2.85,2.36-3.71
		c-0.63-0.31-1.47-0.38-2.36-0.29c-1.05,0.11-2.15,0.46-3,0.98C42.45,49.4,42.02,49.77,41.75,50.17z"/>
</g>
</svg>
