<?xml version="1.0" encoding="utf-8"?>
<!-- Generator: Adobe Illustrator 27.8.1, SVG Export Plug-In . SVG Version: 6.00 Build 0)  -->
<svg version="1.1" id="Layer_1" xmlns="http://www.w3.org/2000/svg" xmlns:xlink="http://www.w3.org/1999/xlink" x="0px" y="0px"
	 viewBox="0 0 75 61.2" style="enable-background:new 0 0 75 61.2;" xml:space="preserve">
<style type="text/css">
	.st0{fill:#CFD1D2;}
	.st1{fill:#E11E26;}
	.st2{fill:#1DB954;}
	.st3{fill:#228CCE;}
	.st4{fill:#F8B318;}
	.st5{fill:#FFFFFF;}
	.st6{fill:none;}
	.st7{fill:#D69513;}
	.st8{fill:url(#SVGID_1_);}
	.st9{fill:#F5EFE9;}
	.st10{fill:#186F9B;}
	.st11{fill:#231F20;}
	.st12{fill:#B21823;}
	.st13{fill:#2E9346;}
	.st14{fill:#E8E8E8;}
	.st15{fill:#A51620;}
</style>
<g>
	<path class="st1" d="M67.42,54.02L53.51,30.92l0,0l1.44,2.39c0,0-4.19,0.99-9.7,0.53c-3.77-0.31-12.08-1.54-16.97-2.29
		c-2.25-0.12-4.53-0.32-6.51-0.64L7.85,54.02C6,57.09,8.21,61,11.79,61h51.68C67.06,61,69.27,57.09,67.42,54.02z M35.41,33.75
		c1.91,0.74,3.17,2.25,3.7,3.97c0.89-1.83,3.09-2.89,5.23-2.06c2.97,1.16,3.57,5.1,1.08,7.09c-2.13,1.71-5.16,0.88-6.28-1.37
		c-0.34,1.16-1.02,2.26-2.09,3.11c-3.77,3.02-9.39,0.83-10.13-3.95C26.19,35.77,30.91,32,35.41,33.75z M46.5,51.68
		c-2.83,2.28-6.6,3.43-11.09,3.43c-2.42,0-5.06-0.33-7.88-1.01c-0.52-0.12-0.83-0.64-0.71-1.16c0.12-0.52,0.64-0.83,1.16-0.71
		c7.34,1.75,13.49,1.03,17.32-2.05c3.28-2.63,4.88-6.85,4.78-12.55c-0.01-0.53,0.41-0.97,0.94-0.98c0.53-0.01,0.97,0.41,0.98,0.94
		C52.11,43.83,50.21,48.7,46.5,51.68z"/>
	<path class="st5" d="M37.05,44.5c1.07-0.85,1.74-1.95,2.09-3.11c1.13,2.25,4.15,3.08,6.28,1.37c2.49-1.99,1.89-5.93-1.08-7.09
		c-2.14-0.83-4.34,0.23-5.23,2.06c-0.53-1.72-1.79-3.22-3.7-3.97c-4.5-1.75-9.21,2.02-8.48,6.79C27.65,45.32,33.28,47.52,37.05,44.5
		z M41.8,38.13c1.07-0.8,2.6-0.13,2.75,1.19c0.15,1.33-1.19,2.32-2.41,1.79C40.92,40.58,40.73,38.93,41.8,38.13z M31.49,37.43
		c1.7-1.27,4.14-0.21,4.38,1.9s-1.89,3.69-3.83,2.85C30.09,41.33,29.78,38.7,31.49,37.43z"/>
	<path d="M32.04,42.17c1.95,0.84,4.08-0.74,3.83-2.85s-2.68-3.16-4.38-1.9C29.78,38.7,30.09,41.33,32.04,42.17z"/>
	<path d="M42.14,41.11c1.22,0.53,2.56-0.46,2.41-1.79c-0.15-1.33-1.68-1.99-2.75-1.19C40.73,38.93,40.92,40.58,42.14,41.11z"/>
	<path d="M51.02,36.65c-0.53,0.01-0.95,0.45-0.94,0.98c0.1,5.69-1.5,9.92-4.78,12.55c-3.83,3.08-9.98,3.81-17.32,2.05
		c-0.52-0.12-1.03,0.19-1.16,0.71c-0.12,0.52,0.19,1.03,0.71,1.16c2.82,0.67,5.45,1.01,7.88,1.01c4.49,0,8.26-1.15,11.09-3.43
		c3.71-2.98,5.61-7.85,5.5-14.08C51.99,37.07,51.56,36.64,51.02,36.65z"/>
	<path class="st15" d="M28.27,31.56c4.89,0.75,13.2,1.97,16.97,2.29c5.52,0.46,9.7-0.53,9.7-0.53l-1.44-2.39
		c-5.18,0.83-12.38,0.83-15.87,0.83C35.48,31.76,31.91,31.75,28.27,31.56z"/>
	<path class="st4" d="M37.63,31.76c3.5,0,10.69-0.01,15.87-0.83l0,0c2.61-0.42,4.72-1.04,5.57-1.98c0.28-0.31,0.41-0.64,0.37-1.01
		c-0.11-1.16-0.93-2-1.96-2h-0.87c-0.14,0-0.27-0.06-0.36-0.16c-0.09-0.1-0.13-0.24-0.12-0.38c0.02-0.14,1.9-13.76-8.24-19.57
		l-1.73,12.61c-0.03,0.24-0.24,0.42-0.48,0.42c-0.02,0-0.04,0-0.06,0c-0.26-0.03-0.45-0.27-0.42-0.53L46.61,2.9l-3.85-1.34L41.9,23
		c-0.01,0.26-0.22,0.47-0.48,0.47c0,0-0.01,0-0.01,0c-0.26-0.01-0.47-0.23-0.47-0.49L41.32,0h-3.95h-1h-2.47l0.44,22.97
		c0.01,0.26-0.2,0.49-0.47,0.49c0,0-0.01,0-0.01,0c-0.26,0-0.47-0.21-0.48-0.47l-0.9-21.42l-4,1.39l1.57,15.36
		c0.03,0.26-0.16,0.5-0.42,0.53c-0.02,0-0.04,0-0.06,0c-0.24,0-0.45-0.18-0.48-0.42l-1.8-12.57c-10.14,5.81-8.19,19.39-8.17,19.53
		c0.02,0.14-0.02,0.27-0.12,0.38c-0.09,0.1-0.22,0.16-0.36,0.16h-0.87c-1.03,0-1.85,0.84-1.96,2c-0.03,0.37,0.09,0.69,0.37,1.01
		c0.86,0.94,2.96,1.56,5.57,1.98c1.98,0.32,4.26,0.51,6.51,0.64C31.91,31.75,35.48,31.76,37.63,31.76z M24.62,24.98
		c0.06,0.01,6.47,1.04,13.28,1.04c6.79,0,11.86-1.03,11.91-1.04c0.26-0.05,0.51,0.11,0.57,0.37c0.05,0.26-0.11,0.51-0.37,0.57
		c-0.05,0.01-5.59,1.8-12.49,1.8c-6.89,0-12.98-1.78-13.04-1.79c-0.26-0.04-0.44-0.29-0.4-0.55C24.11,25.12,24.36,24.94,24.62,24.98
		z"/>
	<path class="st5" d="M24.47,25.93c0.06,0.01,6.16,1.79,13.04,1.79c6.9,0,12.44-1.79,12.49-1.8c0.26-0.05,0.43-0.31,0.37-0.57
		c-0.05-0.26-0.3-0.43-0.57-0.37c-0.05,0.01-5.11,1.04-11.91,1.04c-6.81,0-13.22-1.03-13.28-1.04c-0.26-0.04-0.51,0.13-0.55,0.4
		C24.03,25.64,24.2,25.89,24.47,25.93z"/>
</g>
</svg>
