<?xml version="1.0" encoding="utf-8"?>
<!-- Generator: Adobe Illustrator 27.8.1, SVG Export Plug-In . SVG Version: 6.00 Build 0)  -->
<svg version="1.1" id="Layer_1" xmlns="http://www.w3.org/2000/svg" xmlns:xlink="http://www.w3.org/1999/xlink" x="0px" y="0px"
	 viewBox="0 0 75 58.94" style="enable-background:new 0 0 75 58.94;" xml:space="preserve">
<style type="text/css">
	.st0{fill:#CFD1D2;}
	.st1{fill:#E11E26;}
	.st2{fill:#1DB954;}
	.st3{fill:#228CCE;}
	.st4{fill:#F8B318;}
	.st5{fill:#FFFFFF;}
	.st6{fill:none;}
	.st7{fill:#D69513;}
	.st8{fill:url(#SVGID_1_);}
	.st9{fill:#F5EFE9;}
	.st10{fill:#186F9B;}
	.st11{fill:#231F20;}
	.st12{fill:#B21823;}
	.st13{fill:#2E9346;}
	.st14{fill:#E8E8E8;}
	.st15{fill:#A51620;}
</style>
<g>
	<path d="M66.63,9.38c0.04-0.11,0.07-0.23,0.06-0.35c-0.19-2.6-0.89-5.2-0.92-5.31c-0.12-0.43-0.56-0.68-0.99-0.57
		c-0.43,0.12-0.68,0.56-0.57,0.99c0.01,0.02,0.57,2.13,0.81,4.36c-0.4,0.07-0.78,0.17-1.13,0.27c-0.57-4.65-2.49-7.97-2.57-8.12
		c-0.23-0.38-0.72-0.51-1.1-0.29c-0.38,0.23-0.51,0.72-0.29,1.1c0.02,0.03,1.96,3.39,2.42,7.92c-0.27,0.14-0.51,0.28-0.72,0.42
		c-0.68-2.19-2.09-4.99-2.17-5.13c-0.2-0.4-0.69-0.55-1.08-0.35c-0.39,0.2-0.55,0.69-0.35,1.08c0.57,1.13,2.11,4.39,2.33,5.96
		c0,0.02,0.02,0.04,0.02,0.07c0,0.07,0,0.14,0.01,0.2l0.31,1.67c-1.84-1.21-3.64-3.3-3.66-3.33c-0.29-0.34-0.8-0.38-1.14-0.09
		c-0.34,0.29-0.38,0.8-0.09,1.14c0.11,0.13,2.74,3.19,5.19,4.3c0.02,0.01,0.05,0.01,0.07,0.01l0.01,0.05
		c1.13,0.2,2.2,0.08,3.12-0.16c0.34,1.14,0.93,3.48,0.86,6.18c-0.1,3.98-1.54,7.17-4.24,9.55c0.23,0.51,0.45,1.03,0.66,1.55
		c3.3-2.71,5.09-6.5,5.19-11.12c0.06-2.96-0.57-5.48-0.95-6.7c0.88-0.4,1.43-0.79,1.43-0.79C67.65,11.8,67.14,10.29,66.63,9.38z"/>
	<path class="st2" d="M35.49,14.64c-2.22,0-4.38,0.27-6.45,0.76c-0.93,0.76-1.36,1.53-1.39,1.6c-0.2,0.37-0.58,0.58-0.97,0.58
		c-0.17,0-0.34-0.04-0.5-0.12c-0.38-0.2-0.59-0.6-0.58-1c-10.49,4-17.97,14.16-17.97,26.03c0,1.26,1.02,2.28,2.28,2.28h8.81v10.57
		c0,0.96,1.22,1.37,1.8,0.61l8.56-11.18h15.6l0.08-2.04l2.96,0.11l-0.07,1.93h13.41c1.26,0,2.28-1.02,2.28-2.28
		c0-3.52-0.66-6.88-1.86-9.99c-0.2-0.53-0.42-1.04-0.66-1.55C56.44,21.34,46.74,14.64,35.49,14.64z M30.18,21.47
		c3.17-1.52,6.75,0.09,7.91,2.99c0.43-1.65,1.54-3.15,3.33-4.01c4.41-2.14,9.55,1.19,9.25,5.99c-0.3,4.8-5.81,7.47-9.92,4.8
		c-1.26-0.82-2.09-1.94-2.52-3.18c-1.05,3.44-5.34,5.13-8.63,3.01C25.91,28.7,26.24,23.37,30.18,21.47z M49.76,36.37
		c-0.72,0.46-1.56,0.36-2.21-0.06c-0.05,0.06-0.09,0.13-0.16,0.19c-0.2,0.16-3.86,3.04-9.5,3.04c-1.76,0-3.71-0.28-5.81-1.01
		c-0.11,0.12-0.24,0.24-0.39,0.33c-1.32,0.84-3.11-0.14-3.22-1.77s1.55-2.68,2.98-1.9c0.52,0.28,0.86,0.73,1.03,1.23
		c0.1,0.01,0.19,0.01,0.29,0.04c7.72,2.69,13.2-1.62,13.25-1.66c0.15-0.12,0.33-0.18,0.52-0.21c-0.1-1.62,1.55-2.67,2.98-1.88
		C50.95,33.49,51.08,35.53,49.76,36.37z"/>
	<path class="st5" d="M29.59,31.07c3.3,2.12,7.58,0.43,8.63-3.01c0.43,1.23,1.27,2.36,2.52,3.18c4.11,2.66,9.62-0.01,9.92-4.8
		c0.3-4.8-4.84-8.13-9.25-5.99c-1.78,0.86-2.89,2.36-3.33,4.01c-1.15-2.9-4.74-4.52-7.91-2.99C26.24,23.37,25.91,28.7,29.59,31.07z
		 M44.72,24.01c1.87,0.56,2.44,2.94,1.02,4.28c-1.42,1.34-3.77,0.65-4.22-1.26C41.07,25.13,42.84,23.45,44.72,24.01z M33.15,24.5
		c1.5,0.45,1.95,2.35,0.82,3.43c-1.14,1.08-3.01,0.52-3.38-1.01C30.23,25.39,31.65,24.05,33.15,24.5z"/>
	<path d="M26.19,17.46c0.16,0.08,0.33,0.12,0.5,0.12c0.39,0,0.77-0.21,0.97-0.58c0.03-0.07,0.46-0.84,1.39-1.6
		c1.01-0.83,2.61-1.64,4.96-1.51c0.6,0.03,1.12-0.42,1.15-1.02c0.03-0.6-0.42-1.12-1.02-1.15c-5.97-0.34-8.31,4.09-8.41,4.28
		c-0.08,0.15-0.11,0.3-0.11,0.46C25.6,16.87,25.81,17.26,26.19,17.46z"/>
	<path d="M45.74,28.29c1.42-1.34,0.86-3.72-1.02-4.28c-1.87-0.56-3.65,1.12-3.2,3.02C41.97,28.94,44.32,29.64,45.74,28.29z"/>
	<path d="M33.97,27.93c1.14-1.08,0.68-2.98-0.82-3.43c-1.5-0.45-2.92,0.9-2.56,2.42C30.96,28.44,32.83,29,33.97,27.93z"/>
	<path class="st13" d="M31.38,37.13c0.16-0.47,0.62-0.74,1.1-0.71c-0.17-0.5-0.51-0.94-1.03-1.23c-1.43-0.79-3.09,0.27-2.98,1.9
		s1.9,2.61,3.22,1.77c0.15-0.1,0.28-0.21,0.39-0.33c-0.01,0-0.02-0.01-0.03-0.01C31.48,38.32,31.18,37.7,31.38,37.13z"/>
	<path class="st13" d="M49.52,32.71c-1.43-0.79-3.08,0.26-2.98,1.88c0.37-0.06,0.76,0.06,1.01,0.37c0.32,0.4,0.3,0.95-0.01,1.34
		c0.65,0.43,1.5,0.52,2.21,0.06C51.08,35.53,50.95,33.49,49.52,32.71z"/>
	<path class="st1" d="M36.15,55.48c-0.04,0.99,0.73,1.82,1.72,1.85l15.61,0.58c0.99,0.04,1.82-0.73,1.85-1.72l0.02-0.66l-19.19-0.71
		L36.15,55.48z"/>
	<path class="st1" d="M44.67,45.42l0.01-0.26l-6.34-0.23c-0.99-0.04-1.82,0.73-1.85,1.72l-0.02,0.42l19.19,0.71l0.02-0.42
		c0.04-0.99-0.73-1.82-1.72-1.85l-6.31-0.23l-0.01,0.26L44.67,45.42z"/>
	<path class="st14" d="M36.18,54.83l19.19,0.71l0.29-7.76l-19.19-0.71L36.18,54.83z M48.04,51.9c0.01-0.07,0.02-0.12,0.01-0.17
		c-0.02-0.62-0.02-1.25,0-1.91c0.03-0.85,0.09-1.32,0.16-1.4c0.06-0.06,0.18-0.09,0.37-0.08c0.35,0.01,0.55,0.11,0.59,0.29
		c0.01,0.04,0.01,0.07,0.01,0.1c0,0.05-0.02,0.12-0.06,0.22s-0.06,0.17-0.06,0.24l-0.09,2.45c0,0.07,0.01,0.18,0.04,0.3
		c0.03,0.13,0.05,0.22,0.04,0.27c0,0.09-0.04,0.17-0.12,0.22s-0.18,0.08-0.29,0.07c-0.26-0.01-0.45-0.1-0.58-0.29
		c-0.04-0.06-0.06-0.13-0.06-0.2C48.02,52.01,48.02,51.96,48.04,51.9z M48.03,53.69c0.01-0.12,0.02-0.22,0.02-0.3
		c0-0.01-0.01-0.07-0.02-0.16c-0.01-0.06-0.01-0.11,0.01-0.15c0.04-0.09,0.15-0.13,0.34-0.13c0.33,0.01,0.54,0.13,0.63,0.34
		c0.02,0.05,0.03,0.11,0.03,0.18c0,0.04-0.01,0.12-0.03,0.21c-0.02,0.1-0.03,0.17-0.04,0.23c0-0.01,0.01,0.06,0.01,0.22
		c0,0.08-0.02,0.15-0.06,0.21c-0.06,0.09-0.16,0.13-0.31,0.12c-0.26-0.01-0.45-0.1-0.57-0.28C48.02,54.14,48,54.06,48,53.95
		C48.01,53.92,48.01,53.83,48.03,53.69z M46.3,49.28c0.03-0.06,0.05-0.11,0.06-0.15c0.01-0.04,0.01-0.14,0.01-0.29
		c0-0.12,0.02-0.21,0.08-0.25c0.08-0.06,0.22-0.08,0.42-0.07c0.22,0.01,0.37,0.06,0.46,0.15c0.01,0.01,0.02,0.04,0.02,0.07
		c0,0.04-0.02,0.12-0.05,0.23c-0.04,0.13-0.07,0.22-0.08,0.27s-0.01,0.16,0,0.33c0,0.1-0.04,0.17-0.1,0.2
		c-0.06,0.03-0.14,0.04-0.23,0.04c-0.13,0-0.26-0.04-0.4-0.1c-0.17-0.08-0.25-0.17-0.24-0.28C46.25,49.39,46.27,49.34,46.3,49.28z
		 M46.14,52.8c0.01-0.19,0.02-0.48,0.04-0.87c0.02-0.4,0.04-0.68,0.04-0.87c0-0.07,0-0.16-0.01-0.27c-0.01-0.11-0.02-0.19-0.01-0.24
		c0.01-0.16,0.07-0.3,0.19-0.41c0.05-0.05,0.14-0.07,0.28-0.06s0.26,0.03,0.4,0.08c0.13,0.05,0.21,0.1,0.25,0.15
		s0.05,0.11,0.05,0.16c0,0.07-0.04,0.17-0.13,0.32c-0.08,0.14-0.12,0.26-0.13,0.35l-0.08,2.17c0,0.1,0.02,0.24,0.07,0.42
		s0.07,0.31,0.07,0.38c0,0.1-0.05,0.17-0.13,0.22c-0.13,0.07-0.26,0.11-0.4,0.1c-0.19-0.01-0.32-0.08-0.39-0.21
		C46.15,54.05,46.11,53.58,46.14,52.8z M42.18,51.19c0.01-0.05,0.04-0.1,0.09-0.13c0.05-0.03,0.1-0.06,0.15-0.1
		c0.03-1.17,0.06-1.96,0.1-2.38c-0.04-0.09-0.06-0.16-0.06-0.22c0-0.11,0.08-0.2,0.24-0.26c0.07-0.03,0.16-0.04,0.27-0.03
		c0.38,0.01,0.61,0.13,0.69,0.34c0.01,0.04,0.02,0.08,0.02,0.11c0,0.07-0.05,0.17-0.14,0.3c-0.09,0.13-0.14,0.24-0.14,0.33
		c-0.06,0.79-0.08,1.37-0.08,1.75c0.49-0.07,0.81-0.12,0.97-0.16c-0.02-0.6,0.01-1.3,0.09-2.11c-0.04-0.12-0.06-0.23-0.06-0.31
		c0.01-0.15,0.1-0.26,0.29-0.35c0.04-0.02,0.1-0.03,0.17-0.02c0.17,0.01,0.34,0.05,0.5,0.14c0.18,0.11,0.27,0.23,0.27,0.39
		c0,0.07-0.04,0.15-0.14,0.25s-0.14,0.19-0.15,0.27c-0.04,0.71-0.05,1.3-0.05,1.79c0.08,0.07,0.15,0.16,0.23,0.29
		c0.08,0.13,0.11,0.23,0.11,0.31c0,0.08-0.05,0.14-0.13,0.17c-0.08,0.04-0.17,0.07-0.24,0.1c-0.03,0.39-0.05,0.96-0.05,1.7
		c0,0.05,0.01,0.12,0.04,0.21s0.05,0.15,0.04,0.19c0,0.1-0.09,0.18-0.26,0.24c-0.04,0.01-0.08,0.02-0.13,0.02
		c-0.16-0.01-0.33-0.06-0.51-0.15c-0.21-0.11-0.32-0.24-0.31-0.38c0-0.06,0.03-0.15,0.08-0.25c0.05-0.1,0.1-0.2,0.15-0.3l0.05-1.27
		l-1,0.17c-0.01,0.24-0.02,0.58-0.03,1.02c-0.01,0.44-0.02,0.66-0.02,0.67c0,0.06,0.01,0.15,0.04,0.27
		c0.03,0.12,0.04,0.21,0.04,0.27c0,0.1-0.04,0.18-0.11,0.24c-0.07,0.06-0.16,0.09-0.27,0.08c-0.12,0-0.24-0.04-0.36-0.11
		s-0.2-0.14-0.24-0.2c-0.04-0.07-0.06-0.12-0.06-0.15c0-0.01,0.02-0.06,0.07-0.15c0.01-0.21,0.02-0.56,0.03-1.03
		c0.01-0.48,0.02-0.78,0.03-0.92c0-0.01-0.06-0.12-0.17-0.32C42.18,51.4,42.16,51.29,42.18,51.19z"/>
	<polygon points="44.76,42.73 44.69,44.78 44.67,45.16 44.67,45.42 47.63,45.52 47.64,45.27 47.66,44.78 47.73,42.84 	"/>
	<path d="M42.41,51.83c0,0.13-0.01,0.44-0.03,0.92c-0.01,0.48-0.02,0.82-0.03,1.03c-0.04,0.09-0.07,0.14-0.07,0.15
		c0,0.03,0.02,0.08,0.06,0.15c0.04,0.07,0.12,0.14,0.24,0.2s0.24,0.11,0.36,0.11c0.11,0,0.2-0.02,0.27-0.08
		c0.07-0.06,0.11-0.14,0.11-0.24c0-0.05-0.01-0.14-0.04-0.27c-0.03-0.12-0.04-0.22-0.04-0.27c0,0,0.01-0.23,0.02-0.67
		c0.01-0.44,0.02-0.78,0.03-1.02l1-0.17l-0.05,1.27c-0.05,0.1-0.1,0.2-0.15,0.3c-0.05,0.1-0.08,0.18-0.08,0.25
		c-0.01,0.14,0.1,0.27,0.31,0.38c0.18,0.09,0.35,0.15,0.51,0.15c0.05,0,0.1,0,0.13-0.02c0.17-0.06,0.26-0.14,0.26-0.24
		c0-0.04-0.01-0.1-0.04-0.19s-0.05-0.16-0.04-0.21c0-0.74,0.01-1.3,0.05-1.7c0.08-0.03,0.16-0.07,0.24-0.1
		c0.08-0.04,0.13-0.09,0.13-0.17c0-0.08-0.03-0.18-0.11-0.31c-0.08-0.13-0.15-0.22-0.23-0.29c0-0.48,0.01-1.08,0.05-1.79
		c0-0.08,0.05-0.17,0.15-0.27s0.14-0.18,0.14-0.25c0-0.15-0.09-0.28-0.27-0.39c-0.16-0.09-0.33-0.14-0.5-0.14
		c-0.07,0-0.13,0-0.17,0.02c-0.19,0.09-0.28,0.2-0.29,0.35c0,0.08,0.02,0.18,0.06,0.31c-0.08,0.8-0.11,1.51-0.09,2.11
		c-0.16,0.04-0.48,0.09-0.97,0.16c-0.01-0.38,0.02-0.97,0.08-1.75c0-0.09,0.05-0.2,0.14-0.33c0.09-0.13,0.14-0.23,0.14-0.3
		c0-0.03,0-0.07-0.02-0.11c-0.08-0.21-0.31-0.32-0.69-0.34c-0.12,0-0.21,0.01-0.27,0.03c-0.15,0.07-0.23,0.16-0.24,0.26
		c0,0.05,0.02,0.13,0.06,0.22c-0.04,0.41-0.07,1.2-0.1,2.38c-0.05,0.03-0.1,0.07-0.15,0.1c-0.05,0.03-0.08,0.08-0.09,0.13
		c-0.02,0.1,0,0.21,0.06,0.32C42.35,51.71,42.41,51.82,42.41,51.83z"/>
	<path d="M46.49,49.7c0.14,0.06,0.27,0.09,0.4,0.1c0.09,0,0.17-0.01,0.23-0.04c0.06-0.03,0.1-0.1,0.1-0.2
		c-0.01-0.17-0.01-0.28,0-0.33s0.04-0.14,0.08-0.27c0.03-0.11,0.05-0.18,0.05-0.23c0-0.04,0-0.06-0.02-0.07
		c-0.09-0.09-0.24-0.14-0.46-0.15c-0.2-0.01-0.34,0.02-0.42,0.07c-0.06,0.04-0.09,0.12-0.08,0.25c0,0.16,0,0.26-0.01,0.29
		c-0.01,0.04-0.03,0.09-0.06,0.15c-0.03,0.06-0.05,0.11-0.05,0.14C46.25,49.53,46.33,49.63,46.49,49.7z"/>
	<path d="M46.64,54.42c0.14,0.01,0.28-0.03,0.4-0.1c0.08-0.05,0.12-0.12,0.13-0.22c0-0.07-0.02-0.19-0.07-0.38s-0.07-0.32-0.07-0.42
		l0.08-2.17c0-0.09,0.05-0.21,0.13-0.35c0.08-0.14,0.12-0.25,0.13-0.32c0-0.05-0.01-0.11-0.05-0.16s-0.12-0.11-0.25-0.15
		c-0.13-0.05-0.26-0.07-0.4-0.08s-0.22,0.02-0.28,0.06c-0.12,0.11-0.19,0.25-0.19,0.41c0,0.05,0,0.13,0.01,0.24
		c0.01,0.11,0.01,0.2,0.01,0.27c-0.01,0.18-0.02,0.47-0.04,0.87c-0.02,0.4-0.04,0.69-0.04,0.87c-0.03,0.78,0,1.25,0.1,1.42
		C46.32,54.35,46.45,54.41,46.64,54.42z"/>
	<path d="M48.66,52.52c0.12,0,0.22-0.02,0.29-0.07s0.12-0.13,0.12-0.22c0-0.05-0.01-0.15-0.04-0.27c-0.03-0.13-0.05-0.23-0.04-0.3
		l0.09-2.45c0-0.06,0.02-0.14,0.06-0.24s0.06-0.17,0.06-0.22c0-0.04,0-0.07-0.01-0.1c-0.04-0.18-0.24-0.28-0.59-0.29
		c-0.19-0.01-0.32,0.02-0.37,0.08c-0.08,0.08-0.13,0.55-0.16,1.4c-0.02,0.66-0.03,1.29,0,1.91c0,0.04,0,0.1-0.01,0.17
		c-0.01,0.07-0.02,0.11-0.02,0.14c0,0.07,0.02,0.14,0.06,0.2C48.21,52.42,48.4,52.51,48.66,52.52z"/>
	<path d="M48.62,54.47c0.15,0.01,0.25-0.04,0.31-0.12c0.04-0.06,0.06-0.13,0.06-0.21c-0.01-0.16-0.01-0.23-0.01-0.22
		c0-0.05,0.01-0.13,0.04-0.23c0.02-0.1,0.03-0.17,0.03-0.21c0-0.06-0.01-0.12-0.03-0.18c-0.09-0.21-0.3-0.33-0.63-0.34
		c-0.18-0.01-0.29,0.04-0.34,0.13c-0.02,0.04-0.03,0.09-0.01,0.15c0.01,0.09,0.02,0.14,0.02,0.16c0,0.08,0,0.18-0.02,0.3
		c-0.01,0.14-0.02,0.23-0.02,0.26c0,0.1,0.01,0.18,0.04,0.23C48.17,54.36,48.37,54.46,48.62,54.47z"/>
	<path d="M42.29,13.9c4.5-0.26,6.28,2.97,6.35,3.11c0.2,0.37,0.58,0.58,0.97,0.58c0.17,0,0.34-0.04,0.5-0.12
		c0.53-0.28,0.74-0.93,0.47-1.46c-0.1-0.19-2.43-4.62-8.41-4.28c-0.6,0.03-1.06,0.55-1.02,1.15C41.17,13.47,41.68,13.93,42.29,13.9z
		"/>
	<path d="M47.55,34.97c-0.25-0.31-0.64-0.43-1.01-0.37c-0.18,0.03-0.36,0.09-0.52,0.21c-0.05,0.04-5.53,4.36-13.25,1.66
		c-0.1-0.03-0.19-0.03-0.29-0.04c-0.48-0.03-0.93,0.24-1.1,0.71c-0.2,0.57,0.1,1.19,0.67,1.39c0.01,0,0.02,0.01,0.03,0.01
		c2.1,0.73,4.05,1.01,5.81,1.01c5.64,0,9.3-2.88,9.5-3.04c0.07-0.05,0.11-0.12,0.16-0.19C47.85,35.92,47.88,35.37,47.55,34.97z"/>
</g>
</svg>
