<?xml version="1.0" encoding="utf-8"?>
<!-- Generator: Adobe Illustrator 27.8.1, SVG Export Plug-In . SVG Version: 6.00 Build 0)  -->
<svg version="1.1" id="Layer_1" xmlns="http://www.w3.org/2000/svg" xmlns:xlink="http://www.w3.org/1999/xlink" x="0px" y="0px"
	 viewBox="0 0 75 61.31" style="enable-background:new 0 0 75 61.31;" xml:space="preserve">
<style type="text/css">
	.st0{fill:#CFD1D2;}
	.st1{fill:#E11E26;}
	.st2{fill:#1DB954;}
	.st3{fill:#228CCE;}
	.st4{fill:#F8B318;}
	.st5{fill:#FFFFFF;}
	.st6{fill:none;}
	.st7{fill:#D69513;}
	.st8{fill:url(#SVGID_1_);}
	.st9{fill:#F5EFE9;}
	.st10{fill:#186F9B;}
	.st11{fill:#231F20;}
	.st12{fill:#B21823;}
	.st13{fill:#2E9346;}
	.st14{fill:#E8E8E8;}
	.st15{fill:#A51620;}
</style>
<g>
	<path class="st6" d="M28.1,27.49c-1.23-0.34-2.29-0.75-3.21-1.19C25.81,26.74,26.87,27.14,28.1,27.49
		c1.13,0.31,2.39,0.57,3.82,0.76C30.5,28.06,29.23,27.8,28.1,27.49z"/>
	<path class="st6" d="M24.89,26.29c-1.22-0.59-2.19-1.24-2.94-1.87C22.71,25.06,23.67,25.71,24.89,26.29z"/>
	<path class="st6" d="M36.68,28.54L36.68,28.54c-1.32,0-2.54-0.06-3.67-0.17C34.15,28.47,35.36,28.53,36.68,28.54L36.68,28.54z"/>
	<path class="st6" d="M40.89,30.24c-1.54,0-2.95-0.08-4.23-0.23C37.94,30.16,39.34,30.24,40.89,30.24z"/>
	<path class="st6" d="M36.65,30.02c-1.28-0.14-2.45-0.35-3.5-0.6C34.21,29.67,35.37,29.87,36.65,30.02z"/>
	<path class="st6" d="M20.96,23.48c-0.56-0.61-0.94-1.17-1.2-1.61C20.02,22.31,20.4,22.87,20.96,23.48z"/>
	<path class="st4" d="M56.91,36.28l-2.31-0.51c0.1,1,0.04,2.16-0.15,3.44c-0.39,2.65-2.99,6.32-8.81,4.93
		c-4.61-1.1-7.18-5.7-7.28-8.76c-0.02-0.05-0.03-0.1-0.03-0.16c0,0,0.01-0.67-0.42-1.1c-0.26-0.27-0.66-0.41-1.17-0.41
		c-0.52,0-0.92,0.14-1.18,0.41c-0.42,0.42-0.41,1.05-0.41,1.06c0,0.06-0.01,0.11-0.03,0.16c-0.09,3.07-2.66,7.69-7.29,8.8
		c-5.82,1.39-8.42-2.28-8.81-4.93c-0.19-1.28-0.25-2.44-0.15-3.44l-2.31,0.51c-0.03,0.01-0.06,0.01-0.09,0.01v20
		c0,2.71,2.2,4.91,4.91,4.91h30.7c2.71,0,4.91-2.2,4.91-4.91v-20h0C56.96,36.29,56.93,36.28,56.91,36.28z M28.55,48.18
		c0.11-0.24,0.32-0.31,0.57-0.37c0.75-0.17,1.44-0.48,2.1-0.87c0.69-0.4,1.35-0.84,2.02-1.28c0.5-0.32,1.02-0.58,1.6-0.71
		c0.64-0.14,1.24-0.01,1.78,0.35c0.09,0.06,0.14,0.06,0.24,0c0.65-0.42,1.34-0.51,2.08-0.28c0.59,0.19,1.12,0.5,1.63,0.86
		c0.9,0.63,1.84,1.21,2.87,1.62c0.34,0.14,0.7,0.24,1.06,0.33c0.21,0.05,0.33,0.18,0.43,0.34c0,0.09,0,0.17,0,0.26
		c-0.12,0.14-0.21,0.29-0.35,0.4c-0.79,0.67-1.73,1.04-2.75,1.19c-1.58,0.24-3.09-0.04-4.57-0.6c-0.16-0.06-0.3-0.16-0.45-0.24
		c-0.04-0.02-0.1-0.03-0.12-0.02c-0.57,0.39-1.24,0.53-1.89,0.69c-0.85,0.21-1.72,0.3-2.6,0.23c-1.23-0.1-2.37-0.46-3.32-1.27
		c-0.13-0.11-0.22-0.25-0.32-0.38C28.55,48.35,28.55,48.26,28.55,48.18z M46.51,53.56c-0.33,0.27-0.82,0.22-1.1-0.11l-0.83-1.01
		c-1.42,0.99-5.09,3.19-9.83,3.19c-2.35,0-4.95-0.54-7.68-2.03c-0.38-0.21-0.52-0.68-0.31-1.06c0.21-0.38,0.68-0.52,1.06-0.31
		c8.87,4.84,16.31-1.4,16.39-1.46c0.16-0.14,0.36-0.2,0.58-0.18c0.21,0.02,0.4,0.12,0.53,0.28l1.3,1.59
		C46.89,52.8,46.84,53.29,46.51,53.56z"/>
	<path class="st4" d="M19.84,33.16c1.09-1.27,2.34-1.9,7.6-1.86c0,0,0.89-0.05,2.05,0.03h14.49c1.16-0.08,2.05-0.03,2.05-0.03
		c5.26-0.04,6.51,0.59,7.6,1.86c0.41,0.47,0.68,1.07,0.84,1.77l2.53,0.55v-9.89c0-0.58-0.11-1.14-0.29-1.66
		c-0.64,0.86-1.51,1.8-2.68,2.69s-2.66,1.71-4.53,2.35c-2.24,0.77-5.03,1.27-8.5,1.28l0,0c-0.02,0-0.03,0-0.05,0
		c-0.02,0-0.03,0-0.05,0l0,0c-1.54,0-2.95-0.08-4.23-0.23s-2.45-0.35-3.5-0.6c-2.1-0.5-3.75-1.19-5.05-1.93
		c-1.23-0.34-2.29-0.75-3.21-1.19c-1.22-0.59-2.19-1.24-2.94-1.87c-0.38-0.32-0.71-0.63-0.99-0.94c-0.56-0.61-0.94-1.17-1.2-1.61
		c-0.19-0.33-0.31-0.6-0.37-0.77c-1.72,0.76-2.92,2.48-2.92,4.49v9.89l2.53-0.55C19.17,34.23,19.44,33.64,19.84,33.16z"/>
	<path class="st4" d="M33.13,32.12c0.66,0.3,1.22,0.7,1.57,1.24c0.06,0.1,0.11,0.22,0.16,0.34c0.04-0.05,0.07-0.1,0.12-0.15
		c0.43-0.44,1.02-0.66,1.77-0.66c0.74,0,1.33,0.22,1.75,0.66c0.04,0.05,0.08,0.1,0.12,0.14c0.05-0.12,0.1-0.24,0.16-0.34
		c0.35-0.54,0.91-0.94,1.57-1.24H33.13z"/>
	<path class="st7" d="M52.88,23.06c-0.08,0.1-0.17,0.2-0.26,0.3c-0.18,0.2-0.38,0.41-0.6,0.62c-0.44,0.42-0.98,0.86-1.61,1.28
		c-0.32,0.21-0.66,0.42-1.03,0.63c-2.6,1.44-6.57,2.63-12.59,2.65l0,0c-0.02,0-0.03,0-0.05,0s-0.03,0-0.05,0v0
		c-1.32,0-2.54-0.06-3.67-0.17c-0.38-0.04-0.74-0.08-1.1-0.12c-1.42-0.18-2.69-0.44-3.82-0.76c1.3,0.74,2.95,1.43,5.05,1.93
		c1.05,0.25,2.21,0.46,3.5,0.6s2.69,0.22,4.23,0.23l0,0c0.02,0,0.03,0,0.05,0c0.02,0,0.03,0,0.05,0l0,0
		c3.47-0.01,6.26-0.51,8.5-1.28c1.87-0.64,3.35-1.47,4.53-2.35s2.05-1.82,2.68-2.69c-0.45-1.26-1.41-2.28-2.63-2.82
		C53.94,21.44,53.6,22.18,52.88,23.06z"/>
	<path d="M20.96,23.48c0.28,0.3,0.61,0.62,0.99,0.94c0.76,0.64,1.72,1.29,2.94,1.87c0.92,0.44,1.98,0.85,3.21,1.19
		c1.13,0.31,2.39,0.57,3.82,0.76c0.36,0.05,0.72,0.09,1.1,0.12c1.13,0.11,2.35,0.17,3.67,0.17l0,0c0.02,0,0.03,0,0.05,0
		s0.03,0,0.05,0l0,0c6.01-0.01,9.98-1.21,12.59-2.65c0.37-0.21,0.72-0.42,1.03-0.63c0.64-0.43,1.17-0.86,1.61-1.28
		c0.22-0.21,0.42-0.42,0.6-0.62c0.09-0.1,0.18-0.2,0.26-0.3c0.72-0.88,1.06-1.61,1.19-1.95l0,0c-0.17-0.08-0.35-0.15-0.53-0.2
		c-0.46-0.14-0.95-0.22-1.46-0.22h-7.35H21.39c-0.51,0-1,0.08-1.46,0.22c-0.18,0.06-0.36,0.13-0.53,0.2
		c0.07,0.17,0.18,0.43,0.37,0.77C20.02,22.31,20.4,22.87,20.96,23.48z"/>
	<path class="st4" d="M19.76,20h12.55h3.83h17.51c0.27,0,0.49-0.22,0.49-0.49v-0.26c0-0.27-0.22-0.49-0.49-0.49H36.14h-3.83H19.76
		c-0.24,0-0.43,0.19-0.43,0.43v0.38C19.32,19.81,19.52,20,19.76,20z"/>
	<path d="M36.9,0h-0.32C15.02,0,11.56,9.17,11.7,12.17c0.14,3,7.63,5.99,7.63,5.99h7.03h10.22h17.57c0,0,7.49-3,7.63-5.99
		C61.91,9.17,58.55,0,36.9,0z M44.41,10.25c0,0.32-0.26,0.59-0.59,0.59H38.5c0.04,0.11,0.07,0.23,0.09,0.35h4.56v0.09
		c0,0.32-0.26,0.59-0.59,0.59h-3.99c-0.02,0.1-0.05,0.19-0.09,0.28h3.42v0.09c0,0.32-0.26,0.59-0.59,0.59h-3.27
		c-0.34,0.34-0.82,0.55-1.33,0.55c-0.52,0-0.99-0.21-1.34-0.55h-3.22c-0.32,0-0.59-0.26-0.59-0.59v-0.09h3.36
		c-0.03-0.09-0.07-0.18-0.09-0.28h-3.94c-0.32,0-0.59-0.26-0.59-0.59v-0.09h4.51c0.02-0.12,0.05-0.24,0.09-0.35h-5.27
		c-0.32,0-0.59-0.26-0.59-0.59v-0.09h6.26c0.35-0.37,0.84-0.6,1.39-0.6c0.56,0,1.07,0.25,1.42,0.64v-0.04h6.29V10.25z"/>
	<path d="M36.71,10.53c-0.51,0-0.93,0.42-0.93,0.93c0,0.51,0.42,0.93,0.93,0.93c0.51,0,0.93-0.42,0.93-0.93
		C37.63,10.95,37.22,10.53,36.71,10.53z"/>
	<path class="st5" d="M38.12,10.2c-0.35-0.39-0.85-0.64-1.42-0.64c-0.55,0-1.04,0.23-1.39,0.6h-6.26v0.09
		c0,0.32,0.26,0.59,0.59,0.59h5.27c-0.04,0.11-0.07,0.23-0.09,0.35h-4.51v0.09c0,0.32,0.26,0.59,0.59,0.59h3.94
		c0.02,0.1,0.05,0.19,0.09,0.28h-3.36v0.09c0,0.32,0.26,0.59,0.59,0.59h3.22c0.34,0.34,0.82,0.55,1.34,0.55
		c0.52,0,0.99-0.21,1.33-0.55h3.27c0.32,0,0.59-0.26,0.59-0.59v-0.09h-3.42c0.03-0.09,0.07-0.18,0.09-0.28h3.99
		c0.32,0,0.59-0.26,0.59-0.59v-0.09h-4.56c-0.02-0.12-0.05-0.24-0.09-0.35h5.32c0.32,0,0.59-0.26,0.59-0.59v-0.09h-6.29V10.2z
		 M36.71,12.39c-0.51,0-0.93-0.42-0.93-0.93c0-0.51,0.42-0.93,0.93-0.93c0.51,0,0.93,0.42,0.93,0.93
		C37.63,11.97,37.22,12.39,36.71,12.39z"/>
	<path d="M57.08,35.5l-0.08-0.02l-2.53-0.55c-0.16-0.7-0.43-1.29-0.84-1.77c-1.09-1.27-2.34-1.9-7.6-1.86c0,0-0.89-0.05-2.05,0.03
		H29.49c-1.16-0.08-2.05-0.03-2.05-0.03c-5.26-0.04-6.51,0.59-7.6,1.86c-0.41,0.47-0.68,1.07-0.84,1.77l-2.53,0.55l-0.08,0.02
		c-0.22,0.05-0.35,0.26-0.3,0.47c0.04,0.19,0.21,0.31,0.39,0.31c0,0,0,0,0,0c0.03,0,0.06,0,0.09-0.01l2.31-0.51
		c-0.1,1-0.04,2.16,0.15,3.44c0.39,2.65,2.99,6.32,8.81,4.93c4.63-1.11,7.2-5.73,7.29-8.8c0.02-0.05,0.03-0.1,0.03-0.16
		c0-0.01-0.01-0.64,0.41-1.06c0.27-0.27,0.67-0.41,1.18-0.41c0.51,0,0.9,0.14,1.17,0.41c0.43,0.43,0.42,1.1,0.42,1.1
		c0,0.06,0.01,0.11,0.03,0.16c0.11,3.07,2.68,7.66,7.28,8.76c5.82,1.39,8.42-2.28,8.81-4.93c0.19-1.28,0.25-2.44,0.15-3.44
		l2.31,0.51c0.03,0.01,0.06,0.01,0.08,0.01h0c0.18,0,0.35-0.13,0.39-0.31C57.43,35.76,57.29,35.55,57.08,35.5z M33.63,37.22H20.77
		v-1.13h12.86V37.22z M38.77,33.37c-0.06,0.1-0.11,0.22-0.16,0.34c-0.04-0.05-0.07-0.1-0.12-0.14c-0.42-0.44-1.01-0.66-1.75-0.66
		c-0.75,0-1.34,0.22-1.77,0.66c-0.05,0.05-0.08,0.1-0.12,0.15c-0.05-0.12-0.1-0.24-0.16-0.34c-0.35-0.54-0.91-0.94-1.57-1.24h7.21
		C39.68,32.42,39.12,32.82,38.77,33.37z M53.15,37.52c-0.2,0.12-0.42,0.16-0.65,0.17c-0.51,0.01-1.02,0-1.52-0.01
		c-0.49-0.01-0.98-0.02-1.46-0.02c-0.06,0-0.13,0.01-0.19,0.03c-0.86,0.27-1.71,0.55-2.57,0.81c-0.1,0.03-0.2,0.04-0.3,0.04
		c-0.19,0-0.38-0.01-0.57-0.01c-0.16,0-0.23-0.05-0.26-0.15c-0.03-0.1,0.02-0.19,0.16-0.27c0.29-0.17,0.59-0.34,0.88-0.51
		c0.03-0.02,0.06-0.04,0.12-0.07c-0.57-0.1-1.11-0.2-1.65-0.3l-5.49-0.06l0.01-1.13l3.87,0.04c-0.1-0.56-0.2-1.12-0.3-1.68
		c-0.05-0.26,0.05-0.37,0.31-0.36c0.46,0.01,0.39-0.03,0.64,0.35c0.33,0.48,0.65,0.97,0.98,1.45c0.04,0.06,0.09,0.09,0.16,0.09
		c1.78,0.03,3.56,0.06,5.35,0.1c0.38,0.01,0.76,0.04,1.14,0.09c0.17,0.02,0.33,0.13,0.49,0.2c0.23,0.1,0.47,0.19,0.69,0.31
		c0.12,0.07,0.24,0.18,0.32,0.3C53.44,37.17,53.38,37.39,53.15,37.52z"/>
	<path d="M45.32,50.88c-0.13-0.16-0.33-0.26-0.53-0.28c-0.21-0.02-0.42,0.05-0.58,0.18c-0.07,0.06-7.51,6.3-16.39,1.46
		c-0.38-0.21-0.85-0.07-1.06,0.31c-0.21,0.38-0.07,0.85,0.31,1.06c2.73,1.49,5.34,2.03,7.68,2.03c4.74,0,8.41-2.2,9.83-3.19
		l0.83,1.01c0.27,0.33,0.76,0.38,1.1,0.11c0.33-0.27,0.38-0.76,0.11-1.1L45.32,50.88z"/>
	<rect x="20.77" y="36.09" width="12.86" height="1.13"/>
	<linearGradient id="SVGID_1_" gradientUnits="userSpaceOnUse" x1="20.7658" y1="36.6532" x2="33.6294" y2="36.6532">
		<stop  offset="0" style="stop-color:#000000"/>
		<stop  offset="1" style="stop-color:#BABCBE"/>
	</linearGradient>
	<rect x="20.77" y="36.09" class="st8" width="12.86" height="1.13"/>
	<path class="st5" d="M52.97,36.65c-0.22-0.12-0.46-0.21-0.69-0.31c-0.16-0.07-0.32-0.18-0.49-0.2c-0.38-0.05-0.76-0.08-1.14-0.09
		c-1.78-0.04-3.56-0.07-5.35-0.1c-0.08,0-0.12-0.03-0.16-0.09c-0.32-0.49-0.65-0.97-0.98-1.45c-0.26-0.38-0.18-0.34-0.64-0.35
		c-0.26-0.01-0.36,0.11-0.31,0.36c0.1,0.56,0.2,1.12,0.3,1.68l-3.87-0.04l-0.01,1.13l5.49,0.06c0.54,0.1,1.08,0.19,1.65,0.3
		c-0.05,0.03-0.08,0.05-0.12,0.07c-0.29,0.17-0.59,0.34-0.88,0.51c-0.14,0.08-0.19,0.16-0.16,0.27c0.03,0.1,0.1,0.15,0.26,0.15
		c0.19,0,0.38,0.01,0.57,0.01c0.1,0,0.21-0.01,0.3-0.04c0.86-0.27,1.71-0.54,2.57-0.81c0.06-0.02,0.13-0.03,0.19-0.03
		c0.49,0.01,0.98,0.02,1.46,0.02c0.51,0.01,1.02,0.01,1.52,0.01c0.23,0,0.45-0.05,0.65-0.17c0.23-0.14,0.3-0.36,0.14-0.58
		C53.21,36.83,53.09,36.72,52.97,36.65z"/>
	<path d="M32.2,50.09c0.88,0.07,1.75-0.02,2.6-0.23c0.65-0.16,1.32-0.31,1.89-0.69c0.03-0.02,0.09,0,0.12,0.02
		c0.15,0.08,0.29,0.18,0.45,0.24c1.47,0.56,2.99,0.84,4.57,0.6c1.02-0.15,1.95-0.52,2.75-1.19c0.13-0.11,0.23-0.27,0.35-0.4
		c0-0.09,0-0.17,0-0.26c-0.1-0.17-0.22-0.29-0.43-0.34c-0.36-0.09-0.72-0.19-1.06-0.33c-1.03-0.41-1.97-0.99-2.87-1.62
		c-0.51-0.36-1.04-0.67-1.63-0.86c-0.74-0.23-1.43-0.14-2.08,0.28c-0.09,0.06-0.15,0.06-0.24,0c-0.54-0.36-1.14-0.49-1.78-0.35
		c-0.58,0.12-1.1,0.39-1.6,0.71c-0.67,0.43-1.34,0.87-2.02,1.28c-0.66,0.39-1.35,0.7-2.1,0.87c-0.25,0.06-0.45,0.13-0.57,0.37
		c0,0.09,0,0.17,0,0.26c0.11,0.13,0.2,0.28,0.32,0.38C29.83,49.63,30.96,50,32.2,50.09z"/>
</g>
</svg>
