<?xml version="1.0" encoding="utf-8"?>
<!-- Generator: Adobe Illustrator 27.8.1, SVG Export Plug-In . SVG Version: 6.00 Build 0)  -->
<svg version="1.1" id="Layer_1" xmlns="http://www.w3.org/2000/svg" xmlns:xlink="http://www.w3.org/1999/xlink" x="0px" y="0px"
	 viewBox="0 0 75 58.94" style="enable-background:new 0 0 75 58.94;" xml:space="preserve">
<style type="text/css">
	.st0{fill:#CFD1D2;}
	.st1{fill:#E11E26;}
	.st2{fill:#1DB954;}
	.st3{fill:#228CCE;}
	.st4{fill:#F8B318;}
	.st5{fill:#FFFFFF;}
	.st6{fill:none;}
	.st7{fill:#D69513;}
	.st8{fill:url(#SVGID_1_);}
	.st9{fill:#F5EFE9;}
	.st10{fill:#186F9B;}
	.st11{fill:#231F20;}
	.st12{fill:#B21823;}
	.st13{fill:#2E9346;}
	.st14{fill:#E8E8E8;}
	.st15{fill:#A51620;}
</style>
<g>
	<path class="st3" d="M27.02,21.35c0,0.4-0.22,0.73-0.54,0.92c0.29,0.32,0.49,0.91,0.64,1.61c0.15-0.68,0.38-1.26,0.7-1.59
		c-0.34-0.18-0.58-0.53-0.58-0.95c0-0.45,0.28-0.84,0.67-1.01v-0.68h-1.56v0.68C26.75,20.51,27.02,20.9,27.02,21.35z"/>
	<polygon class="st3" points="46.61,19.67 44.92,14.47 44.91,14.47 	"/>
	<path class="st3" d="M67.91,22.18c-0.49-1.5-1.88-2.51-3.46-2.51H46.61l-9.42-4.33c-0.01,0-0.02,0-0.02,0
		c-0.02-0.01-1.59-0.65-3.66-0.41c-2.05,0.24-3.22,1.19-3.23,1.2c-0.09,0.08-0.2,0.11-0.32,0.11c-0.06,0-0.12-0.01-0.18-0.03
		l-1.12,3.46h0.09v0.68c0.39,0.16,0.67,0.55,0.67,1.01c0,0.4-0.22,0.73-0.54,0.92c1.08,1.18,0.99,6.26,0.99,6.26
		s-0.67-0.46-1.55-0.46c-0.32,0-0.61,0.06-0.85,0.14c0,0.2,0,0.32,0,0.32s-0.13-0.09-0.34-0.18c-0.21,0.1-0.34,0.18-0.34,0.18
		s0-0.12-0.01-0.32c-0.24-0.08-0.54-0.14-0.86-0.14c-0.87,0-1.53,0.46-1.53,0.46s-0.21-4.99,1.02-6.23
		c-0.34-0.18-0.58-0.53-0.58-0.95c0-0.45,0.28-0.84,0.67-1.01v-0.68h-14.7c-1.58,0-2.97,1.02-3.46,2.51
		c-0.49,1.5,0.05,3.14,1.32,4.07l14.43,10.49L17.6,53.7c-0.49,1.5,0.05,3.14,1.32,4.07c1.28,0.93,3,0.93,4.28,0l14.43-10.49
		l14.43,10.49c0.64,0.46,1.39,0.69,2.14,0.69c0.75,0,1.5-0.23,2.14-0.69c1.28-0.93,1.81-2.57,1.32-4.07l-5.51-16.97l14.43-10.49
		C67.86,25.32,68.4,23.68,67.91,22.18z M38.71,17.31c2.64,0.27,3.52,2.52,2.06,3.74s-4.75,0.88-5.93-0.62
		C33.66,18.94,36.08,17.04,38.71,17.31z M34.74,44.01c-4.91-0.48-7.61-5.93-6.5-8.47s4.73,0.82,7.85,2.1
		c3.12,1.28,8.86,0.26,9.17,2.75C45.58,42.89,39.65,44.49,34.74,44.01z M50,33.77c-2.61,0.47-5.03,0.65-7.18,0.65
		c-5.89,0-9.79-1.31-10.01-1.38c-0.28-0.1-0.43-0.4-0.33-0.68c0.1-0.28,0.4-0.43,0.68-0.33c0.02,0.01,0.65,0.21,1.75,0.46
		c-1.16-11.37,7.12-12.78,8.35-3.75c0.04,0.33,0.49,0.4,0.64,0.1c2.62-5.24,7.19-1.04,6.14,3.89c0.2,0.05,0.36,0.21,0.4,0.42
		C50.49,33.44,50.29,33.72,50,33.77z M47.42,23.98c-2.34-0.98-2.82-3.31-1.15-4.02s4.12,0.43,4.78,2.12
		C51.71,23.77,49.75,24.96,47.42,23.98z"/>
	<path class="st9" d="M49.81,32.72c0.08-0.01,0.15-0.01,0.22,0.01c1.05-4.92-3.52-9.13-6.14-3.89c-0.15,0.3-0.59,0.23-0.64-0.1
		c-1.23-9.03-9.51-7.62-8.35,3.75C37.59,33.09,43.12,33.94,49.81,32.72z M47.57,28.69c1.04,0.52,1.13,1.96,0.16,2.6
		c-0.97,0.64-2.26-0.01-2.34-1.16C45.32,28.97,46.53,28.17,47.57,28.69z M40.58,31.49c-1.25,0.83-2.93-0.01-3.02-1.51
		s1.47-2.54,2.82-1.87C41.72,28.79,41.84,30.66,40.58,31.49z"/>
	<path d="M40.38,28.12c-1.34-0.67-2.91,0.37-2.82,1.87s1.77,2.34,3.02,1.51C41.84,30.66,41.72,28.79,40.38,28.12z"/>
	<path d="M47.73,31.29c0.97-0.64,0.88-2.09-0.16-2.6c-1.04-0.52-2.25,0.28-2.18,1.44C45.46,31.28,46.76,31.93,47.73,31.29z"/>
	<path d="M40.77,21.06c1.46-1.22,0.58-3.47-2.06-3.74c-2.64-0.27-5.05,1.63-3.87,3.13C36.02,21.93,39.31,22.28,40.77,21.06z"/>
	<path d="M46.27,19.95c-1.68,0.71-1.19,3.04,1.15,4.02c2.34,0.98,4.3-0.2,3.63-1.9C50.39,20.38,47.95,19.24,46.27,19.95z"/>
	<path class="st9" d="M36.09,37.64c-3.12-1.28-6.74-4.65-7.85-2.1s1.58,7.99,6.5,8.47c4.91,0.48,10.84-1.12,10.52-3.62
		C44.95,37.9,39.21,38.92,36.09,37.64z"/>
	<path class="st10" d="M50.04,32.73c-0.07-0.02-0.15-0.02-0.22-0.01c-6.7,1.22-12.22,0.37-14.9-0.23c-1.1-0.25-1.73-0.45-1.75-0.46
		c-0.28-0.09-0.58,0.05-0.68,0.33c-0.1,0.28,0.05,0.58,0.33,0.68c0.22,0.08,4.12,1.38,10.01,1.38c2.15,0,4.58-0.17,7.18-0.65
		c0.29-0.05,0.48-0.33,0.43-0.62C50.39,32.94,50.23,32.78,50.04,32.73z"/>
	<path class="st10" d="M44.42,14.37c0,0-0.79-0.62-3.23-0.34c-2.55,0.3-3.47,1.19-3.48,1.2c-0.14,0.14-0.34,0.18-0.52,0.11
		l9.42,4.33l-1.7-5.2C44.74,14.52,44.55,14.49,44.42,14.37z"/>
	<path d="M30.28,16.12c0.01-0.01,1.18-0.96,3.23-1.2c2.07-0.24,3.64,0.4,3.66,0.41c0.01,0,0.02,0,0.02,0
		c0.18,0.07,0.39,0.02,0.52-0.11c0.01-0.01,0.93-0.9,3.48-1.2c2.44-0.29,3.23,0.34,3.23,0.34c0.13,0.13,0.32,0.15,0.49,0.1
		c0,0,0,0,0.01,0c0.02-0.01,0.05,0,0.07-0.01c0.19-0.09,0.3-0.29,0.27-0.5l-0.6-5.11c-0.02-0.18-0.14-0.33-0.3-0.4
		c-0.12-0.05-2.92-1.16-8.1-0.56c-5.21,0.61-7.15,2.33-7.23,2.41c-0.12,0.11-0.18,0.26-0.16,0.42l0.6,5.09
		c0.02,0.18,0.14,0.33,0.31,0.4c0,0,0.01,0,0.01,0c0.06,0.02,0.12,0.03,0.18,0.03C30.08,16.24,30.19,16.2,30.28,16.12z"/>
	<path d="M25.93,7.29c0.44,0,0.42,0.15,0.42,0.15v1.1l2.62,0.67c0.04,0.01,0.08,0.01,0.12,0.01c0.09,0,0.19-0.03,0.27-0.08
		c0.03-0.02,2.88-1.8,7.09-2.3c4.23-0.49,7.76,0.55,7.8,0.56c0.13,0.04,0.26,0.02,0.38-0.04l5.19-2.79c0.18-0.1,0.28-0.29,0.26-0.5
		c-0.03-0.2-0.17-0.37-0.37-0.42L35.96,0.23c-0.12-0.03-0.24-0.01-0.35,0.04L23.01,6.79c-0.18,0.09-0.29,0.29-0.26,0.5
		c0.02,0.2,0.17,0.37,0.37,0.42l2.4,0.61V7.44C25.51,7.44,25.5,7.29,25.93,7.29z"/>
	<path class="st10" d="M26.8,28.52c0,0,0.13-0.09,0.34-0.18c-0.1-0.05-0.21-0.09-0.34-0.14C26.8,28.4,26.8,28.52,26.8,28.52z"/>
	<path class="st10" d="M27.24,21.35c0,0.41,0.24,0.76,0.58,0.95c-0.32,0.32-0.55,0.91-0.7,1.59c0.32,1.53,0.36,3.55,0.36,4.32
		c0.24-0.08,0.53-0.14,0.85-0.14c0.87,0,1.55,0.46,1.55,0.46s0.09-5.07-0.99-6.26c0.32-0.19,0.54-0.52,0.54-0.92
		c0-0.45-0.28-0.84-0.67-1.01v-0.68h-0.09h-0.75v0.68C27.52,20.51,27.24,20.9,27.24,21.35z"/>
	<path class="st4" d="M24.84,21.35c0,0.41,0.24,0.76,0.58,0.95c-1.24,1.23-1.02,6.23-1.02,6.23s0.66-0.46,1.53-0.46
		c0.32,0,0.62,0.06,0.86,0.14c0.13,0.04,0.25,0.09,0.34,0.14c0.21,0.1,0.34,0.18,0.34,0.18s0-0.12,0-0.32
		c0-0.77-0.04-2.79-0.36-4.32c-0.15-0.7-0.35-1.3-0.64-1.61c0.32-0.19,0.54-0.52,0.54-0.92c0-0.45-0.28-0.84-0.67-1.01v-0.68V8.54
		v-1.1c0,0,0.02-0.15-0.42-0.15c-0.44,0-0.42,0.15-0.42,0.15v0.88v11.34v0.68C25.12,20.51,24.84,20.9,24.84,21.35z"/>
</g>
</svg>
