<?xml version="1.0" encoding="utf-8"?>
<!-- Generator: Adobe Illustrator 27.8.1, SVG Export Plug-In . SVG Version: 6.00 Build 0)  -->
<svg version="1.1" id="Layer_1" xmlns="http://www.w3.org/2000/svg" xmlns:xlink="http://www.w3.org/1999/xlink" x="0px" y="0px"
	 viewBox="0 0 75 67.67" style="enable-background:new 0 0 75 67.67;" xml:space="preserve">
<style type="text/css">
	.st0{fill:#CFD1D2;}
	.st1{fill:#E11E26;}
	.st2{fill:#1DB954;}
	.st3{fill:#228CCE;}
	.st4{fill:#F8B318;}
	.st5{fill:#FFFFFF;}
	.st6{fill:none;}
	.st7{fill:#D69513;}
	.st8{fill:url(#SVGID_1_);}
	.st9{fill:#F5EFE9;}
	.st10{fill:#186F9B;}
	.st11{fill:#231F20;}
	.st12{fill:#B21823;}
	.st13{fill:#2E9346;}
	.st14{fill:#E8E8E8;}
	.st15{fill:#A51620;}
</style>
<g>
	<path class="st0" d="M19.29,19.91c2.13,2.99,5.7,4.61,9.36,4.25c5.3-0.43,9.24-5.07,8.81-10.37c-0.14-1.73-0.75-3.39-1.76-4.81
		c-1.91-2.8-5.08-4.47-8.47-4.46l0,0.01c-0.27,0-0.54,0.01-0.8,0.03c-5.31,0.33-9.34,4.89-9.02,10.2
		C17.53,16.62,18.18,18.41,19.29,19.91z M25.86,10c2.63-2.52,6.81-2.43,9.33,0.2c0.8,0.84,1.37,1.87,1.64,2.99
		c0.87,3.54-1.3,7.11-4.84,7.98c-3.54,0.87-7.11-1.3-7.98-4.84C23.46,14.05,24.16,11.64,25.86,10z"/>
	<path class="st0" d="M41.7,19.03c1.64,2.31,4.4,3.56,7.22,3.28c1.91-0.16,3.58-1.03,4.8-2.32v-9.45V9.82
		c-1.49-1.66-3.63-2.64-5.9-2.63c-0.21,0-0.41,0.01-0.62,0.02c-4.09,0.25-7.2,3.77-6.94,7.85C40.34,16.5,40.85,17.88,41.7,19.03z
		 M41.81,11.88c1.78-1.7,4.59-1.64,6.3,0.13c0.54,0.56,0.92,1.26,1.11,2.02c0.59,2.39-0.88,4.8-3.26,5.39
		c-2.39,0.59-4.8-0.88-5.39-3.26C40.19,14.61,40.66,12.98,41.81,11.88z"/>
	<path class="st0" d="M10.63,11.3l5.62,0.15c0.61-2.41,2.02-4.63,4.17-6.22c1.72-1.27,3.76-2.01,5.89-2.15
		c4.19-0.34,8.23,1.59,10.6,5.06c1.1,1.56,1.75,3.3,1.96,5.07c0.35-2.22,1.54-4.31,3.49-5.75c1.37-1.01,3.01-1.61,4.71-1.72
		c2.43-0.2,4.79,0.57,6.63,2.06V0.22h3.42c2.75,0,5.07,1.8,5.86,4.29C62.18,1.89,59.75,0,56.88,0H16.11c-3.54,0-6.4,2.87-6.4,6.4
		v5.66L10,11.63C10.14,11.42,10.38,11.3,10.63,11.3z"/>
	<path class="st0" d="M36.73,41.48l3.58,0.01l0,0l13.4,0.01V31.19v-9.23c-0.09,0.07-0.17,0.15-0.26,0.22
		c-1.3,0.92-2.81,1.47-4.4,1.6c-0.31,0.03-0.61,0.04-0.92,0.04l0,0c-3.03,0.01-5.88-1.46-7.63-3.93c-0.89-1.21-1.43-2.58-1.64-3.97
		c-0.37,2.99-1.93,5.81-4.58,7.69c-1.62,1.15-3.52,1.84-5.5,2.01c-0.38,0.04-0.77,0.05-1.15,0.05l0-0.01
		c-3.79,0.01-7.35-1.82-9.55-4.91c-1.73-2.35-2.39-5.15-2.09-7.84l-5-0.14l-1.29,1.93v20.39c0,3.31,2.52,6.04,5.75,6.37l21.28,0.01
		C36.74,41.48,36.73,41.48,36.73,41.48z M31.61,38.93c-0.88,0-1.43-0.04-1.51-0.05c-0.39-0.03-0.68-0.37-0.65-0.76
		c0.03-0.39,0.37-0.68,0.76-0.65c0.05,0,4,0.3,8.45-0.87c-3.79,0.36-7.63,0.19-11.39-0.55c0.67-2.75,0.73-5.61,0.17-8.39
		c0,0,13.42-1.37,15.09-0.71c1.62,0.63,2.62,3.67,2.59,8.06c0,0.22-0.13,0.41-0.32,0.5c-0.05,0.07-0.12,0.14-0.2,0.19
		C39.79,38.55,34.23,38.93,31.61,38.93L31.61,38.93z"/>
	<path class="st1" d="M57.13,0.22h-3.42V7.8c0.7,0.56,1.33,1.22,1.85,1.99c0.17,0.24,0.33,0.49,0.47,0.75h7.24V6.4V6.36
		c0-0.65-0.1-1.27-0.29-1.86C62.2,2.02,59.88,0.22,57.13,0.22z"/>
	<path class="st1" d="M54.29,10.54c-0.18-0.25-0.36-0.49-0.57-0.72v0.72H54.29z"/>
	<path class="st2" d="M63.28,35.11v-3.92h-9.56V41.5l3.32,0l-0.01,0.01h0.11c3.39,0,6.14-2.75,6.14-6.14V35.11z"/>
	<path class="st3" d="M53.72,19.99c1.38-1.47,2.16-3.49,1.99-5.66c-0.11-1.33-0.57-2.61-1.35-3.69c-0.02-0.03-0.05-0.06-0.07-0.09
		h-0.57V19.99z"/>
	<path class="st3" d="M56.49,11.46l5.55-0.15c0.25-0.01,0.49,0.12,0.63,0.33l0.6,0.9v-2h-7.24C56.21,10.84,56.36,11.14,56.49,11.46z
		"/>
	<path class="st3" d="M56.97,12.92c0.65,2.8-0.11,5.78-2.08,7.95h8.38v-5.67l-1.6-2.4L56.97,12.92z"/>
	<path class="st4" d="M53.72,21.95v9.23h9.56V20.86h-8.38C54.54,21.25,54.15,21.62,53.72,21.95z"/>
	<path class="st5" d="M45.95,19.42c2.39-0.59,3.85-3,3.26-5.39c-0.19-0.76-0.57-1.46-1.11-2.02c-1.7-1.78-4.52-1.84-6.3-0.13
		c-1.15,1.1-1.62,2.73-1.24,4.28C41.15,18.55,43.56,20.01,45.95,19.42z M43.42,13.55c0.13-0.17,0.28-0.32,0.44-0.46
		c1.31-0.93,2.98,0.17,3.01,1.98h0c0.03,1.81-1.6,2.96-2.95,2.09C42.79,16.3,42.56,14.69,43.42,13.55z"/>
	<path class="st5" d="M32,21.18c3.54-0.87,5.71-4.44,4.84-7.98c-0.28-1.12-0.84-2.16-1.64-2.99c-2.52-2.63-6.7-2.72-9.33-0.2
		c-1.7,1.63-2.41,4.05-1.84,6.34C24.89,19.88,28.46,22.05,32,21.18z M27.96,12.64c0.23-0.31,0.49-0.58,0.79-0.81
		c2.17-1.49,4.91,0.31,4.94,3.24c0.03,2.92-2.68,4.78-4.88,3.34C27,17.06,26.61,14.47,27.96,12.64z"/>
	<path d="M44.8,35.52c0.19-0.09,0.32-0.28,0.32-0.5c0.02-4.39-0.97-7.42-2.59-8.06c-1.67-0.66-15.09,0.71-15.09,0.71
		c0.56,2.77,0.51,5.64-0.17,8.39c3.76,0.73,7.6,0.91,11.39,0.55c-4.45,1.16-8.4,0.87-8.45,0.87c-0.39-0.03-0.73,0.26-0.76,0.65
		c-0.03,0.39,0.26,0.73,0.65,0.76c0.08,0.01,0.63,0.05,1.51,0.05v0c2.63,0,8.18-0.38,12.99-3.22C44.68,35.66,44.75,35.59,44.8,35.52
		z"/>
	<path d="M43.93,17.16c1.34,0.88,2.98-0.28,2.95-2.09h0c-0.03-1.81-1.71-2.91-3.01-1.98c-0.16,0.13-0.31,0.29-0.44,0.46
		C42.56,14.69,42.79,16.3,43.93,17.16z"/>
	<path d="M28.83,18.41c2.2,1.44,4.91-0.41,4.88-3.34c-0.03-2.93-2.78-4.72-4.94-3.24c-0.3,0.23-0.57,0.51-0.79,0.81
		C26.61,14.47,27,17.06,28.83,18.41z"/>
	<path d="M16,12.92c-0.3,2.69,0.35,5.49,2.09,7.84c2.2,3.09,5.76,4.92,9.55,4.91l0,0.01c0.38,0,0.76-0.02,1.15-0.05
		c1.98-0.16,3.88-0.86,5.5-2.01c2.65-1.88,4.21-4.71,4.58-7.69c0.21,1.39,0.74,2.76,1.64,3.97c1.76,2.47,4.6,3.93,7.63,3.93l0,0
		c0.3,0,0.61-0.01,0.92-0.04c1.58-0.13,3.1-0.69,4.4-1.6c0.09-0.07,0.17-0.15,0.26-0.22c0.43-0.33,0.82-0.7,1.18-1.09
		c1.96-2.17,2.72-5.15,2.08-7.95l4.7-0.13l1.6,2.4l0.23,0.35c0.23,0.34,0.69,0.42,1.03,0.19c0.33-0.23,0.42-0.67,0.2-1.01l0,0
		l-1.46-2.18l-0.6-0.9c-0.14-0.21-0.38-0.34-0.63-0.33l-5.55,0.15c-0.13-0.31-0.29-0.62-0.46-0.92c-0.14-0.25-0.3-0.51-0.47-0.75
		c-0.52-0.76-1.15-1.42-1.85-1.99c-1.84-1.49-4.2-2.26-6.63-2.06c-1.7,0.11-3.34,0.71-4.71,1.72c-1.95,1.44-3.14,3.53-3.49,5.75
		c-0.22-1.77-0.86-3.51-1.96-5.07c-2.37-3.47-6.42-5.4-10.6-5.06c-2.13,0.14-4.17,0.88-5.89,2.15c-2.15,1.59-3.57,3.81-4.17,6.22
		l-5.62-0.15c-0.25-0.01-0.49,0.12-0.63,0.33l-0.29,0.43l-1.77,2.66c-0.21,0.33-0.12,0.77,0.2,1c0.33,0.23,0.79,0.15,1.03-0.18
		l0.55-0.82L11,12.79L16,12.92z M47.2,7.22c0.21-0.02,0.41-0.02,0.62-0.02c2.27-0.01,4.41,0.96,5.9,2.63
		c0.2,0.23,0.39,0.47,0.57,0.72c0.02,0.03,0.05,0.06,0.07,0.09c0.77,1.09,1.24,2.36,1.35,3.69c0.18,2.17-0.61,4.19-1.99,5.66
		c-1.21,1.3-2.89,2.17-4.8,2.32c-2.82,0.28-5.57-0.97-7.22-3.28c-0.86-1.15-1.36-2.53-1.45-3.96C40.01,10.98,43.12,7.47,47.2,7.22z
		 M26.43,4.56c0.27-0.02,0.54-0.03,0.8-0.03l0-0.01c3.39-0.01,6.56,1.66,8.47,4.46c1.01,1.41,1.61,3.07,1.76,4.81
		c0.43,5.3-3.51,9.94-8.81,10.37c-3.66,0.37-7.23-1.26-9.36-4.25c-1.11-1.5-1.76-3.28-1.88-5.15C17.08,9.46,21.12,4.89,26.43,4.56z"
		/>
	<path d="M65.95,23.53c-0.05-0.4-0.42-0.69-0.82-0.63c-0.4,0.05-0.69,0.42-0.63,0.82c1.28,9.8,0.39,19.17-0.2,25.36
		c-0.14,1.42-0.25,2.71-0.33,3.84c-0.01,0.01-0.01,0.01-0.02,0.01c-1.27,1-2.12,4.12-1.53,5.62s2.18,0.26,2.86-2.24
		c0.31-1.15,0.32-2.16,0.12-2.83c0.08-1.21,0.21-2.66,0.37-4.27C66.35,42.96,67.25,33.5,65.95,23.53z"/>
	<path d="M9.03,50.66c-0.08-1.13-0.2-2.42-0.33-3.84c-0.59-6.2-1.48-15.56-0.2-25.36c0.05-0.4-0.23-0.77-0.63-0.82
		c-0.4-0.05-0.77,0.23-0.82,0.63c-1.3,9.97-0.4,19.43,0.19,25.69c0.15,1.61,0.29,3.06,0.37,4.27c-0.2,0.67-0.19,1.68,0.12,2.83
		c0.68,2.5,2.27,3.75,2.86,2.24s-0.25-4.63-1.53-5.62C9.04,50.67,9.04,50.67,9.03,50.66z"/>
	<path d="M57.04,41.5l-3.32,0l-13.4-0.01c-0.07,1.79-2.6,3.64-3.58,0l-21.28-0.01l-0.09,0c0,0-0.19,1.06,0.86,1.88
		c0.58,0.44,8.14,0.95,17.06,1.04l1.11,19.67l-1.09,1.84c-0.31,0.53-0.13,1.21,0.4,1.53c0.16,0.09,0.34,0.15,0.52,0.15
		c0.01,0,0.03,0,0.04,0c0.39,0,0.76-0.21,0.96-0.55l1.26-2.13c0.11-0.19,0.17-0.41,0.15-0.63L35.53,44.4c1.95,0,3.95-0.01,5.93-0.06
		L40.2,64.11c-0.03,0.41,0.17,0.79,0.52,1.01l3.65,2.32c0.17,0.1,0.36,0.16,0.55,0.17c0.01,0,0.03,0,0.04,0
		c0.38,0,0.74-0.2,0.94-0.52c0.16-0.25,0.21-0.55,0.15-0.84c-0.06-0.29-0.24-0.54-0.49-0.7l-3.09-1.96l1.23-19.31
		c4.13-0.13,8.11-0.38,11.42-0.79L57.04,41.5L57.04,41.5z"/>
	<path class="st5" d="M36.73,41.48c0,0,0,0.01,0,0.01c0.98,3.64,3.51,1.79,3.58,0l0,0L36.73,41.48z"/>
</g>
</svg>
