<?xml version="1.0" encoding="UTF-8"?>
<svg id="Layer_1" data-name="Layer 1" xmlns="http://www.w3.org/2000/svg" viewBox="0 0 119.46 100">
  <defs>
    <style>
      .cls-1 {
        fill: #fff;
      }

      .cls-2 {
        fill: #30b354;
      }
    </style>
  </defs>
  <path class="cls-2" d="m110.41.5H9.42C4.5.5.51,4.49.51,9.4v81.19c0,4.92,3.99,8.9,8.9,8.9h100.99c4.92,0,8.9-3.99,8.9-8.9V9.4c0-4.92-3.99-8.9-8.9-8.9Zm-43.51,40.45c.07-.65.55-1.21,1.23-1.33l18.97-3.26c.82-.14,1.59.41,1.73,1.22.14.82-.41,1.59-1.22,1.73l-9.37,1.61,9.35.88c.82.08,1.43.81,1.35,1.63-.07.78-.73,1.36-1.49,1.36-.05,0-.09,0-.14,0l-19.16-1.8c-.82-.08-1.43-.81-1.35-1.63.01-.14.05-.28.1-.4Zm-23.08-17.76c9.6,0,17.38,7.78,17.38,17.38s-7.78,17.38-17.38,17.38-17.38-7.78-17.38-17.38,7.78-17.38,17.38-17.38Zm49.88,37.79c-9.57,8.89-21.96,13.78-34.9,13.78s-24.68-4.65-34.15-13.09c-.62-.55-.67-1.5-.12-2.12.55-.62,1.5-.67,2.12-.12,8.91,7.95,20.33,12.33,32.15,12.33s23.85-4.61,32.86-12.98c.61-.56,1.55-.53,2.12.08.56.61.53,1.55-.08,2.12Z"/>
  <path d="m91.66,58.78c-9.01,8.37-20.68,12.98-32.86,12.98s-23.24-4.38-32.15-12.33c-.62-.55-1.57-.5-2.12.12-.55.62-.5,1.57.12,2.12,9.46,8.44,21.59,13.09,34.15,13.09s25.33-4.89,34.9-13.78c.61-.56.64-1.51.08-2.12-.56-.61-1.51-.64-2.12-.08Z"/>
  <path d="m68.15,42.99l19.16,1.8s.1,0,.14,0c.76,0,1.42-.58,1.49-1.36.08-.82-.53-1.56-1.35-1.63l-9.35-.88,9.37-1.61c.82-.14,1.36-.92,1.22-1.73-.14-.82-.92-1.37-1.73-1.22l-18.97,3.26c-.68.12-1.17.67-1.23,1.33-.05.13-.09.26-.1.4-.08.82.53,1.56,1.35,1.63Z"/>
  <path class="cls-1" d="m43.82,57.95c9.6,0,17.38-7.78,17.38-17.38s-7.78-17.38-17.38-17.38-17.38,7.78-17.38,17.38,7.78,17.38,17.38,17.38Zm0-21.59c2.32,0,4.21,1.88,4.21,4.21s-1.88,4.21-4.21,4.21-4.21-1.88-4.21-4.21,1.88-4.21,4.21-4.21Z"/>
  <path d="m43.82,44.78c2.32,0,4.21-1.88,4.21-4.21s-1.88-4.21-4.21-4.21-4.21,1.88-4.21,4.21,1.88,4.21,4.21,4.21Z"/>
</svg>