<?xml version="1.0" encoding="UTF-8"?>
<svg id="Layer_1" data-name="Layer 1" xmlns="http://www.w3.org/2000/svg" viewBox="0 0 90.81 100">
  <defs>
    <style>
      .cls-1 {
        fill: #30b354;
      }
    </style>
  </defs>
  <path class="cls-1" d="m66.31,33.65h12.37c1.96,0,3.55,1.59,3.55,3.55v23.13c0,1.96-1.59,3.55-3.55,3.55h-12.37c-1.96,0-3.55-1.59-3.55-3.55v-23.13c0-1.96,1.59-3.55,3.55-3.55Z"/>
  <path class="cls-1" d="m82.6,10.34h-8.96v20.95h5.03c3.26,0,5.91,2.65,5.91,5.91v23.13c0,3.26-2.65,5.91-5.91,5.91h-12.37c-3.26,0-5.91-2.65-5.91-5.91v-23.13c0-3.26,2.65-5.91,5.91-5.91h5.03V10.34H8.23c-4.08,0-7.4,3.31-7.4,7.4v74.37c0,4.08,3.31,7.4,7.4,7.4h74.37c4.08,0,7.4-3.31,7.4-7.4V17.73c0-4.08-3.31-7.4-7.4-7.4ZM19.83,55.85c-.92.74-2.18,1.16-3.46,1.16-.06,0-.12,0-.18,0-1.35-.03-2.64-.53-3.56-1.37-1.04-.95-1.57-2.28-1.53-3.85.02-.65.58-1.16,1.21-1.15.65.02,1.17.56,1.15,1.21-.03.88.22,1.55.76,2.03.5.45,1.26.73,2.04.75.8.02,1.56-.21,2.09-.64.56-.45.85-1.1.87-1.98.02-.65.58-1.16,1.21-1.15.65.02,1.17.56,1.15,1.21-.04,1.57-.65,2.86-1.75,3.76Zm2.94-19.33l-12.9,2.49c-.08.01-.15.02-.22.02-.55,0-1.05-.39-1.16-.96-.12-.64.3-1.26.94-1.38l12.9-2.49c.64-.12,1.26.3,1.38.94.12.64-.3,1.26-.94,1.38Zm6.18,30.55c.29.31.66.48,1.08.49.51.01.92.35,1.07.8.14.2.24.43.23.7-.02.65-.58,1.16-1.21,1.15-.86-.02-1.57.65-1.59,1.51-.01.41.14.8.42,1.1.29.31.66.48,1.08.49.65.02,1.16.56,1.14,1.21-.02.64-.54,1.15-1.18,1.15-.01,0-.02,0-.04,0-1.05-.03-2.02-.47-2.73-1.23-.72-.76-1.1-1.75-1.06-2.8.03-1.1.52-2.07,1.28-2.76-.07-.06-.15-.12-.21-.19-.72-.76-1.1-1.75-1.06-2.8.06-2.15,1.87-3.85,4.02-3.79.65.02,1.17.56,1.15,1.21-.02.65-.58,1.16-1.21,1.15-.86-.02-1.57.65-1.59,1.51-.01.41.14.81.42,1.1Zm17.98-11.22c-.92.74-2.18,1.16-3.46,1.16-.06,0-.12,0-.18,0-1.35-.03-2.65-.53-3.56-1.37-1.04-.95-1.57-2.28-1.53-3.85.02-.65.55-1.16,1.21-1.15.65.02,1.16.56,1.15,1.21-.03.88.22,1.55.76,2.03.5.45,1.26.73,2.04.75.79.02,1.56-.21,2.09-.64.56-.45.85-1.1.87-1.98.02-.65.57-1.16,1.21-1.15.65.02,1.17.56,1.15,1.21-.04,1.57-.65,2.86-1.75,3.76Zm5.39-15.83c-.14.53-.62.87-1.14.87-.1,0-.21-.01-.31-.04l-13.77-3.73c-.63-.17-1-.82-.83-1.45.17-.63.82-1,1.45-.83l13.77,3.73c.63.17,1,.82.83,1.45Z"/>
  <path d="m20.43,50.88c-.63-.02-1.19.5-1.21,1.15-.02.88-.31,1.53-.87,1.98-.53.43-1.29.66-2.09.64-.78-.02-1.54-.3-2.04-.75-.54-.49-.78-1.15-.76-2.03.02-.65-.49-1.19-1.15-1.21-.64-.02-1.19.49-1.21,1.15-.04,1.57.48,2.9,1.53,3.85.91.83,2.21,1.33,3.56,1.37.06,0,.12,0,.18,0,1.28,0,2.54-.42,3.46-1.16,1.1-.89,1.7-2.19,1.75-3.76.02-.65-.5-1.19-1.15-1.21Z"/>
  <path d="m47.53,50.88c-.64-.02-1.19.5-1.21,1.15-.02.88-.31,1.53-.87,1.98-.53.43-1.29.66-2.09.64-.78-.02-1.54-.3-2.04-.75-.54-.49-.78-1.15-.76-2.03.02-.65-.49-1.19-1.15-1.21-.66-.02-1.19.49-1.21,1.15-.04,1.57.48,2.9,1.53,3.85.91.83,2.21,1.33,3.56,1.37.06,0,.12,0,.18,0,1.28,0,2.54-.42,3.46-1.16,1.1-.89,1.7-2.19,1.75-3.76.02-.65-.5-1.19-1.15-1.21Z"/>
  <path d="m30.12,64.46c.64.02,1.2-.49,1.21-1.15.02-.65-.49-1.2-1.15-1.21-2.15-.06-3.96,1.64-4.02,3.79-.03,1.05.35,2.04,1.06,2.8.07.07.14.12.21.19-.75.69-1.25,1.66-1.28,2.76-.03,1.05.35,2.04,1.06,2.8.71.76,1.68,1.2,2.73,1.23.01,0,.02,0,.04,0,.64,0,1.16-.51,1.18-1.15.02-.65-.49-1.19-1.14-1.21-.42-.01-.79-.18-1.08-.49-.28-.3-.43-.69-.42-1.1.02-.85.74-1.52,1.59-1.51.64.02,1.2-.49,1.21-1.15,0-.26-.09-.5-.23-.7-.15-.45-.57-.79-1.07-.8-.42-.01-.79-.18-1.08-.49-.28-.3-.43-.69-.42-1.1.02-.85.74-1.53,1.59-1.51Z"/>
  <path d="m66.31,31.29c-3.26,0-5.91,2.65-5.91,5.91v23.13c0,3.26,2.65,5.91,5.91,5.91h12.37c3.26,0,5.91-2.65,5.91-5.91v-23.13c0-3.26-2.65-5.91-5.91-5.91h-5.03V10.29c0-5.4-3.76-9.79-8.39-9.79H17.39c-4.63,0-8.39,4.39-8.39,9.79h2.3c0-4.12,2.73-7.48,6.08-7.48h47.86c3.36,0,6.08,3.36,6.08,7.48v21h-5.03Zm12.37,2.36c1.96,0,3.55,1.59,3.55,3.55v23.13c0,1.96-1.59,3.55-3.55,3.55h-12.37c-1.96,0-3.55-1.59-3.55-3.55v-23.13c0-1.96,1.59-3.55,3.55-3.55h12.37Z"/>
  <path d="m51.49,38.57l-13.77-3.73c-.63-.17-1.28.2-1.45.83-.17.63.2,1.28.83,1.45l13.77,3.73c.1.03.21.04.31.04.52,0,1-.35,1.14-.87.17-.63-.2-1.28-.83-1.45Z"/>
  <path d="m22.32,34.2l-12.9,2.49c-.64.12-1.06.74-.94,1.38.11.56.6.96,1.16.96.07,0,.15,0,.22-.02l12.9-2.49c.64-.12,1.06-.74.94-1.38-.12-.64-.74-1.06-1.38-.94Z"/>
</svg>