<?xml version="1.0" encoding="UTF-8"?>
<svg id="Layer_1" data-name="Layer 1" xmlns="http://www.w3.org/2000/svg" viewBox="0 0 116.61 100">
  <defs>
    <style>
      .cls-1 {
        fill: #fff;
      }

      .cls-2 {
        fill: #30b354;
      }
    </style>
  </defs>
  <path class="cls-2" d="m114.9,86.23l-16.18-26.86h-9.58c-.65,8.24-7.56,14.76-15.96,14.76-7.42,0-13.67-5.08-15.48-11.94-1.81,6.86-8.06,11.94-15.48,11.94-8.41,0-15.31-6.51-15.96-14.76h-8.35L1.72,86.23c-3.51,5.83.69,13.27,7.5,13.27h98.19c6.81,0,11.01-7.43,7.5-13.27Zm-25.47-8.91c-8.94,8.3-20.51,12.87-32.6,12.87s-23.05-4.34-31.89-12.22c-.58-.51-.63-1.4-.11-1.98s1.4-.63,1.98-.11c8.33,7.42,18.99,11.51,30.02,11.51s22.27-4.3,30.69-12.12c.57-.53,1.45-.49,1.98.07.53.57.49,1.45-.07,1.98Z"/>
  <path class="cls-2" d="m42.21,42.07c7.42,0,13.67,5.08,15.48,11.94,1.81-6.86,8.06-11.94,15.48-11.94,8.41,0,15.31,6.51,15.96,14.76h8.05L65.81,4.74c-3.4-5.65-11.59-5.65-14.99,0l-31.38,52.09h6.81c.65-8.24,7.56-14.76,15.96-14.76Z"/>
  <path class="cls-1" d="m28.73,58.1c0,7.44,6.05,13.48,13.48,13.48s13.48-6.05,13.48-13.48-6.05-13.48-13.48-13.48-13.48,6.05-13.48,13.48Zm18.5,1.51c1.97,0,3.57,1.6,3.57,3.57s-1.6,3.57-3.57,3.57-3.57-1.6-3.57-3.57,1.6-3.57,3.57-3.57Z"/>
  <path class="cls-1" d="m59.69,58.1c0,7.44,6.05,13.48,13.48,13.48s13.48-6.05,13.48-13.48-6.05-13.48-13.48-13.48-13.48,6.05-13.48,13.48Zm18.5,1.51c1.97,0,3.57,1.6,3.57,3.57s-1.6,3.57-3.57,3.57-3.57-1.6-3.57-3.57,1.6-3.57,3.57-3.57Z"/>
  <path d="m47.22,66.75c1.97,0,3.57-1.6,3.57-3.57s-1.6-3.57-3.57-3.57-3.57,1.6-3.57,3.57,1.6,3.57,3.57,3.57Z"/>
  <path d="m78.19,66.75c1.97,0,3.57-1.6,3.57-3.57s-1.6-3.57-3.57-3.57-3.57,1.6-3.57,3.57,1.6,3.57,3.57,3.57Z"/>
  <path d="m87.53,75.27c-8.42,7.82-19.32,12.12-30.69,12.12s-21.7-4.09-30.02-11.51c-.58-.52-1.46-.46-1.98.11s-.46,1.46.11,1.98c8.84,7.88,20.16,12.22,31.89,12.22s23.66-4.57,32.6-12.87c.57-.53.6-1.41.07-1.98-.53-.57-1.41-.6-1.98-.07Z"/>
  <path d="m42.21,74.13c7.42,0,13.67-5.08,15.48-11.94,1.81,6.86,8.06,11.94,15.48,11.94,8.41,0,15.31-6.51,15.96-14.76h14.65c.7,0,1.27-.57,1.27-1.27s-.57-1.27-1.27-1.27h-14.65c-.65-8.24-7.56-14.76-15.96-14.76-7.42,0-13.67,5.08-15.48,11.94-1.81-6.86-8.06-11.94-15.48-11.94-8.41,0-15.31,6.51-15.96,14.76H9.8c-.7,0-1.27.57-1.27,1.27s.57,1.27,1.27,1.27h16.45c.65,8.24,7.56,14.76,15.96,14.76Zm44.44-16.03c0,7.44-6.05,13.48-13.48,13.48s-13.48-6.05-13.48-13.48,6.05-13.48,13.48-13.48,13.48,6.05,13.48,13.48Zm-30.96,0c0,7.44-6.05,13.48-13.48,13.48s-13.48-6.05-13.48-13.48,6.05-13.48,13.48-13.48,13.48,6.05,13.48,13.48Z"/>
</svg>