<?xml version="1.0" encoding="UTF-8"?>
<svg id="Layer_1" data-name="Layer 1" xmlns="http://www.w3.org/2000/svg" viewBox="0 0 97.61 100">
  <defs>
    <style>
      .cls-1 {
        fill: none;
      }

      .cls-2 {
        fill: #fff;
      }

      .cls-3 {
        fill: #e31e26;
      }
    </style>
  </defs>
  <circle class="cls-1" cx="22.43" cy="92.83" r="4.16"/>
  <path class="cls-1" d="m75.19,88.67c-2.3,0-4.16,1.87-4.16,4.16s1.87,4.16,4.16,4.16,4.16-1.87,4.16-4.16-1.87-4.16-4.16-4.16Z"/>
  <path d="m96.86,79.81c-.59-.36-1.36-.17-1.72.42-3.78,6.2-8.94,5.8-9.15,5.78h-33.73c-1.03.08-2.06.13-3.11.13s-2.09-.05-3.12-.13H10.37c-2.89,0-6.65-3.92-7.85-5.43-.43-.54-1.22-.63-1.76-.2-.54.43-.63,1.22-.2,1.76.52.65,5.2,6.37,9.81,6.37h7.01c-1,1.17-1.61,2.68-1.61,4.34,0,3.68,2.99,6.67,6.67,6.67s6.67-2.99,6.67-6.67c0-1.66-.61-3.17-1.61-4.34h42.65c-1,1.17-1.61,2.68-1.61,4.34,0,3.68,2.99,6.67,6.67,6.67s6.67-2.99,6.67-6.67c0-1.66-.61-3.17-1.61-4.34h5.58c.09,0,.25.02.46.02,1.71,0,7.07-.55,11-6.99.36-.59.17-1.36-.42-1.72Zm-74.43,17.19c-2.3,0-4.16-1.87-4.16-4.16s1.87-4.16,4.16-4.16,4.16,1.87,4.16,4.16-1.87,4.16-4.16,4.16Zm52.75,0c-2.3,0-4.16-1.87-4.16-4.16s1.87-4.16,4.16-4.16,4.16,1.87,4.16,4.16-1.87,4.16-4.16,4.16Z"/>
  <path class="cls-3" d="m52.27,86c20.8-1.59,37.19-18.96,37.19-40.16,0-18.2-12.07-33.58-28.65-38.58l-9.33,9.33c-.23.23-.53.35-.84.35s-.6-.12-.84-.35c-.46-.46-.46-1.21,0-1.67l8.35-8.35c-1.59-.36-3.21-.64-4.87-.81l-10.84,10.84c-.23.23-.53.35-.84.35s-.6-.12-.84-.35c-.46-.46-.46-1.21,0-1.67l9.35-9.35c-.32,0-.65-.02-.97-.02-1.3,0-2.59.07-3.86.19l-10.86,10.86c-.23.23-.53.35-.84.35s-.6-.12-.84-.35c-.46-.46-.46-1.21,0-1.67l8.62-8.62C22.86,9.92,8.87,26.24,8.87,45.83c0,21.2,16.38,38.57,37.18,40.16,1.03.08,2.07.13,3.12.13s2.08-.05,3.11-.13Zm-17.36-31.17c-2.48,3.51-6.56,5.81-11.19,5.81-7.57,0-13.7-6.13-13.7-13.7s6.13-13.7,13.7-13.7c4.63,0,8.71,2.3,11.19,5.81,2.48-3.51,6.56-5.81,11.19-5.81,7.57,0,13.7,6.13,13.7,13.7s-6.13,13.7-13.7,13.7c-4.63,0-8.71-2.3-11.19-5.81Zm8.89,11.86c.2-.67.91-1.06,1.58-.86.47.14,11.62,3.18,21.56-10.32.41-.56,1.22-.69,1.78-.27.57.42.69,1.21.27,1.78-1.19,1.62-2.4,3.02-3.62,4.24-10.04,10.04-20.24,7.16-20.72,7.02-.67-.2-1.06-.91-.86-1.59Z"/>
  <path d="m32.77,16.58c.23.23.53.35.84.35s.6-.12.84-.35l10.86-10.86,3.21-3.21c.46-.46.46-1.21,0-1.67-.46-.46-1.21-.46-1.67,0l-5.45,5.45-8.62,8.62c-.46.46-.46,1.21,0,1.67Z"/>
  <path d="m40.79,16.58c.23.23.53.35.84.35s.6-.12.84-.35l10.84-10.84,3.23-3.23c.46-.46.46-1.21,0-1.67-.46-.46-1.21-.46-1.67,0l-4.72,4.72-9.35,9.35c-.46.46-.46,1.21,0,1.67Z"/>
  <path d="m49.81,16.58c.23.23.53.35.84.35s.6-.12.84-.35l9.33-9.33,4.74-4.74c.46-.46.46-1.21,0-1.67-.46-.46-1.21-.46-1.67,0l-5.71,5.71-8.35,8.35c-.46.46-.46,1.21,0,1.67Z"/>
  <path class="cls-2" d="m59.81,46.95c0-7.57-6.13-13.7-13.7-13.7-4.63,0-8.71,2.3-11.19,5.81-2.48-3.51-6.56-5.81-11.19-5.81-7.57,0-13.7,6.13-13.7,13.7s6.13,13.7,13.7,13.7c4.63,0,8.71-2.3,11.19-5.81,2.48,3.51,6.56,5.81,11.19,5.81,7.57,0,13.7-6.13,13.7-13.7Zm-41.03,3.2c-1.83,0-3.31-1.48-3.31-3.32s1.48-3.32,3.31-3.32,3.32,1.48,3.32,3.32-1.48,3.32-3.32,3.32Zm22.38,0c-1.83,0-3.31-1.48-3.31-3.32s1.48-3.32,3.31-3.32,3.32,1.48,3.32,3.32-1.48,3.32-3.32,3.32Z"/>
  <path d="m18.77,43.52c-1.83,0-3.31,1.48-3.31,3.32s1.48,3.32,3.31,3.32,3.32-1.48,3.32-3.32-1.48-3.32-3.32-3.32Z"/>
  <path d="m41.16,43.52c-1.83,0-3.31,1.48-3.31,3.32s1.48,3.32,3.31,3.32,3.32-1.48,3.32-3.32-1.48-3.32-3.32-3.32Z"/>
  <path d="m65.39,61.26c1.21-1.21,2.43-2.62,3.62-4.24.42-.57.3-1.37-.27-1.78-.57-.42-1.37-.29-1.78.27-9.94,13.51-21.09,10.46-21.56,10.32-.67-.2-1.38.18-1.58.86-.2.67.18,1.38.86,1.59.48.14,10.68,3.02,20.72-7.02Z"/>
</svg>