<?xml version="1.0" encoding="UTF-8"?>
<svg id="Layer_1" data-name="Layer 1" xmlns="http://www.w3.org/2000/svg" viewBox="0 0 99.29 100">
  <defs>
    <style>
      .cls-1 {
        fill: #e31e26;
      }
    </style>
  </defs>
  <path class="cls-1" d="m97.27,45.35L54.34,2.43c-2.57-2.57-6.73-2.57-9.3,0L2.12,45.35c-2.57,2.57-2.57,6.73,0,9.3l42.93,42.93c2.57,2.57,6.73,2.57,9.3,0l42.93-42.93c2.57-2.57,2.57-6.73,0-9.3Zm-42.65-2.12c.66-2.6,3-4.43,5.68-4.46,2.73.02,5.1,1.83,5.78,4.39.17.65-.21,1.31-.86,1.49-.65.17-1.31-.21-1.49-.86-.4-1.51-1.81-2.57-3.43-2.59-1.56.02-2.94,1.1-3.33,2.63-.14.55-.63.92-1.18.92-.1,0-.2-.01-.3-.04-.65-.17-1.04-.83-.88-1.48Zm-21.48.26c.64-2.63,2.98-4.48,5.7-4.51h.06c2.65,0,5,1.79,5.7,4.34.18.65-.2,1.32-.85,1.49-.65.18-1.32-.2-1.49-.85-.42-1.51-1.8-2.56-3.36-2.56-1.64.02-3.02,1.11-3.4,2.66-.14.55-.63.93-1.18.93-.1,0-.19-.01-.29-.04-.65-.16-1.05-.82-.89-1.47Zm44.53,11.86c-7.75,7.2-17.79,11.16-28.27,11.16s-19.99-3.76-27.66-10.6c-.5-.45-.54-1.21-.1-1.71.45-.5,1.21-.54,1.71-.1,7.22,6.44,16.47,9.98,26.04,9.98s19.32-3.73,26.62-10.51c.49-.46,1.26-.43,1.72.06.46.49.43,1.26-.06,1.72Z"/>
  <path d="m55.5,44.71c.1.03.2.04.3.04.54,0,1.04-.37,1.18-.92.39-1.53,1.77-2.61,3.33-2.63,1.62.01,3.03,1.08,3.43,2.59.17.65.84,1.03,1.49.86.65-.17,1.03-.84.86-1.49-.68-2.56-3.05-4.37-5.78-4.39-2.69.03-5.02,1.86-5.68,4.46-.16.65.23,1.31.88,1.48Z"/>
  <path d="m34.03,44.97c.1.02.19.04.29.04.55,0,1.04-.37,1.18-.93.38-1.55,1.76-2.64,3.4-2.66,1.56,0,2.95,1.05,3.36,2.56.18.65.84,1.03,1.49.85.65-.18,1.03-.85.85-1.49-.71-2.56-3.05-4.34-5.7-4.34h-.06c-2.71.03-5.05,1.88-5.7,4.51-.16.65.24,1.31.89,1.47Z"/>
  <path d="m76.02,53.58c-7.3,6.78-16.75,10.51-26.62,10.51s-18.82-3.55-26.04-9.98c-.5-.45-1.27-.4-1.71.1-.45.5-.4,1.27.1,1.71,7.67,6.84,17.49,10.6,27.66,10.6s20.52-3.96,28.27-11.16c.49-.46.52-1.23.06-1.72-.46-.49-1.22-.52-1.72-.06Z"/>
</svg>