<?xml version="1.0" encoding="UTF-8"?>
<svg id="Layer_1" data-name="Layer 1" xmlns="http://www.w3.org/2000/svg" viewBox="0 0 116.17 100">
  <defs>
    <style>
      .cls-1 {
        fill: #fff;
      }

      .cls-2 {
        fill: #e31e26;
      }
    </style>
  </defs>
  <path class="cls-2" d="m114.78,86.23L65.69,4.73c-3.4-5.65-11.59-5.65-14.99,0L1.6,86.23c-3.51,5.83.69,13.27,7.5,13.27h98.19c6.81,0,11.01-7.43,7.5-13.27Zm-59.26-22.68c-2.65,3.75-7.01,6.21-11.95,6.21-8.08,0-14.63-6.55-14.63-14.63s6.55-14.63,14.63-14.63c4.94,0,9.3,2.46,11.95,6.21,2.65-3.75,7.01-6.21,11.95-6.21,8.08,0,14.63,6.55,14.63,14.63s-6.55,14.63-14.63,14.63c-4.94,0-9.3-2.46-11.95-6.21Zm32.48,13.43c-1.42,1.61-2.84,2.99-4.25,4.17-11.62,9.73-22.2,5.71-22.7,5.51-.7-.28-1.04-1.07-.76-1.77.28-.7,1.07-1.04,1.76-.76.49.19,12.06,4.48,23.9-8.95.49-.56,1.36-.62,1.92-.12.56.5.62,1.36.12,1.92Z"/>
  <path class="cls-1" d="m82.09,55.14c0-8.08-6.55-14.63-14.63-14.63-4.94,0-9.3,2.46-11.95,6.21-2.65-3.75-7.01-6.21-11.95-6.21-8.08,0-14.63,6.55-14.63,14.63s6.55,14.63,14.63,14.63c4.94,0,9.3-2.46,11.95-6.21,2.65,3.75,7.01,6.21,11.95,6.21,8.08,0,14.63-6.55,14.63-14.63Zm-38.52,3.54c-1.95,0-3.54-1.58-3.54-3.54s1.58-3.54,3.54-3.54,3.54,1.58,3.54,3.54-1.58,3.54-3.54,3.54Zm20.72-3.54c0-1.96,1.58-3.54,3.54-3.54s3.54,1.58,3.54,3.54-1.58,3.54-3.54,3.54-3.54-1.58-3.54-3.54Z"/>
  <path d="m43.57,51.6c-1.95,0-3.54,1.58-3.54,3.54s1.58,3.54,3.54,3.54,3.54-1.58,3.54-3.54-1.58-3.54-3.54-3.54Z"/>
  <path d="m71.37,55.14c0-1.96-1.58-3.54-3.54-3.54s-3.54,1.58-3.54,3.54,1.58,3.54,3.54,3.54,3.54-1.58,3.54-3.54Z"/>
  <path d="m85.96,75.18c-11.84,13.43-23.41,9.14-23.9,8.95-.7-.28-1.49.07-1.76.76-.28.7.06,1.49.76,1.77.5.2,11.08,4.22,22.7-5.51,1.41-1.18,2.83-2.56,4.25-4.17.5-.56.44-1.42-.12-1.92-.56-.5-1.43-.44-1.92.12Z"/>
</svg>