<?xml version="1.0" encoding="UTF-8"?>
<svg id="Layer_1" data-name="Layer 1" xmlns="http://www.w3.org/2000/svg" viewBox="0 0 116.17 100">
  <defs>
    <style>
      .cls-1 {
        fill: #fff;
      }

      .cls-2 {
        fill: #e31e26;
      }
    </style>
  </defs>
  <path class="cls-2" d="m114.78,86.23L65.69,4.74c-3.4-5.65-11.59-5.65-14.99,0L1.6,86.23c-3.51,5.83.69,13.27,7.5,13.27h98.19c6.81,0,11.01-7.43,7.5-13.27Zm-47.32-1.68c-1.98,0-3.58-1.6-3.58-3.58s1.6-3.58,3.58-3.58,3.58,1.6,3.58,3.58-1.6,3.58-3.58,3.58Zm0-14.8c-4.94,0-9.3-2.46-11.95-6.21-2.65,3.75-7.01,6.21-11.95,6.21-8.08,0-14.63-6.55-14.63-14.63s6.55-14.63,14.63-14.63c4.94,0,9.3,2.46,11.95,6.21,2.65-3.75,7.01-6.21,11.95-6.21,8.08,0,14.63,6.55,14.63,14.63s-6.55,14.63-14.63,14.63Z"/>
  <path class="cls-1" d="m67.47,40.51c-4.94,0-9.3,2.46-11.95,6.21-2.65-3.75-7.01-6.21-11.95-6.21-8.08,0-14.63,6.55-14.63,14.63s6.55,14.63,14.63,14.63c4.94,0,9.3-2.46,11.95-6.21,2.65,3.75,7.01,6.21,11.95,6.21,8.08,0,14.63-6.55,14.63-14.63s-6.55-14.63-14.63-14.63Zm-25.64,24.65c-1.95,0-3.54-1.58-3.54-3.54s1.58-3.54,3.54-3.54,3.54,1.58,3.54,3.54-1.58,3.54-3.54,3.54Zm25.64,0c-1.95,0-3.54-1.58-3.54-3.54s1.58-3.54,3.54-3.54,3.54,1.58,3.54,3.54-1.58,3.54-3.54,3.54Z"/>
  <path d="m41.82,58.08c-1.95,0-3.54,1.58-3.54,3.54s1.58,3.54,3.54,3.54,3.54-1.58,3.54-3.54-1.58-3.54-3.54-3.54Z"/>
  <path d="m67.47,58.08c-1.95,0-3.54,1.58-3.54,3.54s1.58,3.54,3.54,3.54,3.54-1.58,3.54-3.54-1.58-3.54-3.54-3.54Z"/>
  <circle cx="67.47" cy="80.98" r="3.58"/>
</svg>