<?xml version="1.0" encoding="UTF-8"?>
<svg id="Layer_1" data-name="Layer 1" xmlns="http://www.w3.org/2000/svg" viewBox="0 0 116.17 100">
  <defs>
    <style>
      .cls-1 {
        fill: #fff;
      }

      .cls-2 {
        fill: #e31e26;
      }
    </style>
  </defs>
  <path class="cls-2" d="m114.78,86.23L65.69,4.74c-3.4-5.65-11.59-5.65-14.99,0L1.6,86.23c-3.51,5.83.69,13.27,7.5,13.27h98.19c6.81,0,11.01-7.43,7.5-13.27Zm-44.07,1.56l-16.06,2.97c-.1.02-.2.03-.3.03-.79,0-1.48-.56-1.63-1.36-.17-.9.43-1.77,1.33-1.94l16.06-2.97c.9-.17,1.77.43,1.94,1.33.17.9-.43,1.77-1.33,1.94Zm-3.25-18.03c-4.94,0-9.3-2.46-11.95-6.21-2.65,3.75-7.01,6.21-11.95,6.21-8.08,0-14.63-6.55-14.63-14.63s6.55-14.63,14.63-14.63c4.94,0,9.3,2.46,11.95,6.21,2.65-3.75,7.01-6.21,11.95-6.21,8.08,0,14.63,6.55,14.63,14.63s-6.55,14.63-14.63,14.63Z"/>
  <path class="cls-1" d="m67.47,40.51c-4.94,0-9.3,2.46-11.95,6.21-2.65-3.75-7.01-6.21-11.95-6.21-8.08,0-14.63,6.55-14.63,14.63s6.55,14.63,14.63,14.63c4.94,0,9.3-2.46,11.95-6.21,2.65,3.75,7.01,6.21,11.95,6.21,8.08,0,14.63-6.55,14.63-14.63s-6.55-14.63-14.63-14.63Zm-23.92,18.17c-1.96,0-3.54-1.58-3.54-3.54s1.58-3.54,3.54-3.54,3.54,1.58,3.54,3.54-1.58,3.54-3.54,3.54Zm23.75.15c-1.95,0-3.54-1.58-3.54-3.54s1.58-3.54,3.54-3.54,3.54,1.58,3.54,3.54-1.58,3.54-3.54,3.54Z"/>
  <path d="m43.54,51.6c-1.96,0-3.54,1.58-3.54,3.54s1.58,3.54,3.54,3.54,3.54-1.58,3.54-3.54-1.58-3.54-3.54-3.54Z"/>
  <path d="m67.29,51.74c-1.95,0-3.54,1.58-3.54,3.54s1.58,3.54,3.54,3.54,3.54-1.58,3.54-3.54-1.58-3.54-3.54-3.54Z"/>
  <path d="m70.11,84.53l-16.06,2.97c-.9.17-1.5,1.03-1.33,1.94.15.8.85,1.36,1.63,1.36.1,0,.2,0,.3-.03l16.06-2.97c.9-.17,1.5-1.03,1.33-1.94-.17-.9-1.03-1.5-1.94-1.33Z"/>
</svg>