<?xml version="1.0" encoding="UTF-8"?>
<svg id="Layer_1" data-name="Layer 1" xmlns="http://www.w3.org/2000/svg" viewBox="0 0 108.35 100">
  <defs>
    <style>
      .cls-1 {
        fill: none;
      }

      .cls-2 {
        fill: #fff;
      }

      .cls-3 {
        fill: #e31e26;
      }
    </style>
  </defs>
  <path class="cls-1" d="m97.4,73.23c3.44,0,6.23-3.98,6.23-8.86,0-2.45-.7-4.73-1.96-6.43-.15-.2-.24-.43-.27-.67l-10,9.45c.73,3.75,3.14,6.51,6,6.51Z"/>
  <path class="cls-3" d="m91.36,55.47c.54-.61,1.47-.66,2.08-.12.61.54.66,1.47.12,2.08-1.51,1.71-2.38,4.24-2.38,6.94,0,.82.08,1.6.23,2.36l10-9.45c-.08-.52.12-1.06.57-1.39.35-.26.78-.34,1.17-.26l1.03-.97c2.72-2.57,2.72-6.73,0-9.3L58.75,2.43c-2.72-2.57-7.12-2.57-9.84,0L3.5,45.35c-2.72,2.57-2.72,6.73,0,9.3l45.42,42.93c2.72,2.57,7.12,2.57,9.84,0l30.22-28.56c-.48-1.43-.74-3-.74-4.65,0-3.42,1.14-6.66,3.13-8.9Zm-18.23,14.17c-.14.27-3.6,6.54-15.51,6.54h-10.97c-11.91,0-15.37-6.27-15.51-6.54-.38-.72-.11-1.61.61-1.99.72-.38,1.61-.11,1.99.61.11.19,2.9,4.97,12.91,4.97h10.97c10.01,0,12.8-4.78,12.91-4.99.39-.7,1.28-.97,1.99-.58.71.38.98,1.26.6,1.97Zm-10.9-7.62c-5.73,0-10.68-3.1-13.11-7.61-2.43,4.51-7.38,7.61-13.11,7.61-8.13,0-14.72-6.23-14.72-13.91s6.59-13.91,14.72-13.91c5.73,0,10.68,3.1,13.11,7.61,2.43-4.51,7.38-7.61,13.11-7.61,8.13,0,14.72,6.23,14.72,13.91s-6.59,13.91-14.72,13.91Z"/>
  <path d="m72.53,67.66c-.71-.39-1.6-.12-1.99.58-.11.2-2.9,4.99-12.91,4.99h-10.97c-10.01,0-12.8-4.78-12.91-4.97-.38-.72-1.27-.99-1.99-.61-.72.38-.99,1.27-.61,1.99.14.27,3.6,6.54,15.51,6.54h10.97c11.91,0,15.37-6.27,15.51-6.54.38-.71.11-1.59-.6-1.97Z"/>
  <path class="cls-2" d="m62.23,34.2c-5.73,0-10.68,3.1-13.11,7.61-2.43-4.51-7.38-7.61-13.11-7.61-8.13,0-14.72,6.23-14.72,13.91s6.59,13.91,14.72,13.91c5.73,0,10.68-3.1,13.11-7.61,2.43,4.51,7.38,7.61,13.11,7.61,8.13,0,14.72-6.23,14.72-13.91s-6.59-13.91-14.72-13.91Zm-29.78,19.11c-1.97,0-3.56-1.51-3.56-3.37s1.59-3.37,3.56-3.37,3.56,1.51,3.56,3.37-1.59,3.37-3.56,3.37Zm27.66,0c-1.97,0-3.56-1.51-3.56-3.37s1.59-3.37,3.56-3.37,3.56,1.51,3.56,3.37-1.59,3.37-3.56,3.37Z"/>
  <ellipse cx="32.45" cy="49.94" rx="3.56" ry="3.37"/>
  <ellipse cx="60.1" cy="49.94" rx="3.56" ry="3.37"/>
  <path d="m104.03,56.18c-.22-.3-.54-.49-.89-.56-.4-.08-.82,0-1.17.26-.45.33-.65.87-.57,1.39.03.23.12.46.27.67,1.27,1.7,1.96,3.98,1.96,6.43,0,4.89-2.8,8.86-6.23,8.86-2.86,0-5.27-2.76-6-6.51-.15-.75-.23-1.54-.23-2.36,0-2.71.87-5.24,2.38-6.94.54-.61.48-1.54-.12-2.08-.61-.54-1.54-.48-2.08.12-1.99,2.24-3.13,5.48-3.13,8.9,0,1.65.27,3.22.74,4.65,1.41,4.2,4.65,7.16,8.43,7.16,5.06,0,9.17-5.3,9.17-11.81,0-3.08-.9-5.98-2.55-8.19Z"/>
</svg>