<?xml version="1.0" encoding="UTF-8"?>
<svg id="Layer_1" data-name="Layer 1" xmlns="http://www.w3.org/2000/svg" viewBox="0 0 99.14 100">
  <defs>
    <style>
      .cls-1 {
        fill: #f1b31b;
      }

      .cls-2 {
        fill: #fff;
      }
    </style>
  </defs>
  <path class="cls-1" d="m49.56.5C22.22.5.06,22.66.06,50s22.16,49.5,49.5,49.5,49.5-22.16,49.5-49.5S76.9.5,49.56.5Zm11.48,75.71c0,.24-.13.45-.34.57-.1.05-.2.08-.31.08-.12,0-.25-.04-.35-.11l-12.29-8.06-12.29,8.06c-.11.07-.23.11-.35.11-.1,0-.21-.03-.31-.08-.21-.11-.34-.33-.34-.57v-17.69c0-.24.13-.45.34-.57.21-.11.46-.1.66.03l12.29,8.06,12.29-8.06c.2-.13.45-.14.66-.03.21.11.34.33.34.57v17.69Zm-21.01-29.87c0-.71.58-1.29,1.29-1.29s1.29.58,1.29,1.29c0,2.37,1.93,4.29,4.29,4.29s4.29-1.93,4.29-4.29c0-.71.58-1.29,1.29-1.29s1.29.58,1.29,1.29c0,3.79-3.08,6.87-6.87,6.87s-6.87-3.08-6.87-6.87Zm19.52-2.42c-5.05,0-9.51-2.51-12.21-6.35-2.71,3.83-7.16,6.35-12.21,6.35-8.26,0-14.95-6.69-14.95-14.95s6.69-14.95,14.95-14.95c5.05,0,9.51,2.51,12.21,6.35,2.71-3.83,7.16-6.35,12.21-6.35,8.26,0,14.95,6.69,14.95,14.95s-6.69,14.95-14.95,14.95Z"/>
  <path class="cls-2" d="m59.55,14.01c-5.05,0-9.51,2.51-12.21,6.35-2.71-3.83-7.16-6.35-12.21-6.35-8.26,0-14.95,6.69-14.95,14.95s6.69,14.95,14.95,14.95c5.05,0,9.51-2.51,12.21-6.35,2.71,3.83,7.16,6.35,12.21,6.35,8.26,0,14.95-6.69,14.95-14.95s-6.69-14.95-14.95-14.95Zm-25.35,18.9c-2,0-3.62-1.62-3.62-3.62s1.62-3.62,3.62-3.62,3.62,1.62,3.62,3.62-1.62,3.62-3.62,3.62Zm24.86-.33c-2,0-3.62-1.62-3.62-3.62s1.62-3.62,3.62-3.62,3.62,1.62,3.62,3.62-1.62,3.62-3.62,3.62Z"/>
  <circle cx="34.2" cy="29.3" r="3.62"/>
  <path d="m59.06,25.35c-2,0-3.62,1.62-3.62,3.62s1.62,3.62,3.62,3.62,3.62-1.62,3.62-3.62-1.62-3.62-3.62-3.62Z"/>
  <path d="m60.7,57.95c-.21-.11-.46-.1-.66.03l-12.29,8.06-12.29-8.06c-.2-.13-.45-.14-.66-.03-.21.11-.34.33-.34.57v17.69c0,.24.13.45.34.57.1.05.2.08.31.08.12,0,.25-.04.35-.11l12.29-8.06,12.29,8.06c.11.07.23.11.35.11.1,0,.21-.03.31-.08.21-.11.34-.33.34-.57v-17.69c0-.24-.13-.45-.34-.57Z"/>
  <path d="m53.77,46.34c0-.71-.58-1.29-1.29-1.29s-1.29.58-1.29,1.29c0,2.37-1.93,4.29-4.29,4.29s-4.29-1.93-4.29-4.29c0-.71-.58-1.29-1.29-1.29s-1.29.58-1.29,1.29c0,3.79,3.08,6.87,6.87,6.87s6.87-3.08,6.87-6.87Z"/>
</svg>