<?xml version="1.0" encoding="UTF-8"?>
<svg id="Layer_1" data-name="Layer 1" xmlns="http://www.w3.org/2000/svg" viewBox="0 0 107.05 100">
  <defs>
    <style>
      .cls-1 {
        fill: #f1b31b;
      }

      .cls-2 {
        fill: #fff;
      }
    </style>
  </defs>
  <path class="cls-1" d="m105.26,37.86c-.83-2.55-3.2-4.27-5.88-4.27h-30.31l-9.37-28.82c-.83-2.55-3.2-4.27-5.88-4.27s-5.05,1.72-5.88,4.27l-9.37,28.82H8.29c-2.68,0-5.05,1.72-5.88,4.27s.08,5.34,2.25,6.91l24.52,17.81-9.37,28.82c-.83,2.55.08,5.34,2.25,6.91,2.17,1.57,5.1,1.57,7.27,0l24.52-17.81,24.52,17.81c1.08.79,2.36,1.18,3.63,1.18s2.55-.39,3.63-1.18c2.17-1.57,3.07-4.36,2.25-6.91l-9.37-28.82,24.52-17.81c2.17-1.57,3.07-4.36,2.25-6.91Zm-45.1,37.06c-1.98.3-3.83.44-5.54.44-14.16,0-19.32-9.22-19.56-9.66-.33-.62-.1-1.39.51-1.72.62-.33,1.39-.1,1.72.51.24.43,5.95,10.44,22.48,7.92.69-.11,1.34.37,1.45,1.06.11.69-.37,1.34-1.07,1.45Zm3.44-14.21c-4.92.13-9.26-2.58-11.46-6.63-1.98,4.16-6.17,7.09-11.09,7.22-6.99.19-12.8-5.33-12.99-12.32s5.33-12.8,12.32-12.99c4.92-.13,9.26,2.58,11.46,6.63,1.98-4.16,6.17-7.09,11.09-7.22,6.99-.19,12.8,5.33,12.99,12.32.18,6.99-5.33,12.8-12.32,12.99Zm29.89-13.02c-1.26,0-2.29-1.03-2.29-2.29s1.03-2.29,2.29-2.29,2.29,1.03,2.29,2.29-1.03,2.29-2.29,2.29Zm5.72-3.69c-1.26,0-2.29-1.03-2.29-2.29s1.02-2.29,2.29-2.29,2.29,1.03,2.29,2.29-1.02,2.29-2.29,2.29Z"/>
  <path class="cls-2" d="m62.93,35.41c-4.92.13-9.11,3.06-11.09,7.22-2.2-4.05-6.53-6.76-11.46-6.63-6.99.19-12.51,6-12.32,12.99s6,12.5,12.99,12.32c4.92-.13,9.11-3.06,11.09-7.22,2.2,4.05,6.53,6.76,11.46,6.63,6.99-.18,12.5-6,12.32-12.99-.19-6.99-6-12.51-12.99-12.32Zm-23.37,16.24c-1.69.04-3.1-1.29-3.14-2.98-.04-1.69,1.29-3.1,2.98-3.14,1.69-.04,3.1,1.29,3.14,2.98.04,1.69-1.29,3.1-2.98,3.14Zm23.78-.63c-1.69.04-3.1-1.29-3.14-2.98-.04-1.69,1.29-3.1,2.98-3.14,1.69-.04,3.1,1.29,3.14,2.98.04,1.69-1.29,3.1-2.98,3.14Z"/>
  <path d="m39.4,45.52c-1.69.04-3.03,1.45-2.98,3.14.04,1.69,1.45,3.03,3.14,2.98,1.69-.04,3.03-1.45,2.98-3.14-.04-1.69-1.45-3.03-3.14-2.98Z"/>
  <path d="m63.18,44.89c-1.69.04-3.03,1.45-2.98,3.14.04,1.69,1.45,3.03,3.14,2.98,1.69-.04,3.03-1.45,2.98-3.14-.04-1.69-1.45-3.03-3.14-2.98Z"/>
  <path d="m59.78,72.41c-16.53,2.52-22.24-7.49-22.48-7.92-.33-.62-1.1-.84-1.72-.51-.62.33-.85,1.1-.51,1.72.24.44,5.4,9.66,19.56,9.66,1.71,0,3.56-.14,5.54-.44.69-.11,1.17-.75,1.07-1.45-.11-.69-.76-1.17-1.45-1.06Z"/>
  <path d="m99.21,39.43c-1.26,0-2.29,1.03-2.29,2.29s1.02,2.29,2.29,2.29,2.29-1.03,2.29-2.29-1.02-2.29-2.29-2.29Z"/>
  <path d="m93.49,43.12c-1.26,0-2.29,1.03-2.29,2.29s1.03,2.29,2.29,2.29,2.29-1.03,2.29-2.29-1.03-2.29-2.29-2.29Z"/>
</svg>