<?xml version="1.0" encoding="UTF-8"?>
<svg id="Layer_1" data-name="Layer 1" xmlns="http://www.w3.org/2000/svg" viewBox="0 0 99.58 99.5">
  <defs>
    <style>
      .cls-1 {
        fill: #f1b31b;
      }
    </style>
  </defs>
  <path class="cls-1" d="m49.79,0C22.45,0,.29,22.16.29,49.5s22.16,49.5,49.5,49.5,49.5-22.16,49.5-49.5S77.13,0,49.79,0Zm6.61,41.14c.7-2.76,3.18-4.7,6.03-4.73,2.9.02,5.41,1.94,6.14,4.66.18.69-.23,1.39-.91,1.58-.69.18-1.39-.23-1.58-.91-.43-1.6-1.93-2.73-3.64-2.75-1.66.02-3.12,1.16-3.53,2.79-.15.58-.67.97-1.25.97-.1,0-.21-.01-.32-.04-.69-.18-1.11-.88-.93-1.57Zm-22.81.28c.68-2.79,3.17-4.76,6.05-4.79,2.88,0,5.37,1.9,6.12,4.61.19.69-.21,1.4-.9,1.59-.69.19-1.4-.21-1.59-.9-.44-1.6-1.91-2.72-3.57-2.72-1.74.02-3.21,1.18-3.61,2.82-.14.59-.67.98-1.25.98-.1,0-.21-.01-.31-.04-.69-.17-1.11-.87-.95-1.56Zm47.29,12.6c-8.23,7.64-18.89,11.85-30.02,11.85s-21.23-4-29.37-11.26c-.53-.47-.58-1.29-.1-1.82.47-.53,1.29-.58,1.82-.1,7.67,6.84,17.49,10.6,27.65,10.6s20.52-3.97,28.27-11.17c.52-.48,1.34-.46,1.82.07.48.52.45,1.34-.07,1.82Z"/>
  <path d="m57.33,42.71c.11.03.21.04.32.04.58,0,1.1-.39,1.25-.97.41-1.63,1.88-2.77,3.53-2.79,1.72.01,3.22,1.14,3.64,2.75.18.69.89,1.1,1.58.91.69-.18,1.1-.89.91-1.58-.72-2.72-3.24-4.64-6.14-4.66-2.85.03-5.33,1.98-6.03,4.73-.18.69.24,1.39.93,1.57Z"/>
  <path d="m34.53,42.98c.1.03.21.04.31.04.58,0,1.11-.39,1.25-.98.4-1.64,1.87-2.8,3.61-2.82,1.66,0,3.13,1.12,3.57,2.72.19.69.9,1.09,1.59.9.69-.19,1.09-.9.9-1.59-.75-2.72-3.24-4.61-6.12-4.61-2.88.03-5.37,2-6.05,4.79-.17.69.25,1.39.95,1.56Z"/>
  <path d="m79.12,52.13c-7.75,7.2-17.79,11.17-28.27,11.17s-19.99-3.77-27.65-10.6c-.53-.47-1.35-.43-1.82.1-.47.53-.43,1.35.1,1.82,8.14,7.26,18.57,11.26,29.37,11.26s21.79-4.21,30.02-11.85c.52-.48.55-1.3.07-1.82-.48-.52-1.3-.55-1.82-.07Z"/>
</svg>