<?xml version="1.0" encoding="UTF-8"?>
<svg id="Layer_1" data-name="Layer 1" xmlns="http://www.w3.org/2000/svg" viewBox="0 0 37 37">
  <defs>
    <style>
      .cls-1 {
        fill: none;
      }

      .cls-1, .cls-2, .cls-3 {
        stroke-width: 0px;
      }

      .cls-2 {
        fill: #e41e26;
      }

      .cls-3 {
        fill: #fff;
      }
    </style>
  </defs>
  <circle class="cls-2" cx="18.5" cy="18.5" r="18.5"/>
  <g>
    <circle class="cls-1" cx="18.5" cy="14.16" r="3.01"/>
    <path class="cls-3" d="m26.64,12.51c-.32-1.71-1.2-3.23-2.55-4.4-1.35-1.17-3.05-1.87-4.92-2.04-3.06-.27-5.61.91-7.38,3.43-1.86,2.65-2.1,5.51-.7,8.26,1.19,2.33,2.47,4.66,3.71,6.91.4.73.82,1.49,1.23,2.24.46.84.93,1.66,1.42,2.52.23.4.47.82.71,1.25.1.18.29.29.49.29,0,0,0,0,0,0,.21,0,.4-.12.49-.3l.5-.95c.34-.64.65-1.23.96-1.83l1.21-2.29c1.37-2.58,2.73-5.17,4.1-7.75.82-1.55,1.05-3.35.69-5.34Zm-8.14,4.66c-1.66,0-3.01-1.35-3.01-3.01s1.35-3.01,3.01-3.01,3.01,1.35,3.01,3.01-1.35,3.01-3.01,3.01Z"/>
  </g>
</svg>