<?xml version="1.0" encoding="UTF-8"?>
<svg id="Layer_1" data-name="Layer 1" xmlns="http://www.w3.org/2000/svg" viewBox="0 0 37 37">
  <defs>
    <style>
      .cls-1 {
        fill: none;
      }

      .cls-1, .cls-2, .cls-3 {
        stroke-width: 0px;
      }

      .cls-2 {
        fill: #e41e26;
      }

      .cls-3 {
        fill: #fff;
      }
    </style>
  </defs>
  <circle class="cls-2" cx="18.5" cy="18.5" r="18.5"/>
  <g>
    <path class="cls-1" d="m24.25,18.31h-11.51c-.73,0-1.32.59-1.32,1.32s.59,1.32,1.32,1.32h11.51c.73,0,1.32-.59,1.32-1.32s-.59-1.32-1.32-1.32Z"/>
    <path class="cls-1" d="m24.25,12.49h-11.51c-.73,0-1.32.59-1.32,1.32s.59,1.32,1.32,1.32h11.51c.73,0,1.32-.59,1.32-1.32s-.59-1.32-1.32-1.32Z"/>
    <path class="cls-3" d="m27.13,9.18H9.87c-.43,0-.78.35-.78.78v13.57c0,.43.35.78.78.78h2.3v2.74c0,.3.18.58.45.71.1.05.22.07.33.07.18,0,.36-.06.51-.19l3.87-3.33h9.8c.43,0,.78-.35.78-.78v-13.57c0-.43-.35-.78-.78-.78Zm-2.88,11.78h-11.51c-.73,0-1.32-.59-1.32-1.32s.59-1.32,1.32-1.32h11.51c.73,0,1.32.59,1.32,1.32s-.59,1.32-1.32,1.32Zm0-5.82h-11.51c-.73,0-1.32-.59-1.32-1.32s.59-1.32,1.32-1.32h11.51c.73,0,1.32.59,1.32,1.32s-.59,1.32-1.32,1.32Z"/>
  </g>
</svg>