<?xml version="1.0" encoding="UTF-8"?>
<svg id="Layer_1" data-name="Layer 1" xmlns="http://www.w3.org/2000/svg" viewBox="0 0 37 37">
  <defs>
    <style>
      .cls-1 {
        fill: #e41e26;
      }

      .cls-1, .cls-2, .cls-3 {
        stroke-width: 2px;
      }

      .cls-2 {
        fill: #e41e26;
      }

      .cls-3 {
        fill: #fff;
      }
    </style>
  </defs>
  <circle class="cls-2" cx="18.5" cy="18.5" r="18.5"/>
  <g>
    <path class="cls-1" d="m24.93,23.45c-1.73-2.16-5.4-2.33-5.4-2.33,0,0-.05,0-.05-.9,1.18-.64,1.95-1.86,2.01-3.2v-2.63c0-2.63-2.88-2.47-2.88-2.47h-.22s-2.88-.16-2.88,2.47v2.63c.07,1.34.83,2.56,2.01,3.2,0,.9-.05.9-.05.9,0,0-3.65.16-5.38,2.31l-.04.08c-.12.17-.19.38-.19.6,0,.57.46,1.03,1.03,1.03h11.23c.57,0,1.03-.46,1.03-1.03,0-.22-.07-.43-.19-.6l-.02-.06Z"/>
    <path class="cls-3" d="m25.55,6.94h-8.7l-6.61,6.64v15.28c0,.66.54,1.21,1.21,1.21h14.11c.66,0,1.21-.54,1.21-1.21V8.14c0-.66-.54-1.21-1.21-1.21Zm-1.44,18.21h-11.23c-.57,0-1.03-.46-1.03-1.03,0-.22.07-.43.19-.6l.04-.08c1.73-2.14,5.38-2.31,5.38-2.31,0,0,.05,0,.05-.9-1.18-.64-1.94-1.86-2.01-3.2v-2.63c0-2.63,2.88-2.47,2.88-2.47h.22s2.88-.16,2.88,2.47v2.63c-.07,1.34-.83,2.56-2.01,3.2,0,.9.05.9.05.9,0,0,3.67.17,5.4,2.33l.02.06c.12.17.19.38.19.6,0,.57-.46,1.03-1.03,1.03Z"/>
  </g>
</svg>