<?xml version="1.0" encoding="UTF-8"?>
<svg id="Layer_1" data-name="Layer 1" xmlns="http://www.w3.org/2000/svg" viewBox="0 0 37 37">
  <defs>
    <style>
      .cls-1 {
        fill: none;
      }

      .cls-1, .cls-2, .cls-3 {
        stroke-width: 0px;
      }

      .cls-2 {
        fill: #e41e26;
      }

      .cls-3 {
        fill: #fff;
      }
    </style>
  </defs>
  <circle class="cls-2" cx="18.5" cy="18.5" r="18.5"/>
  <g>
    <path class="cls-1" d="m18.5,9.8c-4.8,0-8.7,3.9-8.7,8.7s3.9,8.7,8.7,8.7,8.7-3.9,8.7-8.7-3.9-8.7-8.7-8.7Zm1.22,13.94c0,.46-.11.82-.34,1.07-.22.25-.56.38-1.01.38-.41,0-.74-.13-.98-.38-.24-.25-.36-.61-.36-1.07v-6.09c0-.47.12-.83.36-1.07.24-.24.56-.36.98-.36.44,0,.77.12,1,.36.23.24.35.6.35,1.07v6.09Zm-.2-9.34c-.27.24-.65.36-1.14.36s-.86-.12-1.12-.36c-.26-.24-.39-.57-.39-1.01s.13-.75.39-.99c.26-.23.63-.35,1.12-.35s.88.12,1.14.35c.27.23.4.56.4.99s-.13.78-.4,1.01Z"/>
    <path class="cls-3" d="m18.37,16.21c-.41,0-.74.12-.98.36-.24.24-.36.6-.36,1.07v6.09c0,.46.12.82.36,1.07.24.25.56.38.98.38.45,0,.79-.13,1.01-.38.22-.25.34-.61.34-1.07v-6.09c0-.47-.12-.83-.35-1.07-.23-.24-.57-.36-1-.36Z"/>
    <path class="cls-3" d="m19.52,12.4c-.27-.23-.65-.35-1.14-.35s-.86.12-1.12.35c-.26.23-.39.56-.39.99s.13.78.39,1.01c.26.24.63.36,1.12.36s.88-.12,1.14-.36c.27-.24.4-.57.4-1.01s-.13-.75-.4-.99Z"/>
    <path class="cls-3" d="m18.5,7.79c-5.91,0-10.71,4.81-10.71,10.71s4.81,10.71,10.71,10.71,10.71-4.81,10.71-10.71-4.81-10.71-10.71-10.71Zm0,19.41c-4.8,0-8.7-3.9-8.7-8.7s3.9-8.7,8.7-8.7,8.7,3.9,8.7,8.7-3.9,8.7-8.7,8.7Z"/>
  </g>
</svg>