<?xml version="1.0" encoding="UTF-8"?>
<svg id="Layer_1" data-name="Layer 1" xmlns="http://www.w3.org/2000/svg" viewBox="0 0 37 37">
  <defs>
    <style>
      .cls-1 {
        fill: #f8b318;
      }

      .cls-1, .cls-2 {
        stroke-width: 0px;
      }

      .cls-2 {
        fill: #fff;
      }
    </style>
  </defs>
  <circle class="cls-1" cx="18.5" cy="18.5" r="18.5"/>
  <g>
    <path class="cls-2" d="m21.69,23.88c-.27-.14-.56-.19-.88-.13-.36.07-.74.46-.73.84,0,.37,0,.73-.02,1.1,0,.19-.02.39-.1.56-.18.42-.53.6-.97.6-2.12,0-4.24,0-6.36,0-.3,0-.54-.14-.73-.38-.18-.23-.19-.5-.19-.78,0-2.7,0-5.41,0-8.11,0-.08,0-.16,0-.24,0-.49.4-.91.96-.91,2.12,0,4.24,0,6.36,0,.34,0,.67.11.84.44.11.21.16.46.18.7.03.39,0,.78.03,1.16.05.54.49.84.99.83.56,0,1-.31,1.04-.88.04-.57,0-1.14-.04-1.71-.04-.64-.33-1.18-.76-1.64-.64-.7-1.46-.99-2.39-.99-2.01,0-4.02,0-6.03,0-.25,0-.5.01-.74.05-.81.14-1.48.53-1.96,1.22-.41.59-.58,1.24-.58,1.95,0,2.72,0,5.43,0,8.15,0,.26.02.52.07.78.18.9.67,1.6,1.47,2.03.34.18.72.28,1.09.41h7.17c.08-.03.17-.06.25-.08,1.13-.26,1.9-.92,2.28-2.03.25-.72.2-1.46.16-2.19-.02-.31-.15-.6-.45-.75Z"/>
    <path class="cls-2" d="m27.37,11.71c0-.34-.02-.69-.07-1.03-.13-.99-.66-1.72-1.52-2.21-.5-.29-1.05-.39-1.61-.4-1.98-.01-3.95,0-5.93,0-.43,0-.86.02-1.28.16-.6.2-1.09.54-1.47,1.04-.41.54-.63,1.14-.63,1.82,0,.42-.03.85.02,1.27.06.55.45.79.92.84.45.04.92-.19,1.08-.69.04-.14.06-.3.07-.45.01-.29.01-.58,0-.88-.01-.64.42-1.01,1.03-1.01,2.09,0,4.17,0,6.26,0,.27,0,.54.06.75.28.25.25.31.56.31.89,0,1.35,0,2.7,0,4.05,0,.71,0,1.41,0,2.12,0,.71,0,1.43-.02,2.14-.02.56-.43.94-.99.94-2.15,0-4.29,0-6.44,0-.43,0-.87-.43-.88-.84,0-.39,0-.77-.02-1.16-.01-.21-.06-.44-.15-.63-.2-.39-.57-.48-1-.48-.51,0-.89.37-.93.83-.04.52-.07,1.05,0,1.56.09.82.42,1.53,1.08,2.07.58.48,1.23.73,1.98.73,2.07,0,4.14,0,6.21,0,.25,0,.5,0,.74-.06.83-.17,1.5-.59,1.97-1.3.38-.57.54-1.21.54-1.88,0-2.57,0-5.15,0-7.72Z"/>
  </g>
</svg>