<?xml version="1.0" encoding="UTF-8"?>
<svg id="Layer_1" data-name="Layer 1" xmlns="http://www.w3.org/2000/svg" viewBox="0 0 37 37">
  <defs>
    <style>
      .cls-1 {
        fill: none;
      }

      .cls-1, .cls-2, .cls-3 {
        stroke-width: 0px;
      }

      .cls-2 {
        fill: #e41e26;
      }

      .cls-3 {
        fill: #fff;
      }
    </style>
  </defs>
  <circle class="cls-2" cx="18.5" cy="18.5" r="18.5"/>
  <g>
    <path class="cls-1" d="m10.25,24.75l8.46,2.29V9.99l-8.46,2.48v12.28Zm.69-3.51l.02-.04c.89-1.11,2.77-1.07,2.77-1.07,0,0,.03,0,.03-.58-.61-.43-1-1.18-1.03-2v-1.61c0-1.6,1.48-1.87,1.48-1.87l.11-.03s1.48-.48,1.48,1.41v1.88c-.03.96-.42,1.82-1.03,2.25,0,.61.03.61.03.61,0,0,1.89.26,2.78,2v.05c.07.14.11.31.11.48,0,.44-.24.75-.53.69l-.15-.03-5.43-1.14-.21-.04c-.29-.06-.53-.36-.53-.67,0-.12.04-.23.1-.31Z"/>
    <path class="cls-3" d="m11.37,22.23l.21.04,5.43,1.14.15.03c.29.06.53-.25.53-.69,0-.17-.04-.34-.1-.48v-.05c-.9-1.74-2.79-2-2.79-2,0,0-.03,0-.03-.61.61-.43,1-1.28,1.03-2.25v-1.88c0-1.88-1.48-1.41-1.48-1.41l-.11.03s-1.48.26-1.48,1.87v1.61c.03.82.43,1.57,1.03,2,0,.58-.03.58-.03.58,0,0-1.88-.04-2.77,1.07l-.02.04c-.06.08-.1.19-.1.31,0,.31.24.61.53.67Z"/>
    <path class="cls-3" d="m20.47,7.64c-.28-.21-.64-.27-.97-.18l-10.67,3.12c-.47.14-.79.57-.79,1.06v13.95c0,.5.34.94.82,1.07l10.67,2.88c.09.03.19.04.29.04.24,0,.48-.08.67-.23.27-.21.43-.53.43-.88V8.52c0-.35-.17-.68-.44-.88Zm-1.77,19.4l-8.46-2.29v-12.28l8.46-2.48v17.05Z"/>
    <path class="cls-3" d="m24.65,9.77c-.23-.21-.55-.31-.86-.28l-2.06.22v2.2l1.08-.1v13.58l-1.08-.08.03,2.2,2.07.17s.06,0,.09,0c.28,0,.54-.1.75-.29.23-.21.36-.5.36-.81v-15.99c0-.31-.13-.61-.37-.82Z"/>
    <path class="cls-3" d="m28.66,12.89c-.19-.18-.45-.27-.71-.25l-2.08.14v1.88l1.2-.07v7.99l-1.19-.06v1.89l2.09.11s.03,0,.05,0c.24,0,.47-.09.65-.26.19-.18.29-.43.29-.68v-9.99c0-.26-.11-.51-.3-.69Z"/>
  </g>
</svg>