<?xml version="1.0" encoding="UTF-8"?>
<svg id="Layer_1" data-name="Layer 1" xmlns="http://www.w3.org/2000/svg" viewBox="0 0 37 37">
  <defs>
    <style>
      .cls-1 {
        fill: none;
      }

      .cls-1, .cls-2, .cls-3 {
        stroke-width: 0px;
      }

      .cls-2 {
        fill: #228cce;
      }

      .cls-3 {
        fill: #fff;
      }
    </style>
  </defs>
  <circle class="cls-2" cx="18.5" cy="18.5" r="18.5"/>
  <g>
    <path class="cls-1" d="m20.91,12.02c0-.09-.08-.17-.17-.17h-4.46c-.09,0-.17.08-.17.17v1.03h4.8v-1.03Z"/>
    <path class="cls-1" d="m26.82,16.73H10.14c-.12,0-.21.09-.21.21v.82c0,.12.09.21.21.21h2.25v1.89c0,.32.26.59.59.59h1.28c.32,0,.59-.26.59-.59v-1.89h7.31v1.89c0,.32.26.59.59.59h1.28c.32,0,.59-.26.59-.59v-1.89h2.21c.12,0,.21-.09.21-.21v-.82c0-.12-.09-.21-.21-.21Z"/>
    <path class="cls-3" d="m26.99,13.05h-4.72v-1.03c0-.84-.69-1.53-1.53-1.53h-4.46c-.84,0-1.53.69-1.53,1.53v1.03h-4.75c-.66,0-1.19.53-1.19,1.19v11.08c0,.66.53,1.19,1.19,1.19h16.99c.66,0,1.19-.53,1.19-1.19v-11.08c0-.66-.53-1.19-1.19-1.19Zm-10.88-1.03c0-.09.08-.17.17-.17h4.46c.09,0,.17.08.17.17v1.03h-4.8v-1.03Zm10.92,5.74c0,.12-.09.21-.21.21h-2.21v1.89c0,.32-.26.59-.59.59h-1.28c-.32,0-.59-.26-.59-.59v-1.89h-7.31v1.89c0,.32-.26.59-.59.59h-1.28c-.32,0-.59-.26-.59-.59v-1.89h-2.25c-.12,0-.21-.09-.21-.21v-.82c0-.12.09-.21.21-.21h16.68c.12,0,.21.09.21.21v.82Z"/>
  </g>
</svg>