<?xml version="1.0" encoding="UTF-8"?>
<svg id="Layer_1" data-name="Layer 1" xmlns="http://www.w3.org/2000/svg" viewBox="0 0 37 37">
  <defs>
    <style>
      .cls-1 {
        fill: none;
      }

      .cls-1, .cls-2, .cls-3 {
        stroke-width: 0px;
      }

      .cls-2 {
        fill: #e41e26;
      }

      .cls-3 {
        fill: #fff;
      }
    </style>
  </defs>
  <circle class="cls-2" cx="18.5" cy="18.5" r="18.5"/>
  <g>
    <ellipse class="cls-1" cx="13.02" cy="17.39" rx="1.64" ry="1.58"/>
    <ellipse class="cls-1" cx="18.5" cy="17.39" rx="1.64" ry="1.58"/>
    <ellipse class="cls-1" cx="23.98" cy="17.39" rx="1.64" ry="1.58"/>
    <path class="cls-3" d="m28.37,9.24H8.63c-.49,0-.89.38-.89.86v14.93c0,.47.4.86.89.86h2.63v3.01c0,.34.2.64.52.78.12.05.25.08.37.08.21,0,.42-.07.58-.21l4.42-3.66h11.21c.49,0,.89-.38.89-.86v-14.93c0-.47-.4-.86-.89-.86Zm-15.35,9.72c-.9,0-1.64-.71-1.64-1.58s.73-1.58,1.64-1.58,1.64.71,1.64,1.58-.73,1.58-1.64,1.58Zm5.48,0c-.9,0-1.64-.71-1.64-1.58s.73-1.58,1.64-1.58,1.64.71,1.64,1.58-.73,1.58-1.64,1.58Zm5.48,0c-.9,0-1.64-.71-1.64-1.58s.73-1.58,1.64-1.58,1.64.71,1.64,1.58-.73,1.58-1.64,1.58Z"/>
  </g>
</svg>