<?xml version="1.0" encoding="UTF-8"?>
<svg id="Layer_1" data-name="Layer 1" xmlns="http://www.w3.org/2000/svg" viewBox="0 0 37 37">
  <defs>
    <style>
      .cls-1 {
        fill: #e41e26;
      }

      .cls-1, .cls-2 {
        stroke-width: 0px;
      }

      .cls-2 {
        fill: #fff;
      }
    </style>
  </defs>
  <circle class="cls-1" cx="18.5" cy="18.5" r="18.5"/>
  <path class="cls-2" d="m27.6,18.12c-.14-.23-3.55-5.57-9.4-5.57-2.45,0-4.77.98-6.69,2.82-1.43,1.38-2.15,2.75-2.18,2.81l-.18.35.15.36c.02.06.61,1.43,2,2.8,1.29,1.26,3.53,2.77,6.93,2.77,2.67,0,5.14-.95,7.15-2.74,1.51-1.35,2.23-2.71,2.26-2.76l.22-.42-.25-.4Zm-10.67-3.25c.87,0,1.57.7,1.57,1.57s-.7,1.57-1.57,1.57-1.57-.7-1.57-1.57.7-1.57,1.57-1.57Zm7.29,5.64c-1.71,1.51-3.72,2.27-5.99,2.27s-4.17-.75-5.71-2.24c-.78-.75-1.26-1.52-1.5-1.95.28-.45.84-1.26,1.68-2.05.53-.5,1.08-.92,1.65-1.26-.32.63-.5,1.34-.5,2.09,0,2.56,2.07,4.63,4.63,4.63s4.63-2.07,4.63-4.63c0-.61-.12-1.19-.33-1.72,1.56,1.01,2.64,2.3,3.12,2.94-.3.45-.85,1.19-1.68,1.91Z"/>
</svg>