<?xml version="1.0" encoding="UTF-8"?>
<svg id="Layer_1" data-name="Layer 1" xmlns="http://www.w3.org/2000/svg" viewBox="0 0 37 37">
  <defs>
    <style>
      .cls-1 {
        fill: #e41e26;
      }

      .cls-1, .cls-2 {
        stroke-width: 0px;
      }

      .cls-2 {
        fill: #fff;
      }
    </style>
  </defs>
  <circle class="cls-1" cx="18.5" cy="18.5" r="18.5"/>
  <g>
    <path class="cls-2" d="m28.49,19.28v-3.98c0-.11-.09-.2-.2-.2H10.73c.05-1.07.42-1.83,1.11-2.28.55-.36,1.12-.37,1.12-.37h1.73s.06,0,.09-.02l2.6-1.4c.08-.04.12-.13.1-.22-.02-.09-.1-.15-.19-.15h-4.34c-1.7,0-4.41,1.25-4.45,4.61,0,.01,0,.02,0,.03v10.53c0,1.27,1.03,2.3,2.3,2.3h15.38c1.27,0,2.3-1.03,2.3-2.3v-1.64c0-.11-.09-.2-.2-.2h-6.98c-.67,0-1.21-.54-1.21-1.21v-2.1c0-.67.54-1.21,1.21-1.21h6.98c.11,0,.2-.09.2-.2Z"/>
    <path class="cls-2" d="m15.61,13.92c.03.12.14.2.27.2h10.97c.1,0,.2-.06.24-.15.05-.09.04-.2-.02-.28l-3.23-4.7c-.08-.12-.25-.16-.37-.08l-7.74,4.7c-.11.06-.16.19-.12.31Z"/>
    <path class="cls-2" d="m21.36,21.73c0,.58.47,1.05,1.05,1.05s1.05-.47,1.05-1.05-.47-1.05-1.05-1.05-1.05.47-1.05,1.05Z"/>
  </g>
</svg>