<?xml version="1.0" encoding="UTF-8"?>
<svg id="Layer_1" data-name="Layer 1" xmlns="http://www.w3.org/2000/svg" viewBox="0 0 37 37">
  <defs>
    <style>
      .cls-1 {
        fill: #e41e26;
      }

      .cls-1, .cls-2 {
        stroke-width: 0px;
      }

      .cls-2 {
        fill: #fff;
      }
    </style>
  </defs>
  <circle class="cls-1" cx="18.5" cy="18.5" r="18.5"/>
  <g>
    <g id="Group_932" data-name="Group 932">
      <path id="Path_2267" data-name="Path 2267" class="cls-2" d="m19.45,13.77s-.04,0-.04-.62c.82-.45,1.35-1.29,1.4-2.23v-1.83c0-1.83-2-1.72-2-1.72h-.15s-2-.11-2,1.72v1.83c.05.94.58,1.78,1.4,2.23,0,.62-.04.62-.04.62,0,0-2.54.11-3.75,1.61l-.03.05c-.08.12-.13.26-.13.42s.32.72.72.72h.28s7.34,0,7.34,0h.2c.4,0,.72-.32.72-.72,0-.16-.05-.3-.13-.42l-.02-.04c-1.2-1.5-3.76-1.62-3.76-1.62"/>
    </g>
    <g id="Group_932-2" data-name="Group 932">
      <path id="Path_2267-2" data-name="Path 2267" class="cls-2" d="m12.29,24.84s-.04,0-.04-.62c.82-.45,1.35-1.29,1.4-2.23v-1.83c0-1.83-2-1.72-2-1.72h-.15s-2-.11-2,1.72v1.83c.05.94.58,1.78,1.4,2.23,0,.62-.04.62-.04.62,0,0-2.54.11-3.75,1.61l-.03.05c-.08.12-.13.26-.13.42,0,.4.32.72.72.72h.28s7.34,0,7.34,0h.2c.4,0,.72-.32.72-.72,0-.16-.05-.3-.13-.42l-.02-.04c-1.2-1.5-3.76-1.62-3.76-1.62"/>
    </g>
    <g id="Group_932-3" data-name="Group 932">
      <path id="Path_2267-3" data-name="Path 2267" class="cls-2" d="m26.15,24.84s-.04,0-.04-.62c.82-.45,1.35-1.29,1.4-2.23v-1.83c0-1.83-2-1.72-2-1.72h-.15s-2-.11-2,1.72v1.83c.05.94.58,1.78,1.4,2.23,0,.62-.04.62-.04.62,0,0-2.54.11-3.75,1.61l-.03.05c-.08.12-.13.26-.13.42s.32.72.72.72h.28s7.34,0,7.34,0h.2c.4,0,.72-.32.72-.72,0-.16-.05-.3-.13-.42l-.02-.04c-1.2-1.5-3.76-1.62-3.76-1.62"/>
    </g>
    <path class="cls-2" d="m21.66,23.15l-2.23-2.23v-2.75c0-.51-.42-.93-.93-.93s-.93.42-.93.93v2.75l-2.23,2.23c-.36.36-.36.95,0,1.32.18.18.42.27.66.27s.48-.09.66-.27l1.84-1.84,1.84,1.84c.18.18.42.27.66.27s.48-.09.66-.27c.36-.36.36-.95,0-1.32Z"/>
  </g>
</svg>