<?xml version="1.0" encoding="UTF-8"?>
<svg id="Layer_1" data-name="Layer 1" xmlns="http://www.w3.org/2000/svg" viewBox="0 0 37 37">
  <defs>
    <style>
      .cls-1 {
        fill: #e41e26;
      }

      .cls-1, .cls-2 {
        stroke-width: 0px;
      }

      .cls-2 {
        fill: #fff;
      }
    </style>
  </defs>
  <circle class="cls-1" cx="18.5" cy="18.5" r="18.5"/>
  <g>
    <path class="cls-2" d="m26.69,24.04h-3.91c-.29-.91-1.14-1.57-2.14-1.57s-1.86.66-2.14,1.57h-8.17c-.56,0-1.02.46-1.02,1.02s.46,1.02,1.02,1.02h8.54c.41.53,1.05.87,1.77.87s1.36-.34,1.77-.87h4.28c.56,0,1.02-.46,1.02-1.02s-.46-1.02-1.02-1.02Z"/>
    <path class="cls-2" d="m26.69,17.77h-9.78c-.35-.78-1.14-1.32-2.05-1.32s-1.7.54-2.05,1.32h-2.5c-.56,0-1.02.46-1.02,1.02s.46,1.02,1.02,1.02h2.61c.39.67,1.11,1.12,1.94,1.12s1.55-.45,1.94-1.12h9.88c.56,0,1.02-.46,1.02-1.02s-.46-1.02-1.02-1.02Z"/>
    <path class="cls-2" d="m10.31,13.35h10.75c.38.7,1.12,1.18,1.98,1.18s1.6-.48,1.98-1.18h1.66c.56,0,1.02-.46,1.02-1.02s-.46-1.02-1.02-1.02h-1.62c-.36-.75-1.13-1.26-2.02-1.26s-1.65.51-2.02,1.26h-10.72c-.56,0-1.02.46-1.02,1.02s.46,1.02,1.02,1.02Z"/>
  </g>
</svg>