<?xml version="1.0" encoding="UTF-8"?>
<svg id="Layer_1" data-name="Layer 1" xmlns="http://www.w3.org/2000/svg" viewBox="0 0 37 37">
  <defs>
    <style>
      .cls-1 {
        fill: #e41e26;
      }

      .cls-1, .cls-2 {
        stroke-width: 0px;
      }

      .cls-2 {
        fill: #fff;
      }
    </style>
  </defs>
  <circle class="cls-1" cx="18.5" cy="18.5" r="18.5"/>
  <g>
    <path class="cls-2" d="m11.66,7.59c-.48,0-.87.39-.87.87v20.09c0,.48.39.87.87.87s.87-.39.87-.87V8.46c0-.48-.39-.87-.87-.87Z"/>
    <path class="cls-2" d="m26.04,16.97l-3.77-3.46,3.77-3.46c.15-.14.21-.36.13-.56-.08-.19-.26-.32-.47-.32h-11.63c-.28,0-.51.23-.51.51v7.66c0,.28.23.51.51.51h11.63c.21,0,.4-.13.47-.32.08-.19.02-.42-.13-.56Z"/>
  </g>
</svg>