<?xml version="1.0" encoding="UTF-8"?>
<svg id="Layer_1" data-name="Layer 1" xmlns="http://www.w3.org/2000/svg" viewBox="0 0 37 37">
  <defs>
    <style>
      .cls-1 {
        fill: none;
      }

      .cls-1, .cls-2, .cls-3 {
        stroke-width: 0px;
      }

      .cls-2 {
        fill: #e41e26;
      }

      .cls-3 {
        fill: #fff;
      }
    </style>
  </defs>
  <circle class="cls-2" cx="18.5" cy="18.5" r="18.5"/>
  <g>
    <path class="cls-1" d="m24.56,14.26c-1.62-1.56-3.77-2.42-6.06-2.42s-4.44.86-6.06,2.42c-1.62,1.56-2.51,3.63-2.51,5.83s.89,4.27,2.51,5.83c1.62,1.56,3.77,2.42,6.06,2.42s4.44-.86,6.06-2.42c1.62-1.56,2.51-3.63,2.51-5.83s-.89-4.27-2.51-5.83Zm-5.8,5.67v-6.4c3.67,0,6.65,2.87,6.65,6.4h-6.65Z"/>
    <path class="cls-3" d="m26.11,12.76c-.9-.87-1.94-1.57-3.08-2.08-1.07-.48-2.2-.78-3.37-.9v-1.01h.65c.64,0,1.15-.5,1.15-1.11s-.52-1.11-1.15-1.11h-3.6c-.64,0-1.15.5-1.15,1.11s.52,1.11,1.15,1.11h.65v1.01c-1.17.12-2.31.42-3.37.9-1.14.51-2.18,1.21-3.08,2.08-2.03,1.96-3.15,4.56-3.15,7.32s1.12,5.37,3.15,7.32c2.03,1.96,4.73,3.03,7.61,3.03s5.58-1.08,7.61-3.03c2.03-1.96,3.15-4.56,3.15-7.32s-1.12-5.37-3.15-7.32Zm-1.55,13.15c-1.62,1.56-3.77,2.42-6.06,2.42s-4.44-.86-6.06-2.42c-1.62-1.56-2.51-3.63-2.51-5.83s.89-4.27,2.51-5.83c1.62-1.56,3.77-2.42,6.06-2.42s4.44.86,6.06,2.42,2.51,3.63,2.51,5.83-.89,4.27-2.51,5.83Z"/>
    <path class="cls-3" d="m18.75,13.53v6.4h6.65c0-3.54-2.98-6.4-6.65-6.4Z"/>
  </g>
</svg>