<?xml version="1.0" encoding="UTF-8"?>
<svg id="Layer_1" data-name="Layer 1" xmlns="http://www.w3.org/2000/svg" viewBox="0 0 37 37">
  <defs>
    <style>
      .cls-1 {
        fill: #1db954;
      }

      .cls-1, .cls-2 {
        stroke-width: 0px;
      }

      .cls-2 {
        fill: #fff;
      }
    </style>
  </defs>
  <circle class="cls-1" cx="18.5" cy="18.5" r="18.5"/>
  <path class="cls-2" d="m29.08,26.52l-6.4-6.16c-.33-.32-.87-.32-1.21,0l-.36-.34c2.53-2.88,2.38-7.21-.44-9.92-1.44-1.39-3.35-2.15-5.39-2.15s-3.95.76-5.39,2.15c-2.97,2.86-2.97,7.52,0,10.38,1.49,1.43,3.44,2.15,5.39,2.15,1.63,0,3.27-.5,4.63-1.5l.38.37c-.33.32-.33.84,0,1.16l6.4,6.16c.33.32.88.32,1.21,0l1.17-1.12c.33-.32.33-.84,0-1.16Zm-17.86-7.31c-2.25-2.17-2.25-5.69,0-7.85,1.09-1.05,2.54-1.63,4.08-1.63s2.99.58,4.08,1.63c2.25,2.17,2.25,5.69,0,7.85-2.25,2.17-5.91,2.17-8.16,0Z"/>
</svg>