<?xml version="1.0" encoding="UTF-8"?>
<svg id="Layer_1" data-name="Layer 1" xmlns="http://www.w3.org/2000/svg" viewBox="0 0 25 25" style="fill:white">
  <path d="m13.38,13.82c-.32.21-.68.32-1.07.29-.33-.02-.63-.16-.9-.34-1.47-.99-2.95-1.97-4.42-2.95-.04-.03-.08-.05-.13-.09v.15c0,1.65,0,3.3,0,4.95,0,.29.16.53.39.7.21.16.45.22.71.22,3,0,6.01,0,9.01,0,.47,0,.93-.36,1.01-.78,0-.02.03-.03.04-.04v-5.2c-.19.12-.39.24-.58.37-1.36.9-2.71,1.81-4.07,2.72Z"/>
  <path d="m17.97,9.08c-.15-.43-.53-.7-1.04-.71-2.82,0-5.63,0-8.45,0-.24,0-.49,0-.73.02-.23,0-.42.1-.58.25-.23.22-.35.49-.33.82.02.31.14.56.39.73,1.55,1.04,3.1,2.08,4.66,3.11.2.13.42.18.66.14.24-.04.43-.16.63-.29,1.39-.92,2.78-1.85,4.17-2.77.23-.15.46-.3.57-.57.03-.07.06-.14.09-.21v-.35c-.02-.05-.04-.11-.06-.16Z"/>
</svg>