<?xml version="1.0" encoding="UTF-8"?>
<svg id="Layer_1" data-name="Layer 1" xmlns="http://www.w3.org/2000/svg" viewBox="0 0 25 25" style="fill:white">
  <defs>
    <style>
      .cls-1 {
        fill: none;
      }
    </style>
  </defs>
  <path class="cls-1" d="m17.5,5.62L7.14,15.98l1.79,1.79,10.36-10.36c-.09-.2-.3-.55-.77-1.02-.47-.47-.82-.68-1.02-.77Z"/>
  <path d="m19.47,5.45c-1.23-1.23-2.03-1.25-2.25-1.23-.15.02-.3.08-.41.19L6.03,15.19c-.1.1-.16.22-.19.35l-.61,3.35c-.04.22.03.44.19.59.13.13.3.2.47.2.04,0,.08,0,.12-.01l3.35-.6c.13-.02.26-.09.35-.19l10.78-10.78c.11-.11.18-.25.19-.41.02-.22,0-1.02-1.23-2.25Zm-10.54,12.33l-1.79-1.79,10.36-10.36c.2.09.55.3,1.02.77.47.47.68.82.77,1.02l-10.36,10.36Z"/>
</svg>