<?xml version="1.0" encoding="UTF-8"?>
<svg id="Layer_1" data-name="Layer 1" xmlns="http://www.w3.org/2000/svg" viewBox="0 0 25 25" style="
    fill: white;
">
  <defs>
    <style>
      .cls-1 {
        fill: none;
      }
    </style>
  </defs>
  <path class="cls-1" d="m15.56,9.74h-6.22c-.39,0-.71.32-.71.71s.32.71.71.71h6.22c.39,0,.71-.32.71-.71s-.32-.71-.71-.71Z"/>
  <path class="cls-1" d="m15.56,12.89h-6.22c-.39,0-.71.32-.71.71s.32.71.71.71h6.22c.39,0,.71-.32.71-.71s-.32-.71-.71-.71Z"/>
  <path d="m17.11,7.95H7.78c-.23,0-.42.19-.42.42v7.33c0,.23.19.42.42.42h1.25v1.48c0,.17.1.31.25.38.06.03.12.04.18.04.1,0,.2-.04.28-.1l2.09-1.8h5.3c.23,0,.42-.19.42-.42v-7.33c0-.23-.19-.42-.42-.42Zm-1.56,6.37h-6.22c-.39,0-.71-.32-.71-.71s.32-.71.71-.71h6.22c.39,0,.71.32.71.71s-.32.71-.71.71Zm0-3.15h-6.22c-.39,0-.71-.32-.71-.71s.32-.71.71-.71h6.22c.39,0,.71.32.71.71s-.32.71-.71.71Z"/>
</svg>