<?xml version="1.0" encoding="UTF-8"?>
<svg id="Layer_1" data-name="Layer 1" xmlns="http://www.w3.org/2000/svg" viewBox="0 0 25 25" style="fill:white">
  <path d="m19.92,17.5c-.11-.47-.42-.79-.75-1.1-.39-.36-.79-.72-1.21-1.05-.4-.32-.83-.59-1.37-.66-.46-.06-.84.06-1.18.34-.34.29-.65.62-.99.92-.43.38-.86.49-1.42.27-.56-.22-1.02-.58-1.45-.98-.67-.63-1.28-1.32-1.82-2.07-.35-.49-.66-1-.84-1.59-.15-.53-.09-1.01.34-1.39.33-.29.67-.56,1.02-.83.57-.44.78-1.08.57-1.78-.15-.49-.4-.94-.68-1.36-.26-.41-.54-.81-.83-1.2-.23-.31-.56-.52-.93-.64h-.31c-.27.09-.52.22-.73.42-.16.16-.35.28-.51.43-.3.28-.61.55-.87.87-.39.49-.67,1.04-.83,1.65-.12.43-.2.86-.21,1.3,0,.33.02.66.06.99.05.35.1.7.2,1.03.3,1.04.77,2.02,1.37,2.92.39.58.82,1.14,1.25,1.69.34.43.71.86,1.1,1.25.48.49.98.95,1.49,1.4.34.3.71.58,1.09.83.52.34,1.06.64,1.63.87.61.25,1.24.42,1.9.46.4.02.8-.02,1.2-.06.72-.08,1.37-.36,1.97-.75.27-.18.51-.4.75-.62.26-.23.53-.46.77-.71.22-.23.28-.53.21-.85Z"/>
</svg>