<?xml version="1.0" encoding="UTF-8"?>
<svg id="Layer_1" data-name="Layer 1" xmlns="http://www.w3.org/2000/svg" viewBox="0 0 25 25" style="
    fill: white;
">
  <defs>
    <style>
      .cls-1 {
        fill: none;
      }
    </style>
  </defs>
  <path class="cls-1" d="m11.24,12.01c.67,0,1.21-.54,1.21-1.21s-.54-1.21-1.21-1.21-1.21.54-1.21,1.21.54,1.21,1.21,1.21Z"/>
  <path class="cls-1" d="m15.75,10.19c.16.41.26.86.26,1.33,0,1.97-1.6,3.57-3.57,3.57s-3.57-1.6-3.57-3.57c0-.58.14-1.13.39-1.61-.44.26-.87.59-1.28.97-.65.61-1.08,1.24-1.3,1.58.18.33.56.92,1.16,1.5,1.19,1.15,2.67,1.73,4.4,1.73s3.3-.59,4.62-1.75c.64-.56,1.06-1.13,1.29-1.48-.37-.5-1.2-1.49-2.41-2.27Z"/>
  <path d="m19.47,12.1c-.11-.18-2.73-4.3-7.25-4.3-1.89,0-3.68.75-5.16,2.18-1.11,1.06-1.66,2.12-1.68,2.17l-.14.27.12.28s.47,1.1,1.55,2.16c.99.97,2.72,2.13,5.34,2.13,2.06,0,3.97-.73,5.51-2.11,1.16-1.04,1.72-2.09,1.74-2.13l.17-.33-.19-.31Zm-8.23-2.51c.67,0,1.21.54,1.21,1.21s-.54,1.21-1.21,1.21-1.21-.54-1.21-1.21.54-1.21,1.21-1.21Zm5.62,4.35c-1.32,1.16-2.87,1.75-4.62,1.75s-3.22-.58-4.4-1.73c-.6-.58-.97-1.17-1.16-1.5.22-.35.65-.97,1.3-1.58.41-.39.83-.71,1.28-.97-.25.48-.39,1.03-.39,1.61,0,1.97,1.6,3.57,3.57,3.57s3.57-1.6,3.57-3.57c0-.47-.09-.92-.26-1.33,1.2.78,2.03,1.77,2.41,2.27-.23.34-.66.91-1.29,1.48Z"/>
</svg>