<?xml version="1.0" encoding="UTF-8"?>
<svg id="Layer_1" data-name="Layer 1" xmlns="http://www.w3.org/2000/svg" viewBox="0 0 25 25" style="fill:white">
  <path d="m15.48,12.33c.09-.02.17-.03.24-.07.33-.16.5-.42.49-.8,0-.34-.33-.68-.65-.72-.02,0-.04,0-.06-.01-.71,0-1.43,0-2.14,0-.23,0-.45,0-.68,0-.05,0-.09,0-.08-.07,0,0,0-.01.01-.02,0-.01,0-.03,0-.04.11-.35.16-.72.2-1.09,0-.18,0-.36,0-.54-.02-.1-.02-.21-.06-.3-.07-.2-.14-.4-.23-.59-.12-.25-.29-.47-.53-.62-.34-.21-.67-.21-1.01-.03-.14.07-.2.17-.2.32,0,.44,0,.89,0,1.33,0,.18-.04.35-.14.51-.18.3-.36.59-.54.89-.2.33-.4.67-.6,1-.07.12-.17.22-.17.38,0,1.48,0,2.95,0,4.43,0,.18.13.34.34.34,1.68,0,3.35,0,5.03,0,.06,0,.12,0,.18-.01.29-.07.58-.35.55-.71-.02-.28-.13-.5-.4-.61-.01,0-.02-.03-.04-.04.33-.02.62-.26.69-.58,0-.1,0-.2,0-.3,0-.01,0-.02,0-.04,0-.02-.02-.04-.02-.07-.07-.21-.22-.35-.43-.44.36-.07.63-.24.72-.65.03-.17,0-.33-.09-.49-.08-.16-.22-.27-.38-.35Z"/>
</svg>