<?xml version="1.0" encoding="UTF-8"?>
<svg id="Layer_1" data-name="Layer 1" xmlns="http://www.w3.org/2000/svg" viewBox="0 0 25 25" style="
    fill: white;
">
  <path d="m13.84,12.47l2.52-2.52c.32-.32.32-.83,0-1.15l-.25-.25c-.32-.32-.83-.32-1.15,0l-2.52,2.52-2.52-2.52c-.32-.32-.83-.32-1.15,0l-.25.25c-.15.15-.24.36-.24.57s.08.42.24.57l2.52,2.52-2.52,2.52c-.15.15-.24.36-.24.57s.08.42.24.57l.25.25c.15.15.36.24.57.24s.42-.08.57-.24l2.52-2.52,2.52,2.52c.15.15.36.24.57.24s.42-.08.57-.24l.25-.25c.32-.32.32-.83,0-1.15l-2.52-2.52Z"/>
</svg>