<svg id="Layer_1" data-name="Layer 1" xmlns="http://www.w3.org/2000/svg" viewBox="0 0 25 25" style="
    fill: white;
">
  <path d="m22.41,11.84l-3.56-3.56c-.17-.17-.39-.26-.63-.26s-.46.09-.63.26-.26.39-.26.63.09.46.26.63l2.04,2.04h-7.16c-.49,0-.9.4-.9.89s.4.9.9.9h7.16l-2.04,2.04c-.17.17-.26.39-.26.63s.09.46.26.63c.17.17.4.26.63.26s.46-.09.63-.26l3.56-3.56c.17-.17.26-.39.26-.63s-.09-.46-.26-.63Z"
    fill="white !important" 
  />
  <path d="m15.56,14.72c-.48,0-.86.39-.86.86v3.25s0,.04-.01.04H6.58s-.01-.02-.01-.04V6.11s0-.04.01-.04h8.11s.01.02.01.04v3.14c0,.48.39.86.86.86s.86-.39.86-.86v-3.14c0-.97-.77-1.76-1.73-1.76H6.57c-.95,0-1.73.79-1.73,1.76v12.72c0,.97.77,1.76,1.73,1.76h8.12c.95,0,1.73-.79,1.73-1.76v-3.25c0-.48-.39-.86-.86-.86Z"
    fill="white !important" 
  />
</svg>
