<?xml version="1.0" encoding="UTF-8"?>
<svg id="Layer_1" data-name="Layer 1" xmlns="http://www.w3.org/2000/svg" viewBox="0 0 25 25" style="
    fill: white;
">
  <defs>
    <style>
      .cls-1 {
        fill: none;
      }
    </style>
  </defs>
  <path class="cls-1" d="m18.41,7.55H6.86c-.1,0-.19.08-.19.19v7.92c0,.1.08.19.19.19h11.55c.1,0,.19-.08.19-.19v-7.92c0-.1-.08-.19-.19-.19Zm-5.62,7.11h-5.05c-.26,0-.46-.21-.46-.46,0-.1.03-.19.09-.27l.02-.03c.78-.96,2.42-1.04,2.42-1.04,0,0,.02,0,.02-.4-.53-.29-.87-.83-.9-1.44v-1.18c0-1.18,1.29-1.11,1.29-1.11h.1s1.29-.07,1.29,1.11v1.18c-.03.6-.37,1.15-.9,1.44,0,.4.02.4.02.4,0,0,1.65.07,2.43,1.04v.03c.06.08.1.17.1.27,0,.26-.21.46-.46.46Zm3.99-.08h-1.07c-.41,0-.74-.33-.74-.74s.33-.74.74-.74h1.07c.41,0,.74.33.74.74s-.33.74-.74.74Zm.03-2.16h-3.35c-.41,0-.74-.33-.74-.74s.33-.74.74-.74h3.35c.41,0,.74.33.74.74s-.33.74-.74.74Zm0-2.18h-3.35c-.41,0-.74-.33-.74-.74s.33-.74.74-.74h3.35c.41,0,.74.33.74.74s-.33.74-.74.74Z"/>
  <path d="m18.41,6.27H6.86c-.81,0-1.47.66-1.47,1.47v7.92c0,.81.66,1.47,1.47,1.47h11.55c.81,0,1.47-.66,1.47-1.47v-7.92c0-.81-.66-1.47-1.47-1.47Zm.19,9.39c0,.1-.08.19-.19.19H6.86c-.1,0-.19-.08-.19-.19v-7.92c0-.1.08-.19.19-.19h11.55c.1,0,.19.08.19.19v7.92Z"/>
  <path d="m13.16,13.91c-.78-.97-2.43-1.04-2.43-1.04,0,0-.02,0-.02-.4.53-.29.87-.83.9-1.44v-1.18c0-1.18-1.29-1.11-1.29-1.11h-.1s-1.29-.07-1.29,1.11v1.18c.03.6.37,1.15.9,1.44,0,.4-.02.4-.02.4,0,0-1.64.07-2.42,1.04l-.02.03c-.05.08-.09.17-.09.27,0,.26.21.46.46.46h5.05c.26,0,.46-.21.46-.46,0-.1-.03-.19-.09-.27v-.03Z"/>
  <path d="m16.81,8.75h-3.35c-.41,0-.74.33-.74.74s.33.74.74.74h3.35c.41,0,.74-.33.74-.74s-.33-.74-.74-.74Z"/>
  <path d="m16.81,10.94h-3.35c-.41,0-.74.33-.74.74s.33.74.74.74h3.35c.41,0,.74-.33.74-.74s-.33-.74-.74-.74Z"/>
  <path d="m16.78,13.09h-1.07c-.41,0-.74.33-.74.74s.33.74.74.74h1.07c.41,0,.74-.33.74-.74s-.33-.74-.74-.74Z"/>
</svg>