<?xml version="1.0" encoding="UTF-8"?>
<svg id="Layer_1" data-name="Layer 1" xmlns="http://www.w3.org/2000/svg" viewBox="0 0 25 25" style="
    fill: white;
">
  <defs>
    <style>
      .cls-1 {
        fill: none;
      }
    </style>
  </defs>
  <path class="cls-1" d="m6.73,10.28c-.35,0-.64.08-.89.25-.25.16-.44.4-.58.71-.14.31-.21.69-.21,1.13,0,.66.15,1.17.45,1.54.3.37.71.55,1.23.55.35,0,.65-.08.9-.25s.44-.41.57-.72c.13-.31.2-.69.2-1.13,0-.65-.15-1.16-.44-1.53-.29-.37-.7-.55-1.23-.55Z"/>
  <polygon class="cls-1" points="17.74 10.77 16.78 13.06 18.72 13.06 17.76 10.77 17.74 10.77"/>
  <path d="m8.61,9.18c-.54-.3-1.17-.45-1.88-.45-.53,0-1.02.09-1.46.26-.44.18-.82.42-1.14.74s-.56.7-.73,1.14c-.17.44-.25.94-.25,1.49,0,.73.15,1.36.45,1.91.3.55.72.97,1.26,1.28.53.31,1.16.46,1.86.46h0c.19,0,.35.03.47.08.12.05.22.13.29.24l.74,1.21c.12.19.27.31.44.37.17.06.35.08.52.04.17-.04.32-.11.45-.21.13-.11.21-.24.24-.41.03-.17,0-.35-.12-.54l-.37-.6c-.15-.25-.32-.42-.53-.53-.08-.04-.16-.08-.26-.1.27-.15.52-.34.73-.55.32-.32.56-.7.73-1.15.17-.45.25-.94.25-1.49,0-.73-.15-1.37-.44-1.91-.3-.54-.71-.97-1.25-1.27Zm-.41,4.31c-.13.31-.32.55-.57.72s-.55.25-.9.25c-.52,0-.93-.18-1.23-.55-.3-.37-.45-.88-.45-1.54,0-.44.07-.82.21-1.13.14-.31.33-.55.58-.71.25-.16.55-.25.89-.25.53,0,.94.19,1.23.55.29.37.44.88.44,1.53,0,.44-.07.82-.2,1.13Z"/>
  <path d="m14.16,8.72c-.05-.13-.14-.24-.26-.31-.12-.07-.25-.11-.38-.11s-.27.04-.39.12c-.12.08-.21.21-.27.38l-2.21,6.92c-.07.18-.07.34-.02.47s.14.24.26.31.25.11.38.12c.14,0,.27-.04.4-.12.12-.08.21-.21.26-.38l2.21-6.93c.06-.18.06-.34.01-.47Z"/>
  <path d="m21.29,14.86l-2.5-5.36c-.12-.26-.27-.45-.44-.57-.17-.12-.37-.18-.59-.18s-.44.06-.61.18c-.17.12-.32.31-.44.57l-2.49,5.36c-.09.21-.12.4-.09.57.03.17.12.3.26.4.14.1.31.15.52.15.26,0,.45-.06.58-.19.13-.12.25-.32.36-.59l.32-.74h3.16l.32.74c.11.27.24.46.39.59s.35.19.6.19c.21,0,.38-.05.51-.15s.21-.23.25-.4c.03-.17,0-.37-.1-.58Zm-4.51-1.81l.96-2.29h.02l.96,2.29h-1.94Z"/>
</svg>