<?xml version="1.0" encoding="UTF-8"?>
<svg id="Layer_1" data-name="Layer 1" xmlns="http://www.w3.org/2000/svg" viewBox="0 0 25 25">
  <defs>
    <style>
      .cls-1 {
        fill: #228cce;
      }
    </style>
  </defs>
  <path class="cls-1" d="m20.16,12.07v-3.07c0-.08-.07-.15-.15-.15H6.46c.04-.82.32-1.41.85-1.76.43-.28.86-.29.87-.29h1.34s.05,0,.07-.02l2.01-1.08c.06-.03.09-.1.07-.17-.02-.07-.08-.11-.15-.11h-3.34c-1.31,0-3.4.97-3.43,3.56,0,0,0,.02,0,.03v8.12c0,.98.8,1.78,1.78,1.78h11.86c.98,0,1.78-.8,1.78-1.78v-1.26c0-.08-.07-.15-.15-.15h-5.38c-.51,0-.93-.42-.93-.93v-1.62c0-.51.42-.93.93-.93h5.38c.08,0,.15-.07.15-.15Z"/>
  <path class="cls-1" d="m10.22,7.94c.03.09.11.16.2.16h8.46c.08,0,.15-.04.19-.11s.03-.15-.01-.22l-2.49-3.63c-.06-.09-.19-.12-.29-.06l-5.97,3.63c-.08.05-.12.15-.09.24Z"/>
  <circle class="cls-1" cx="15.47" cy="13.96" r=".81"/>
</svg>