<?xml version="1.0" encoding="UTF-8"?>
<svg id="Layer_1" data-name="Layer 1" xmlns="http://www.w3.org/2000/svg" viewBox="0 0 50 42.7">
  <defs>
    <style>
      .cls-1 {
        fill: transparent;
      }

      .cls-1, .cls-2 {
        stroke-width: 0px;
      }

      .cls-2 {
        fill: #fff;
      }
    </style>
  </defs>
  <path class="cls-2" d="m17.53,33.49v-2.12c0-.89.72-1.61,1.61-1.61h13.53c.89,0,1.61.72,1.61,1.61v2.09c1.64-.26,2.89-1.67,2.89-3.38V3.56c0-1.89-1.53-3.42-3.42-3.42h-16.03c-1.89,0-3.42,1.53-3.42,3.42v26.51c0,1.83,1.43,3.32,3.23,3.41Zm.07-11.36l.05-.1c2.18-2.7,6.79-2.91,6.79-2.91,0,0,.07,0,.07-1.13-1.49-.81-2.45-2.34-2.53-4.04v-3.32c0-3.32,3.63-3.11,3.63-3.11h.27s3.63-.2,3.63,3.11v3.32c-.08,1.7-1.04,3.22-2.54,4.04,0,1.13.07,1.13.07,1.13,0,0,4.63.21,6.81,2.93l.03.07c.15.21.24.47.24.76,0,.72-.58,1.3-1.3,1.3h-14.15c-.72,0-1.3-.58-1.3-1.3,0-.28.09-.54.24-.76Z"/>
  <path class="cls-1" d="m18.66,24.19h14.15c.72,0,1.3-.58,1.3-1.3,0-.28-.09-.54-.24-.76l-.03-.07c-2.18-2.72-6.81-2.93-6.81-2.93,0,0-.07,0-.07-1.13,1.49-.81,2.45-2.34,2.54-4.04v-3.32c0-3.32-3.63-3.11-3.63-3.11h-.27s-3.63-.2-3.63,3.11v3.32c.08,1.69,1.04,3.22,2.53,4.04,0,1.13-.07,1.13-.07,1.13,0,0-4.61.21-6.79,2.91l-.05.1c-.15.21-.24.47-.24.76,0,.72.58,1.3,1.3,1.3Z"/>
  <path class="cls-2" d="m21.19,32.56c-.51-.51-1.35-.51-1.86,0-.51.51-.51,1.35,0,1.86l1.44,1.44c-9.73-1.47-12.08-4.07-12.59-5.56-.74-2.21,1.58-4.48,1.61-4.5.52-.5.54-1.33.05-1.85-.5-.53-1.33-.55-1.86-.05-.15.14-3.56,3.43-2.29,7.23,1.23,3.7,6.21,6.13,15.18,7.42l-1.54,1.54c-.51.51-.51,1.35,0,1.86.26.26.59.39.93.39s.67-.13.93-.39l3.75-3.76c.51-.51.51-1.35,0-1.86l-3.75-3.75Z"/>
  <path class="cls-2" d="m42.6,25.1c-.48-.48-1.25-.49-1.74-.02-.49.47-.5,1.25-.03,1.74.02.02,1.82,1.92,1.14,3.85-.53,1.5-3,4.22-13.66,5.61-.68.09-1.15.71-1.06,1.38.08.62.61,1.07,1.22,1.07.05,0,.11,0,.16-.01,9.27-1.21,14.4-3.59,15.67-7.26,1.17-3.38-1.59-6.25-1.7-6.37Z"/>
</svg>