<?xml version="1.0" encoding="UTF-8"?>
<svg id="Layer_1" data-name="Layer 1" xmlns="http://www.w3.org/2000/svg" viewBox="0 0 25 25">
  <defs>
    <style>
      .cls-1 {
        fill: none;
      }

      .cls-2 {
        fill: #1db954;
      }
    </style>
  </defs>
  <path class="cls-1" d="m17.03,13.11c-1.7,0-3.08,1.38-3.08,3.08s1.38,3.08,3.08,3.08,3.08-1.38,3.08-3.08-1.38-3.08-3.08-3.08Zm1.54,3.92h-2.07c-.28,0-.51-.23-.51-.51v-2.04c0-.28.23-.51.51-.51s.51.23.51.51v1.53h1.56c.28,0,.51.23.51.51s-.23.51-.51.51Z"/>
  <path class="cls-2" d="m6.18,9.06h10.67v2.1h1.02v-3.96c0-.54-.44-.98-.98-.98h-.9v-1.44c0-.28-.23-.51-.51-.51s-.51.23-.51.51v1.44h-6.92v-1.44c0-.28-.23-.51-.51-.51s-.51.23-.51.51v1.44h-.9c-.54,0-.98.44-.98.98v9.07c0,.54.44.98.98.98h5.91v-1.02h-5.87v-7.16Z"/>
  <rect class="cls-2" x="7.06" y="10.2" width="1.93" height="1.93"/>
  <rect class="cls-2" x="7.06" y="13.18" width="1.93" height="1.93"/>
  <rect class="cls-2" x="10.04" y="10.2" width="1.93" height="1.93"/>
  <rect class="cls-2" x="10.04" y="13.18" width="1.93" height="1.93"/>
  <rect class="cls-2" x="13.02" y="10.2" width="1.93" height="1.93"/>
  <path class="cls-2" d="m18.57,16h-1.56v-1.53c0-.28-.23-.51-.51-.51s-.51.23-.51.51v2.04c0,.28.23.51.51.51h2.07c.28,0,.51-.23.51-.51s-.23-.51-.51-.51Z"/>
  <path class="cls-2" d="m17.03,12.09c-2.26,0-4.1,1.84-4.1,4.1s1.84,4.1,4.1,4.1,4.1-1.84,4.1-4.1-1.84-4.1-4.1-4.1Zm0,7.18c-1.7,0-3.08-1.38-3.08-3.08s1.38-3.08,3.08-3.08,3.08,1.38,3.08,3.08-1.38,3.08-3.08,3.08Z"/>
</svg>