<svg width="40" height="38" viewBox="0 0 22 22" fill="#EBECF3" xmlns="http://www.w3.org/2000/svg">
<path d="M8.25 8.0575V13.9425C8.25 14.3642 8.4425 14.685 8.8275 14.905C9.2125 15.125 9.58833 15.1067 9.955 14.85L14.52 11.935C14.8683 11.715 15.0425 11.4033 15.0425 11C15.0425 10.5967 14.8683 10.285 14.52 10.065L9.955 7.15C9.58833 6.89333 9.2125 6.875 8.8275 7.095C8.4425 7.315 8.25 7.63583 8.25 8.0575ZM11 22C9.47833 22 8.04833 21.7111 6.71 21.1332C5.37167 20.5553 4.2075 19.7718 3.2175 18.7825C2.2275 17.7925 1.44393 16.6283 0.8668 15.29C0.289667 13.9517 0.000733333 12.5217 0 11C0 9.47833 0.288933 8.04833 0.8668 6.71C1.44467 5.37167 2.22823 4.2075 3.2175 3.2175C4.2075 2.2275 5.37167 1.44393 6.71 0.8668C8.04833 0.289667 9.47833 0.000733333 11 0C12.5217 0 13.9517 0.288933 15.29 0.8668C16.6283 1.44467 17.7925 2.22823 18.7825 3.2175C19.7725 4.2075 20.5564 5.37167 21.1343 6.71C21.7122 8.04833 22.0007 9.47833 22 11C22 12.5217 21.7111 13.9517 21.1332 15.29C20.5553 16.6283 19.7718 17.7925 18.7825 18.7825C17.7925 19.7725 16.6283 20.5564 15.29 21.1343C13.9517 21.7122 12.5217 22.0007 11 22Z" />
</svg>
