<?xml version="1.0" encoding="UTF-8"?>
<svg id="Layer_1" data-name="Layer 1" xmlns="http://www.w3.org/2000/svg" viewBox="0 0 125 125">
  <defs>
    <style>
      .cls-1 {
        fill: none;
      }

      .cls-1, .cls-2, .cls-3, .cls-4, .cls-5, .cls-6 {
        stroke-width: 0px;
      }

      .cls-3 {
        fill: #f3b41b;
      }

      .cls-4 {
        fill: #e1b28c;
      }

      .cls-5 {
        fill: #be9375;
      }

      .cls-6 {
        fill: #f4eee8;
      }
    </style>
  </defs>
  <path class="cls-1" d="m41.23,56.17c2.99-5.79,6.08-11.64,8.95-16.92-1.02-.38-2.09-.65-3.2-.8-.68-.09-1.36-.14-2.03-.14-4.53,0-8.76,2.06-11.6,5.73-3.26,4.22-3.99,9.67-1.97,14.6,1.12,2.72,2.95,4.97,5.26,6.55.57-1.14,1.16-2.3,1.75-3.47.93-1.83,1.88-3.69,2.84-5.56Z"/>
  <path class="cls-1" d="m89.78,67.08c5.04-3.61,7.83-9.34,7.49-15.51-.35-6.27-3.91-11.69-9.53-14.51-2.53-1.27-5.24-1.89-7.95-1.89-2.26,0-4.51.44-6.66,1.31,4.44,7.65,9.53,16.86,13.98,25.41.92,1.77,1.81,3.5,2.66,5.19Z"/>
  <path class="cls-4" d="m87.44,70.24c-.94.44-1.91.8-2.89,1.09.11.03.22.05.32.09,2.58.81-.64,2.37-5.8,2.37s-8.37-1.56-5.8-2.37c.14-.04.3-.09.47-.13-1.15-.34-2.29-.8-3.39-1.37-4.99-2.57-8.44-7.05-9.68-12.35-.56,1.92-1.49,3.76-2.77,5.42-.79,1.02-1.68,1.93-2.64,2.72.32.03.64.07.96.1.19.02.37.04.56.06.24.03.49.06.73.09.18.02.36.04.53.07.23.03.47.07.7.1.18.03.35.05.53.08.23.04.45.08.67.13.18.04.35.07.53.11.22.05.44.11.65.17.17.05.35.09.52.14.21.06.42.14.63.21.17.06.34.11.51.18.21.08.41.18.61.27.16.07.33.14.49.22.21.1.4.23.61.35.15.09.31.17.45.27.22.14.43.31.64.47.12.09.25.17.37.27.33.27.65.57.96.9.21.22.4.45.59.68.05.06.1.13.15.2.13.17.25.34.37.52.06.08.11.17.16.25.11.17.21.33.3.5.05.09.1.17.15.26.09.18.18.37.27.55.03.08.07.15.11.23.11.25.2.5.29.76.03.1.06.2.09.3.05.16.09.32.13.49.03.12.05.25.08.37.02.08.04.16.05.24,0,0,0,0,0,0,.07.42.13.85.14,1.27.15,4.94-3.89,7.87-7.52,7.97-7.67.23-14.41-7.95-15.66-12.61-.08-.3-.15-.59-.21-.86-.97.1-2.11.13-3.36.07-5.15-.27-8.28-2-5.67-2.67.44-.11,1-.2,1.62-.25-1.07-.42-2.09-.95-3.03-1.58-6.06,12.15-10.54,21.97-9.67,22.35.24.1,1.18.22,2.66.33.02-.3.22-.57.52-.68.4-.14.84.08.98.48.03.1.06.2.1.3,2.72.17,6.56.34,11.04.49,0,0,0-.01,0-.02.03-.43.39-.75.82-.73,30.02,1.85,51.02-.32,51.23-.34.22-.02.45.05.62.21.13.13.2.3.22.47,2.07-.26,3.42-.58,3.81-.98,1.02-1.04-2.12-8.6-6.94-18.35-1.19.58-2.61.64-3.88.09Z"/>
  <path class="cls-4" d="m46.04,67.75c.13-1.79.91-2.78,1.96-3.47.33.13.66.24.99.34.15.05.3.09.46.14.24.07.49.13.73.19.16.04.32.08.48.11.24.05.49.1.73.15.17.03.33.06.5.09.24.04.49.08.73.11.12.02.23.03.35.05,1.39-.9,2.64-2.04,3.69-3.4,3.26-4.22,3.99-9.67,1.97-14.6-1.6-3.89-4.65-6.8-8.46-8.21-2.87,5.28-5.96,11.13-8.95,16.92,2.61-.36,4.85,2.07,4.16,4.72-.75,2.82-4.26,3.77-6.33,1.72-.28-.27-.5-.57-.67-.89-.59,1.17-1.18,2.33-1.75,3.47,1.87,1.28,4.04,2.13,6.4,2.45,1.01.14,2.02.17,3.01.1Zm7.83-7.95c-.84-.88-.84-3.06,0-3.94.84-.87,1.89.22,1.89,1.97,0,1.75-1.05,2.84-1.89,1.97Zm-6.35-11.18h0c.27-.19.55-.39.97-.5.2-.05.47-.07.72.01.26.08.47.25.6.42.28.34.39.66.5.95.11.29.19.57.29.79.04.09.08.15.11.19.04,0,.11-.03.19-.08.1-.05.2-.12.3-.19.41-.31.8-.72,1.13-1.15.09-.11.15-.23.23-.34-.08-.23-.14-.48-.13-.78,0-.06.01-.13.02-.19.02-.08.03-.15.07-.24.02-.05.05-.09.07-.14.03-.05.08-.1.13-.15.09-.09.26-.19.4-.2.16-.03.26,0,.37.02.11.03.2.07.3.14.1.08.19.17.25.28.03.06.05.11.06.16.01.05.03.1.03.15.03.35-.05.54-.11.73-.03.09-.08.16-.12.24.08.1.16.2.25.26.14.1.28.13.45.12.17-.01.37-.08.57-.2.2-.12.4-.28.59-.45l.02-.02c.27-.24.67-.21.91.06.24.27.21.67-.06.91,0,0,0,0,0,0-.25.22-.52.43-.84.6-.32.17-.69.32-1.12.34-.42.02-.89-.1-1.23-.36-.09-.06-.15-.14-.22-.21-.4.49-.83.94-1.37,1.34-.14.1-.29.19-.45.28-.17.08-.36.17-.63.19h-.1s-.08,0-.12,0c-.08,0-.16-.03-.24-.06-.08-.03-.15-.07-.21-.11-.06-.04-.11-.09-.17-.14-.18-.19-.27-.37-.34-.54-.14-.33-.22-.62-.31-.88-.09-.26-.19-.51-.3-.63-.05-.06-.08-.08-.11-.09-.03,0-.07-.02-.16,0-.16.03-.39.16-.6.31h-.01c-.23.18-.56.12-.72-.12-.16-.23-.11-.56.13-.72Z"/>
  <path class="cls-4" d="m71.06,68.55c4.71,2.43,10.07,2.63,14.88.66-2.2-2.28-1.48-5.94,1.18-7.32-4.45-8.55-9.55-17.76-13.98-25.41-1.09.44-2.16.98-3.18,1.64-5.43,3.52-8.51,9.43-8.24,15.8.27,6.28,3.76,11.75,9.34,14.63Zm-4.67-8.88c-.65-.7-.62-2.43.05-3.1.67-.68,1.49.2,1.46,1.58-.02,1.38-.87,2.23-1.52,1.53Zm-2.25-8.8s0,0,0-.01c.31-.49.61-.97.99-1.47.1-.13.2-.25.34-.39.07-.07.16-.15.32-.24.05-.03.11-.05.17-.06.07-.02.18-.03.26-.02.1,0,.22.05.3.09.07.04.16.11.2.16.18.22.18.32.22.43.03.1.05.19.06.26l.08.42c.05.24.1.46.18.63,0,0,.02-.02.03-.03.08-.08.16-.17.24-.27.16-.2.33-.43.5-.66.17-.23.35-.47.56-.71.11-.12.22-.24.36-.36.14-.12.29-.24.52-.33.12-.05.25-.08.41-.08.16,0,.37.04.53.16.09.05.13.11.19.18.05.06.08.12.12.17.03.05.05.11.07.16l.05.14c.11.35.14.63.19.91.09.53.24.99.5,1.18.13.1.3.16.51.18.21.02.45,0,.7-.05h.02c.29-.06.56.14.61.42.05.28-.13.56-.42.61-.31.06-.64.11-1,.08-.35-.02-.75-.13-1.08-.38-.33-.25-.55-.59-.68-.91-.14-.32-.2-.63-.27-.93-.05-.26-.1-.52-.15-.71-.09.07-.21.18-.33.31-.16.19-.33.41-.49.64-.17.23-.33.47-.52.71-.09.12-.2.24-.32.37-.12.12-.26.26-.49.38-.06.03-.13.06-.2.08-.09.02-.17.04-.27.04-.2,0-.41-.07-.55-.17-.14-.1-.23-.21-.3-.31-.04-.05-.06-.09-.08-.13-.02-.04-.05-.08-.07-.13-.14-.28-.21-.54-.27-.8-.24.35-.47.71-.7,1.09h0c-.19.31-.58.41-.89.22-.3-.19-.4-.58-.21-.89Z"/>
  <path class="cls-4" d="m60.07,46.86c.24.59.44,1.18.61,1.78,1.14-4.79,4.09-9.01,8.43-11.82,1.04-.67,2.12-1.24,3.23-1.7-3.28-5.61-6.14-10.26-8.03-12.98h-4.34c-2.04,3.15-5.32,8.9-9.05,15.73,4.11,1.58,7.41,4.76,9.14,8.99Z"/>
  <path class="cls-5" d="m73.73,71.29c-.17.04-.33.08-.47.13-2.58.81.64,2.37,5.8,2.37s8.37-1.56,5.8-2.37c-.1-.03-.21-.06-.32-.09-1.75.51-3.54.77-5.34.77s-3.68-.27-5.47-.81Z"/>
  <path class="cls-5" d="m45.07,69.33c-.74,0-1.49-.05-2.24-.15-1.35-.18-2.64-.53-3.86-1.01-.62.06-1.18.14-1.62.25-2.61.67.52,2.4,5.67,2.67,1.25.06,2.38.03,3.36-.07-.14-.64-.24-1.22-.29-1.75-.34.02-.67.06-1.01.06Z"/>
  <path class="cls-2" d="m53.87,55.87c-.84.87-.84,3.06,0,3.94s1.89-.22,1.89-1.97c0-1.75-1.05-2.84-1.89-1.97Z"/>
  <path class="cls-2" d="m66.44,56.57c-.67.68-.7,2.4-.05,3.1.65.7,1.49-.15,1.52-1.53.02-1.38-.79-2.26-1.46-1.58Z"/>
  <path class="cls-2" d="m29.44,88.6c-.3.1-.5.38-.52.68,0,.1,0,.2.04.31,1.79,5.25,2.28,13.2,2.28,13.28.02.41.37.73.77.73.02,0,.03,0,.05,0,.43-.03.75-.39.73-.82-.02-.33-.49-7.95-2.27-13.39-.03-.1-.06-.21-.1-.3-.14-.4-.58-.62-.98-.48Z"/>
  <path class="cls-2" d="m93.62,88.79c-.21.02-21.21,2.19-51.23.34-.43-.03-.79.3-.82.73,0,0,0,.01,0,.02-.01.42.3.77.72.8,26.65,1.64,46.24.13,50.59-.26-.43,8.36.02,12.91.04,13.11.04.4.38.7.77.7.03,0,.05,0,.08,0,.43-.04.74-.42.69-.85,0-.05-.49-4.96.01-13.77,0-.05-.02-.09-.02-.13-.02-.18-.09-.35-.22-.47-.16-.16-.39-.23-.62-.21Z"/>
  <path class="cls-2" d="m50.67,65.06c.24.05.49.1.73.15-.25-.04-.49-.09-.73-.15Z"/>
  <path class="cls-2" d="m62.25,66.97c.17.06.34.11.51.18-.17-.07-.34-.12-.51-.18Z"/>
  <path class="cls-2" d="m68.47,72.05c.05.09.1.17.15.26-.05-.09-.1-.18-.15-.26Z"/>
  <path class="cls-2" d="m59.92,66.35c.18.04.35.07.53.11-.17-.04-.35-.07-.53-.11Z"/>
  <path class="cls-2" d="m61.1,66.62c.17.05.35.09.52.14-.17-.05-.35-.09-.52-.14Z"/>
  <path class="cls-2" d="m49.45,64.76c.24.07.49.13.73.19-.25-.06-.49-.12-.73-.19Z"/>
  <path class="cls-2" d="m65.57,68.73c.12.09.25.17.37.27-.12-.1-.25-.18-.37-.27Z"/>
  <path class="cls-2" d="m67.49,70.58c.05.06.1.13.15.2-.05-.07-.1-.13-.15-.2Z"/>
  <path class="cls-2" d="m64.47,67.99c.15.09.31.17.45.27-.15-.1-.3-.18-.45-.27Z"/>
  <path class="cls-2" d="m63.37,67.42c.16.07.33.14.49.22-.16-.08-.33-.15-.49-.22Z"/>
  <path class="cls-2" d="m68.01,71.29c.06.08.11.17.16.25-.05-.08-.11-.17-.16-.25Z"/>
  <path class="cls-2" d="m51.9,65.29c.24.04.49.08.73.11-.24-.03-.49-.07-.73-.11Z"/>
  <path class="cls-2" d="m56.21,65.82c.19.02.37.04.56.06-.19-.02-.37-.04-.56-.06Z"/>
  <path class="cls-2" d="m69.5,74.64c.03.12.05.25.08.37-.02-.12-.05-.25-.08-.37Z"/>
  <path class="cls-2" d="m69.28,73.85c.03.1.06.2.09.3-.03-.1-.06-.2-.09-.3Z"/>
  <path class="cls-2" d="m58.72,66.13c.18.03.35.05.53.08-.17-.03-.35-.06-.53-.08Z"/>
  <path class="cls-2" d="m68.89,72.86c.03.08.07.15.11.23-.03-.08-.07-.15-.11-.23Z"/>
  <path class="cls-2" d="m57.49,65.96c.18.02.36.04.53.07-.18-.02-.36-.05-.53-.07Z"/>
  <path class="cls-6" d="m51.9,65.29c-.17-.03-.33-.06-.5-.09-.25-.04-.49-.09-.73-.15-.16-.03-.32-.07-.48-.11-.25-.06-.49-.12-.73-.19-.15-.04-.31-.09-.46-.14-.12-.04-.23-.06-.35-.1.37.85.84,1.64,1.4,2.39,1.03-.37,2.01-.86,2.93-1.45-.12-.02-.23-.03-.35-.05-.24-.03-.49-.07-.73-.11Z"/>
  <path class="cls-6" d="m51.09,68.15c1.25,1.34,2.75,2.5,4.41,3.46l1.48-1.07.36,2.05c4.23,2.02,8.97,2.92,12.28,2.66,0,0,0,0,0,0-.01-.08-.03-.16-.05-.24-.02-.12-.05-.25-.08-.37-.04-.16-.09-.32-.13-.49-.03-.1-.06-.2-.09-.3-.08-.26-.18-.51-.29-.76-.03-.08-.07-.15-.11-.23-.08-.19-.17-.37-.27-.55-.05-.09-.1-.18-.15-.26-.1-.17-.19-.34-.3-.5-.05-.08-.11-.17-.16-.25-.12-.18-.24-.35-.37-.52-.05-.07-.1-.13-.15-.2-.19-.23-.38-.46-.59-.68-.31-.33-.63-.63-.96-.9-.12-.1-.25-.18-.37-.27-.21-.16-.42-.33-.64-.47-.15-.1-.3-.18-.45-.27-.2-.12-.4-.24-.61-.35-.16-.08-.33-.15-.49-.22-.2-.09-.41-.19-.61-.27-.17-.07-.34-.12-.51-.18-.21-.07-.42-.15-.63-.21-.17-.05-.35-.09-.52-.14-.22-.06-.43-.12-.65-.17-.17-.04-.35-.07-.53-.11-.22-.04-.45-.09-.67-.13-.17-.03-.35-.06-.53-.08-.23-.04-.46-.07-.7-.1-.18-.02-.36-.05-.53-.07-.24-.03-.48-.06-.73-.09-.19-.02-.37-.04-.56-.06-.32-.03-.64-.07-.96-.1-1.26,1.03-2.67,1.84-4.16,2.44Z"/>
  <path class="cls-2" d="m64.35,51.76c.3.19.7.09.89-.21h0c.23-.38.46-.75.7-1.09.06.25.13.52.27.8.02.04.04.08.07.13.03.04.04.08.08.13.07.1.16.2.3.31.14.1.35.18.55.17.1,0,.18-.02.27-.04.07-.02.14-.05.2-.08.23-.12.37-.26.49-.38.12-.13.22-.25.32-.37.19-.24.36-.48.52-.71.16-.23.33-.45.49-.64.11-.14.23-.24.33-.31.06.19.1.44.15.71.06.29.13.6.27.93.13.32.35.66.68.91.33.25.73.36,1.08.38.36.02.69-.02,1-.08.28-.06.47-.33.42-.61-.05-.29-.33-.48-.61-.43h-.02c-.25.05-.49.07-.7.05-.21-.02-.38-.08-.51-.18-.26-.19-.41-.65-.5-1.18-.05-.27-.08-.55-.19-.91l-.05-.14c-.02-.05-.05-.11-.07-.16-.04-.06-.07-.12-.12-.17-.06-.06-.11-.12-.19-.18-.15-.11-.37-.16-.53-.16-.16,0-.29.04-.41.08-.23.09-.39.22-.52.33-.14.12-.25.24-.36.36-.21.24-.39.48-.56.71-.17.23-.34.46-.5.66-.08.1-.16.19-.24.27,0,.01-.02.02-.03.03-.08-.17-.13-.39-.18-.63l-.08-.42c-.02-.08-.03-.16-.06-.26-.04-.11-.05-.21-.22-.43-.04-.05-.13-.12-.2-.16-.08-.05-.21-.08-.3-.09-.09,0-.19,0-.26.02-.06.02-.12.04-.17.06-.16.09-.25.17-.32.24-.15.14-.24.26-.34.39-.38.5-.68.98-.99,1.47,0,0,0,0,0,.01-.19.3-.09.7.21.89Z"/>
  <path class="cls-2" d="m48.12,49.47h.01c.21-.16.44-.29.6-.32.08-.02.13-.01.16,0,.03,0,.06.03.11.09.1.12.21.37.3.63.09.27.17.56.31.88.07.16.16.34.34.54.05.05.1.1.17.14.07.04.13.09.21.11.08.03.16.05.24.06.04,0,.08,0,.12,0h.1c.27-.03.45-.12.63-.2.17-.09.31-.18.45-.28.54-.4.97-.85,1.37-1.34.07.07.14.15.22.21.34.26.81.38,1.23.36.43-.03.8-.17,1.12-.34.32-.18.58-.39.84-.6,0,0,0,0,0,0,.27-.24.29-.64.06-.91-.24-.27-.64-.29-.91-.06l-.02.02c-.19.17-.39.33-.59.45-.2.11-.4.19-.57.2-.17,0-.31-.02-.45-.12-.09-.06-.17-.15-.25-.26.04-.08.08-.15.12-.24.06-.19.14-.38.11-.73,0-.05-.02-.1-.03-.15-.01-.05-.03-.1-.06-.16-.06-.11-.14-.21-.25-.28-.1-.07-.19-.11-.3-.14-.11-.02-.21-.05-.37-.02-.13.01-.31.11-.4.2-.05.05-.1.1-.13.15-.03.04-.05.09-.07.14-.04.09-.06.16-.07.24,0,.06-.02.14-.02.19,0,.3.05.55.13.78-.08.12-.14.23-.23.34-.33.43-.72.84-1.13,1.15-.1.07-.2.14-.3.19-.08.04-.15.07-.19.08-.03-.04-.07-.1-.11-.19-.1-.22-.19-.5-.29-.79-.11-.29-.22-.62-.5-.95-.14-.17-.35-.34-.6-.42-.26-.08-.52-.07-.72-.01-.42.11-.7.31-.97.5h0c-.23.17-.29.49-.13.72.16.23.49.29.72.13Z"/>
  <path class="cls-2" d="m93,105.58c-1.05.74-1.22,2.79-.31,3.69.91.9,2.22-.02,2.36-1.66.14-1.64-1-2.77-2.05-2.03Z"/>
  <path class="cls-2" d="m31.61,105.15c-.81.99-.43,3.01.7,3.64,1.12.62,2.14-.62,1.83-2.23-.31-1.62-1.71-2.4-2.52-1.4Z"/>
  <path class="cls-5" d="m85.94,69.21c1.06-.44,2.1-.97,3.1-1.62.25-.16.5-.34.74-.51-.85-1.69-1.74-3.42-2.66-5.19-2.66,1.38-3.38,5.04-1.18,7.32Z"/>
  <path class="cls-5" d="m87.44,70.24c1.27.55,2.69.49,3.88-.09-.27-.55-.55-1.11-.83-1.68-.2.14-.39.28-.6.42-.79.51-1.61.96-2.44,1.35Z"/>
  <path class="cls-5" d="m39.06,62.61c2.07,2.05,5.58,1.1,6.33-1.72.7-2.65-1.55-5.08-4.16-4.72-.97,1.87-1.92,3.73-2.84,5.56.17.31.39.61.67.89Z"/>
  <path class="cls-2" d="m42.83,69.18c.75.1,1.5.15,2.24.15.34,0,.67-.04,1.01-.06.05.53.15,1.11.29,1.75.06.28.13.56.21.86,1.24,4.66,7.98,12.83,15.66,12.61,3.63-.11,7.67-3.04,7.52-7.97-.01-.42-.07-.85-.14-1.27-3.31.26-8.05-.64-12.28-2.66l-.36-2.05-1.48,1.07c-1.66-.97-3.17-2.12-4.41-3.46,1.49-.6,2.9-1.4,4.16-2.44.97-.79,1.85-1.7,2.64-2.72,1.28-1.66,2.2-3.5,2.77-5.42,1.24,5.3,4.7,9.77,9.68,12.35,1.1.57,2.24,1.02,3.39,1.37,1.79.54,3.63.81,5.47.81s3.59-.26,5.34-.77c.98-.28,1.95-.65,2.89-1.09.83-.39,1.65-.84,2.44-1.35.21-.13.4-.28.6-.42,5.6-3.91,8.71-10.21,8.33-16.99-.38-6.83-4.26-12.74-10.38-15.81-5.11-2.56-10.91-2.71-16.09-.56-1.11.46-2.19,1.02-3.23,1.7-4.34,2.81-7.29,7.03-8.43,11.82-.17-.6-.37-1.19-.61-1.78-1.74-4.23-5.03-7.41-9.14-8.99-1.19-.46-2.44-.79-3.74-.96-5.84-.79-11.47,1.52-15.06,6.18-3.6,4.66-4.41,10.69-2.18,16.14,1.27,3.08,3.36,5.61,5.99,7.37.94.63,1.96,1.16,3.03,1.58,1.22.48,2.51.83,3.86,1.01Zm27.12-31.06c1.02-.66,2.09-1.2,3.18-1.64,2.15-.86,4.4-1.31,6.66-1.31,2.71,0,5.42.63,7.95,1.89,5.62,2.81,9.18,8.24,9.53,14.51.34,6.16-2.45,11.89-7.49,15.51-.24.17-.49.35-.74.51-1,.65-2.04,1.18-3.1,1.62-4.81,1.97-10.17,1.77-14.88-.66-5.58-2.88-9.07-8.35-9.34-14.63-.27-6.37,2.81-12.28,8.24-15.8Zm-38.58,20.52c-2.02-4.93-1.29-10.39,1.97-14.6,2.84-3.67,7.07-5.73,11.6-5.73.67,0,1.35.05,2.03.14,1.11.15,2.18.43,3.2.8,3.81,1.41,6.86,4.32,8.46,8.21,2.02,4.93,1.29,10.39-1.97,14.6-1.06,1.37-2.31,2.51-3.69,3.4-.92.6-1.9,1.08-2.93,1.45-.55-.75-1.03-1.54-1.4-2.39.11.04.23.07.35.1-.33-.1-.67-.21-.99-.34-1.05.69-1.83,1.68-1.96,3.47-.99.07-1.99.03-3.01-.1-2.36-.32-4.53-1.17-6.4-2.45-2.31-1.59-4.14-3.83-5.26-6.55Z"/>
  <path class="cls-3" d="m63.59,21.12c4.58-1.28.69-4.54-.81-1.03-.26-.29-.46-.48-.6-.54,3.08-7.16,2.07-13.39-.73-10.14-2.13,2.47-1,7.36-.31,9.63-7.32-9.51-11.96,3.66-.04,1.46-.31.42-.69.97-1.12,1.63h4.34c-.26-.38-.5-.71-.73-1.02Z"/>
  <path class="cls-2" d="m77.06,114.94l-2.24-.9,2.73-20.2c.06-.43-.24-.83-.68-.89-.43-.06-.83.24-.89.68l-2.89,21.42,3.38,1.35c.1.04.2.06.29.06.31,0,.61-.19.73-.5.16-.4-.03-.86-.44-1.03Z"/>
  <path class="cls-2" d="m49.38,92.96c-.43.07-.72.48-.65.91l3.45,20.13-2.91.92c-.42.13-.65.58-.52.99.11.34.42.55.75.55.08,0,.16-.01.24-.04l4.22-1.33-3.68-21.49c-.07-.43-.48-.71-.91-.65Z"/>
</svg>