<?xml version="1.0" encoding="UTF-8"?>
<svg id="Layer_1" data-name="Layer 1" xmlns="http://www.w3.org/2000/svg" viewBox="0 0 125 125">
  <defs>
    <style>
      .cls-1, .cls-2, .cls-3, .cls-4, .cls-5, .cls-6 {
        stroke-width: 0px;
      }

      .cls-2 {
        fill: #f3b41b;
      }

      .cls-3 {
        fill: #e41e26;
      }

      .cls-4 {
        fill: #a47c50;
      }

      .cls-5 {
        fill: #865e3c;
      }

      .cls-6 {
        fill: #f4eee8;
      }
    </style>
  </defs>
  <path class="cls-4" d="m102.99,43.92c.19-6.23.39-11.65.54-15.38.12-2.89-2.18-5.32-5.08-5.36-26.64-.36-48.81-.23-61.31-.08,0,.22-.08.45-.25.62l-9.86,9.47c-.16.15-.36.22-.56.23l.4,13c-1.63-3.35-3.98-4.01-5.97-3.15.15.03.29.08.41.18,3.13,2.74,2.31,5.02,1.71,6.68-.6,1.66-.93,2.58,2.5,4.07.18.08.31.22.4.39.39-.22.78-.48,1.18-.79l.59,19.25c1.51.08,3.2.13,5.01.17.38,0,.75.02,1.14.02-.2-5.33-.11-11.28.69-17.4.06-.47.49-.8.96-.74.47.06.8.49.74.96-.79,6.03-.87,11.91-.67,17.19,8.85.06,20.09-.27,30.83-.73,1.74-.07,3.47-.15,5.17-.23,10.92-.51,20.77-1.1,26.29-1.44,1.27-.08,2.32-.15,3.09-.2.88-.06,1.57-.79,1.58-1.67.03-5.63.13-11.45.26-16.98,7.32-.27,6.13-11.55.22-8.08Zm-24.11-9.77c2.59-1.4,4.28-.96,5.78-.56,1.25.33,2.43.64,4.3-.05.44-.16.92.06,1.08.5.16.44-.06.92-.5,1.08-2.37.87-3.93.46-5.31.1-1.42-.37-2.54-.67-4.55.42-.13.07-.26.1-.4.1-.3,0-.59-.16-.74-.44-.22-.41-.07-.92.34-1.14Zm7.13,11.07c.04.39-.26.73-.66.73h-1.71c-1.19,0-2.15-.96-2.15-2.15v-3.47c0-.61.5-1.11,1.11-1.11h1.86c.49,0,.9.37.96.86l.17,1.47.42,3.67Zm-14.36,6.7c-.43,3.56.46,5.47,1.44,6.06.52.32,1.11.3,1.65-.07.92-.62,1.83-2.39,1.35-5.36-.07-.46.24-.89.7-.96.46-.07.89.24.96.7.39,2.46.05,5.59-2.08,7.02-.57.38-1.2.57-1.83.57-.57,0-1.13-.16-1.64-.47-.88-.54-2.87-2.38-2.23-7.7.06-.46.47-.79.94-.74.46.06.79.47.74.94Zm-6.6-5.53c-.24.08-.5.13-.76.13h-1.49c-.38,0-.68-.3-.68-.68v-5.71c0-.45.35-.81.8-.83l2.15-.07c.69-.02,1.28.51,1.33,1.19l.09,1.21.17,2.35c.08,1.11-.61,2.09-1.61,2.42Zm-6.96-13.23c1.44-.94,3.15-.78,4.81-.62,2.21.21,4.5.42,6.63-1.75.33-.33.86-.34,1.19,0,.33.33.34.86,0,1.19-2.69,2.74-5.63,2.46-7.99,2.24-1.49-.14-2.78-.26-3.73.36-.14.09-.3.14-.46.14-.28,0-.55-.14-.71-.38-.25-.39-.14-.91.25-1.16Zm-12.66,15.14c1.35-1.48,3.35-1.93,5.2-1.17,1.66.68,2.74,2.13,2.69,3.62-.03.97-.58,2.77-3.92,3.88-.44.15-.92-.09-1.06-.53-.15-.44.09-.92.53-1.06,1.73-.58,2.74-1.43,2.77-2.34.03-.78-.65-1.6-1.65-2.01-.45-.18-2.02-.67-3.33.75-1.35,1.47-1.55,3.43-.51,4.99,1.05,1.57,3.53,2.76,7.31,1.37.44-.16.92.06,1.08.5.16.44-.06.92-.5,1.08-1.38.5-2.63.72-3.74.72-2.68,0-4.56-1.25-5.55-2.74-1.46-2.19-1.2-5.03.67-7.06Zm54.62,6.35c-.84.83-2.04,1.38-3.4,1.38-1.23,0-2.6-.45-3.97-1.54-.36-.29-.42-.82-.13-1.18.29-.36.82-.42,1.18-.13,2.22,1.77,4.15,1.26,5.14.28.93-.93,1.38-2.63.15-4.18-.9-1.14-1.86-1.04-2.35-.88-.72.24-1.26.87-1.28,1.49-.02.71.6,1.35,1.76,1.82.43.17.64.67.46,1.1-.17.43-.66.64-1.1.46-2.61-1.06-2.83-2.76-2.81-3.44.04-1.33,1.05-2.58,2.44-3.04,1.52-.5,3.09.04,4.2,1.43,1.78,2.25,1.2,4.93-.29,6.42Z"/>
  <path class="cls-1" d="m66.38,72.53c-10.74.46-21.99.8-30.83.73-.2-5.28-.12-11.16.67-17.19.06-.47-.27-.9-.74-.96-.47-.06-.9.27-.96.74-.8,6.12-.89,12.07-.69,17.4-.39,0-.76-.01-1.14-.02h-.05s-.21,1.57,1.31,2.76c.21,3.7.52,7.04.79,9.83.18,1.88.34,3.57.43,4.98-.23.78-.22,1.96.14,3.3.79,2.92,2.65,4.37,3.34,2.62s-.3-5.4-1.78-6.56c0,0-.01,0-.02-.01-.09-1.32-.24-2.83-.39-4.48-.25-2.63-.54-5.76-.75-9.22,3.9.44,14.23.61,25.93.28l2.89,30.89-1.7,3.15c-.26.48-.08,1.07.4,1.33.15.08.31.12.47.12.35,0,.69-.19.86-.52l1.85-3.41c.09-.17.13-.37.11-.56l-2.9-31.07c3.55-.12,7.2-.28,10.8-.5l-.83,31.07c0,.36.18.69.49.87l5.85,3.41c.16.09.33.13.49.13.34,0,.67-.17.85-.49.27-.47.12-1.07-.35-1.34l-5.34-3.12.82-30.66c6.73-.44,13.23-1.08,18.59-1.95l2.89-3.24h0c-5.52.35-15.37.93-26.29,1.44-.49,2.38-3.48,4.31-5.17.23Z"/>
  <path class="cls-2" d="m71.55,72.3c-1.7.08-3.43.16-5.17.23,1.7,4.07,4.68,2.15,5.17-.23Z"/>
  <path class="cls-4" d="m35.06,23.14h0c-2.5.03-4.52.06-5.99.08h0s5.99-.08,5.99-.08Z"/>
  <path class="cls-4" d="m27.39,23.25s0,0,0,0c-.12,0-.24,0-.35,0h0s.34,0,.34,0Z"/>
  <rect class="cls-4" x="26.32" y="26.41" height="5.05"/>
  <path class="cls-3" d="m26.4,31.45l8.66-8.32-5.99.09h0v-9.27c0-.46-.38-.84-.84-.84s-.84.38-.84.84v9.28s0,0,0,.01c0,0,0,0,0,0h-.34s0,0,0,0l-4.8-3.82c-.36-.29-.89-.23-1.18.14-.29.36-.23.89.14,1.18l4.91,3.9-5.18-1.13c-.45-.1-.9.19-1,.64-.1.45.19.9.64,1l5.68,1.24h0l.16,5.05Z"/>
  <path class="cls-3" d="m22.94,15.83c1.09.63,2.45-.16,2.45-1.41s-1.36-2.04-2.45-1.41c-1.09.63-1.09,2.2,0,2.83Z"/>
  <path class="cls-6" d="m84.47,39.22h-1.86c-.62,0-1.11.5-1.11,1.11v3.47c0,1.18.96,2.15,2.15,2.15h.12c-.2-.17-.39-.38-.54-.63-1-1.64.15-3.74,2.06-3.79.1,0,.2,0,.3.01l-.17-1.47c-.06-.49-.47-.86-.96-.86Z"/>
  <path class="cls-6" d="m63.72,45.33c-1-1.64.15-3.74,2.06-3.79.25,0,.49.02.71.08l-.09-1.21c-.05-.69-.64-1.21-1.33-1.19l-2.15.07c-.45.01-.8.38-.8.83v5.71c0,.38.31.68.68.68h1.49c.27,0,.52-.04.76-.13-.53-.17-1.01-.52-1.34-1.06Z"/>
  <path class="cls-1" d="m65.78,41.54c-1.92.05-3.06,2.15-2.06,3.79.33.54.81.89,1.34,1.06,1-.33,1.69-1.31,1.61-2.42l-.17-2.35c-.22-.06-.46-.09-.71-.08Z"/>
  <path class="cls-1" d="m83.22,45.33c.15.25.34.46.54.63h1.58c.39,0,.7-.35.66-.73l-.42-3.67c-.1-.01-.2-.01-.3-.01-1.92.05-3.06,2.15-2.06,3.79Z"/>
  <path class="cls-4" d="m21.43,49.56c.55-1.54,1.03-2.86-1.24-4.85-.27-.23-.35-.6-.23-.92-1.36.97-2.42,2.67-2.73,4.61-.63,4.03,2.6,7.96,6.8,6.96-3.65-1.85-3.35-3.73-2.6-5.81Z"/>
  <path class="cls-5" d="m25.51,54.21c-3.43-1.5-3.1-2.41-2.5-4.07.6-1.66,1.42-3.94-1.71-6.68-.12-.11-.26-.16-.41-.18-.28-.05-.58.03-.78.26-.07.08-.12.17-.16.27-.11.32-.03.68.23.92,2.27,1.98,1.79,3.31,1.24,4.85-.75,2.08-1.05,3.96,2.6,5.81.25.13.52.25.81.38.11.05.22.07.34.07.32,0,.63-.19.77-.5.11-.24.08-.5-.04-.72-.09-.16-.21-.31-.4-.39Z"/>
  <path class="cls-5" d="m96.14,46.79c-1.39.46-2.39,1.71-2.44,3.04-.02.68.2,2.38,2.81,3.44.43.17.92-.03,1.1-.46.17-.43-.03-.92-.46-1.1-1.16-.47-1.78-1.12-1.76-1.82.02-.63.56-1.26,1.28-1.49.49-.16,1.45-.26,2.35.88,1.22,1.55.78,3.25-.15,4.18-.98.98-2.92,1.49-5.14-.28-.36-.29-.89-.23-1.18.13-.29.36-.23.89.13,1.18,1.37,1.09,2.74,1.54,3.97,1.54,1.37,0,2.57-.55,3.4-1.38,1.49-1.48,2.07-4.16.29-6.42-1.11-1.4-2.67-1.93-4.2-1.43Z"/>
  <path class="cls-5" d="m50.31,58.1c1.11,0,2.36-.22,3.74-.72.44-.16.66-.64.5-1.08-.16-.44-.64-.66-1.08-.5-3.79,1.39-6.26.2-7.31-1.37-1.04-1.56-.84-3.51.51-4.99,1.3-1.42,2.88-.93,3.33-.75.99.41,1.67,1.23,1.65,2.01-.03.91-1.04,1.76-2.77,2.34-.44.15-.68.62-.53,1.06.15.44.62.68,1.06.53,3.34-1.11,3.89-2.91,3.92-3.88.05-1.49-1.03-2.94-2.69-3.62-1.86-.76-3.85-.31-5.2,1.17-1.86,2.03-2.13,4.87-.67,7.06.99,1.49,2.87,2.74,5.55,2.74Z"/>
  <path class="cls-1" d="m69.98,51.72c-.64,5.32,1.35,7.16,2.23,7.7.52.32,1.08.47,1.64.47.63,0,1.25-.19,1.83-.57,2.13-1.43,2.47-4.56,2.08-7.02-.07-.46-.51-.77-.96-.7-.46.07-.77.51-.7.96.48,2.97-.43,4.74-1.35,5.36-.54.36-1.13.39-1.65.07-.97-.6-1.86-2.51-1.44-6.06.06-.46-.27-.88-.74-.94-.46-.06-.88.27-.94.74Z"/>
  <path class="cls-1" d="m79.28,35.74c.14,0,.27-.03.4-.1,2.01-1.08,3.13-.79,4.55-.42,1.38.36,2.94.77,5.31-.1.44-.16.66-.65.5-1.08-.16-.44-.65-.66-1.08-.5-1.87.69-3.05.38-4.3.05-1.49-.39-3.19-.84-5.78.56-.41.22-.56.73-.34,1.14.15.28.44.44.74.44Z"/>
  <path class="cls-1" d="m58.55,34.71c.16,0,.32-.04.46-.14.95-.62,2.24-.5,3.73-.36,2.36.22,5.3.49,7.99-2.24.33-.33.32-.86,0-1.19-.33-.33-.86-.32-1.19,0-2.13,2.17-4.42,1.95-6.63,1.75-1.66-.15-3.37-.31-4.81.62-.39.25-.5.77-.25,1.16.16.25.43.38.71.38Z"/>
  <path class="cls-1" d="m36.88,23.72c.17-.17.26-.39.25-.62,0-.21-.08-.41-.23-.57-.32-.34-.85-.35-1.19-.02l-.65.62h0s-8.66,8.32-8.66,8.32h0l-.55.53c-.34.32-.35.85-.02,1.19.17.17.39.26.61.26,0,0,.02,0,.03,0,.2,0,.4-.08.56-.23l9.86-9.47Z"/>
  <path class="cls-1" d="m104.4,54.1c-.47.06-.8.49-.74.96,1.49,11.44.46,22.36-.23,29.59-.16,1.65-.3,3.17-.39,4.48,0,0-.01,0-.02.01-1.48,1.16-2.47,4.81-1.78,6.56.69,1.75,2.55.3,3.34-2.62.36-1.34.37-2.52.14-3.3.09-1.41.25-3.1.43-4.98.69-7.31,1.74-18.35.22-29.98-.06-.47-.49-.8-.96-.74Z"/>
</svg>