<?xml version="1.0" encoding="UTF-8"?>
<svg id="Layer_1" data-name="Layer 1" xmlns="http://www.w3.org/2000/svg" viewBox="0 0 125 125">
  <defs>
    <style>
      .cls-1 {
        fill: none;
      }

      .cls-1, .cls-2, .cls-3, .cls-4, .cls-5 {
        stroke-width: 0px;
      }

      .cls-3 {
        fill: #186f9b;
      }

      .cls-4 {
        fill: #439cd6;
      }

      .cls-5 {
        fill: #b25d43;
      }
    </style>
  </defs>
  <rect class="cls-1" x="65.16" y="24.63" width="3.69" height="0" transform="translate(-.82 2.35) rotate(-2)"/>
  <path class="cls-1" d="m91.5,64.86c3.66-.57,7.85-1.34,11.95-2.67,3.14-1.02,9.32-3.81,10.22-7.11.31-1.13-.02-2.24-.98-3.32-2.7-3.05-9.04-1.7-12.45-.98l-.11.02c-2.94.62-5.67,1.46-8.17,2.48.19,1.47.31,2.96.31,4.48,0,2.43-.26,4.8-.75,7.09Z"/>
  <rect class="cls-1" x="45.54" y="25.31" width="4.07" height="0" transform="translate(-.85 1.67) rotate(-2)"/>
  <path class="cls-1" d="m12.05,55.59c-.6.83-.62,1.96-.06,3.35,1.91,4.77,9.73,6.51,13.88,7.36-.71-2.73-1.09-5.59-1.09-8.54,0-.64.02-1.28.06-1.92-2.24-1.16-4.55-1.82-6.87-1.95-1.07-.06-4.64-.11-5.93,1.69Z"/>
  <path class="cls-5" d="m89.09,69.22c-.12.47-.55.63-.91.54-.39-.09-.71-.45-.59-.94.38-1.54,1.34-2.84,2.72-3.64.11-.1.23-.16.38-.19.27-.04.54-.08.82-.13.49-2.29.75-4.66.75-7.09,0-1.52-.11-3.01-.31-4.48-.93.38-1.84.79-2.71,1.22-.26.13-.55.12-.78-.04-.25-.16-.4-.45-.39-.74.01-.25.16-.46.4-.58,1.04-.53,2.13-1.01,3.23-1.45-1.48-8.14-5.88-15.26-12.07-20.24-.14.37-.46.65-.86.74-.08.02-.16.03-.24.03l-42.5.41c-6.07,5.44-10.16,13.04-11.05,21.6.85.37,1.59.75,2.16,1.11.43.27.44.76.23,1.09-.2.32-.62.51-1.03.25-.49-.31-.99-.59-1.49-.85-.04.64-.06,1.28-.06,1.92,0,2.95.38,5.81,1.09,8.54.15.03.31.06.45.09.06.01.1.03.14.05h0c.13,0,.25.03.36.09h0c1.45.78,2.51,2.15,2.9,3.75.07.28,0,.54-.2.73-.21.2-.54.29-.81.2-.25-.07-.42-.26-.49-.53-.16-.65-.45-1.23-.86-1.73.09.81.17,1.57.24,2.3,5.21,11.91,17.09,20.24,30.92,20.24s25.98-8.51,31.09-20.63c.09-1.05.2-2.15.34-3.38-.41.5-.7,1.08-.86,1.73Zm-53.46,12.19c-.42,0-.75-.34-.75-.75s.34-.75.75-.75.75.34.75.75-.34.75-.75.75Zm3.51-.38c-.21,0-.38-.17-.38-.38s.17-.38.38-.38.38.17.38.38-.17.38-.38.38Zm3.46,3.98c-.42,0-.75-.34-.75-.75s.34-.75.75-.75.75.34.75.75-.34.75-.75.75Zm2.71-3.61c-.21,0-.38-.17-.38-.38s.17-.38.38-.38.38.17.38.38-.17.38-.38.38Zm1.68,6.76c-.21,0-.38-.17-.38-.38s.17-.38.38-.38.38.17.38.38-.17.38-.38.38Zm1.1-2.03c-.42,0-.75-.34-.75-.75s.34-.75.75-.75.75.34.75.75-.34.75-.75.75Zm2.18,1.16c-.21,0-.38-.17-.38-.38s.17-.38.38-.38.38.17.38.38-.17.38-.38.38Zm2.91-2.96c-.42,0-.75-.34-.75-.75s.34-.75.75-.75.75.34.75.75-.34.75-.75.75Zm2.04,5.71c-.42,0-.75-.34-.75-.75s.34-.75.75-.75.75.34.75.75-.34.75-.75.75Zm.38-3.16c-.21,0-.38-.17-.38-.38s.17-.38.38-.38.38.17.38.38-.17.38-.38.38Zm2.71-2.63c-.21,0-.38-.17-.38-.38s.17-.38.38-.38.38.17.38.38-.17.38-.38.38Zm1.59,4.28c-.21,0-.38-.17-.38-.38s.17-.38.38-.38.38.17.38.38-.17.38-.38.38Zm2.79.38c-.42,0-.75-.34-.75-.75s.34-.75.75-.75.75.34.75.75-.34.75-.75.75Zm.75-4.28c-.42,0-.75-.34-.75-.75s.34-.75.75-.75.75.34.75.75-.34.75-.75.75Zm1.27-9.6c-2.23,2.61-7.21,3.31-10.22,1.84-.72-.35-.09-1.42.63-1.07,2.51,1.23,6.88.51,8.71-1.64.52-.61,1.39.27.88.88Zm.53,13.51c-.21,0-.38-.17-.38-.38s.17-.38.38-.38.38.17.38.38-.17.38-.38.38Zm1.91-2.4c-.21,0-.38-.17-.38-.38s.17-.38.38-.38.38.17.38.38-.17.38-.38.38Zm2.49,1.53c-.21,0-.38-.17-.38-.38s.17-.38.38-.38.38.17.38.38-.17.38-.38.38Zm1.13-4.09c-.42,0-.75-.34-.75-.75s.34-.75.75-.75.75.34.75.75-.34.75-.75.75Zm2.14,1.43c-.21,0-.38-.17-.38-.38s.17-.38.38-.38.38.17.38.38-.17.38-.38.38Zm3.57-4.36c-.21,0-.38-.17-.38-.38s.17-.38.38-.38.38.17.38.38-.17.38-.38.38Zm1.37,2.18c-.21,0-.38-.17-.38-.38s.17-.38.38-.38.38.17.38.38-.17.38-.38.38Zm2.62-2.56c-.42,0-.75-.34-.75-.75s.34-.75.75-.75.75.34.75.75-.34.75-.75.75Zm-3.66-12.44c-2.18.78-5.7.54-7.75-.53-1.45-.76-2.69-1.95-3.41-3.41-.47-.97-.73-2.07-.82-3.2-.02-.22-.02-.44-.02-.66-3.88-1.41-8.01-1.1-11.62.75,0,.11.01.22.01.32-.07,2.57-1.59,5.01-3.79,6.33-4.14,2.5-10.49,1.03-12.8-3.31-1.09-2.05-1.25-4.55-.49-6.74.54-1.55,1.53-2.95,2.88-3.87.92-.63,1.96-1.03,3.05-1.27.7-.15,1.41-.24,2.12-.29,2.73-.17,5.1.54,6.76,2.82.99,1.35,1.8,2.99,2.12,4.68,3.7-1.76,7.86-2,11.79-.7.06-.68.17-1.34.33-1.96,1.99-7.8,13.27-7.03,16.08-.34,1.87,4.46.2,9.73-4.43,11.39Z"/>
  <rect class="cls-5" x="59.09" y="24.8" width="6.07" height="0" transform="translate(-.83 2.18) rotate(-2)"/>
  <polygon class="cls-5" points="49.6 25.24 57.4 24.97 57.4 24.97 49.6 25.24 49.6 25.24"/>
  <path class="cls-2" d="m65.16,56.79c-.16.62-.27,1.28-.33,1.96-3.93-1.3-8.09-1.06-11.79.7-.32-1.69-1.13-3.33-2.12-4.68-1.66-2.28-4.03-2.99-6.76-2.82-.71.04-1.43.13-2.12.29-1.09.24-2.14.64-3.05,1.27-1.35.93-2.34,2.33-2.88,3.87-.76,2.19-.6,4.7.49,6.74,2.31,4.34,8.66,5.81,12.8,3.31,2.2-1.33,3.72-3.77,3.79-6.33,0-.11,0-.22-.01-.32,3.62-1.85,7.74-2.16,11.62-.75,0,.22,0,.44.02.66.09,1.13.35,2.24.82,3.2.72,1.47,1.96,2.66,3.41,3.41,2.06,1.07,5.57,1.32,7.75.53,4.63-1.66,6.3-6.93,4.43-11.39-2.81-6.7-14.09-7.46-16.08.34Z"/>
  <path class="cls-2" d="m63.83,74.16c-1.83,2.15-6.2,2.87-8.71,1.64-.72-.35-1.35.72-.63,1.07,3.01,1.47,7.99.77,10.22-1.84.52-.6-.36-1.49-.88-.88Z"/>
  <path class="cls-2" d="m28.23,70.7c.07.27.24.46.49.53.27.08.6,0,.81-.2.2-.19.27-.46.2-.73-.39-1.6-1.45-2.97-2.9-3.75h0c-.11-.06-.23-.09-.36-.09h0s-.08-.04-.14-.05c-.14-.03-.3-.06-.45-.09-4.15-.85-11.97-2.59-13.88-7.36-.56-1.39-.54-2.52.06-3.35,1.29-1.8,4.86-1.75,5.93-1.69,2.32.13,4.63.79,6.87,1.95.5.26,1,.54,1.49.85.41.26.83.07,1.03-.25.21-.33.2-.82-.23-1.09-.57-.36-1.32-.74-2.16-1.11-3.51-1.54-8.89-2.87-12.16-1.5-1.53.64-2.48,1.8-2.85,3.44-.35,1.58-.07,3.07.81,4.45,2.69,4.15,10.43,6.3,14.9,7.23.21,1.73.38,3.44.51,5.06.02.29.19.53.45.66.12.06.25.08.38.08.16,0,.32-.05.45-.13.2-.14.3-.36.28-.63-.04-.52-.09-1.06-.15-1.62-.07-.73-.15-1.48-.24-2.3.41.5.7,1.08.86,1.73Z"/>
  <path class="cls-2" d="m114.69,51.97c-.89-1.89-3.01-4.29-11.14-3.31-4.08.49-8.11,1.54-11.85,3.05-1.1.45-2.18.93-3.23,1.45-.24.12-.39.33-.4.58-.02.28.14.57.39.74.24.15.52.17.78.04.87-.44,1.77-.84,2.71-1.22,2.5-1.02,5.24-1.86,8.17-2.48l.11-.02c3.41-.72,9.75-2.07,12.45.98.96,1.08,1.29,2.2.98,3.32-.9,3.3-7.08,6.09-10.22,7.11-4.1,1.32-8.29,2.1-11.95,2.67-.27.04-.55.09-.82.13-.15.02-.27.08-.38.19-1.38.81-2.34,2.1-2.72,3.64-.12.5.21.85.59.94.36.09.8-.07.91-.54.16-.65.45-1.23.86-1.73-.14,1.23-.25,2.33-.34,3.38-.02.18-.03.37-.05.54-.04.48.31.74.66.76.02,0,.05,0,.07,0,.38,0,.79-.25.83-.74.13-1.61.3-3.3.51-5.03,6.34-.97,12.46-2.08,17.68-4.94,3.62-1.98,7.2-5.65,5.38-9.5Z"/>
  <circle class="cls-2" cx="48.08" cy="85.39" r=".75"/>
  <path class="cls-2" d="m53.18,82.84c-.42,0-.75.34-.75.75s.34.75.75.75.75-.34.75-.75-.34-.75-.75-.75Z"/>
  <path class="cls-2" d="m63.44,83.14c-.42,0-.75.34-.75.75s.34.75.75.75.75-.34.75-.75-.34-.75-.75-.75Z"/>
  <path class="cls-2" d="m42.6,83.52c-.42,0-.75.34-.75.75s.34.75.75.75.75-.34.75-.75-.34-.75-.75-.75Z"/>
  <path class="cls-2" d="m35.63,79.91c-.42,0-.75.34-.75.75s.34.75.75.75.75-.34.75-.75-.34-.75-.75-.75Z"/>
  <path class="cls-2" d="m62.69,87.42c-.42,0-.75.34-.75.75s.34.75.75.75.75-.34.75-.75-.34-.75-.75-.75Z"/>
  <path class="cls-2" d="m70.76,82.09c-.42,0-.75.34-.75.75s.34.75.75.75.75-.34.75-.75-.34-.75-.75-.75Z"/>
  <circle class="cls-2" cx="80.46" cy="79.53" r=".75"/>
  <path class="cls-2" d="m55.23,88.55c-.42,0-.75.34-.75.75s.34.75.75.75.75-.34.75-.75-.34-.75-.75-.75Z"/>
  <path class="cls-2" d="m55.6,86.15c-.21,0-.38.17-.38.38s.17.38.38.38.38-.17.38-.38-.17-.38-.38-.38Z"/>
  <circle class="cls-2" cx="50.27" cy="86.93" r=".38"/>
  <path class="cls-2" d="m39.14,80.28c-.21,0-.38.17-.38.38s.17.38.38.38.38-.17.38-.38-.17-.38-.38-.38Z"/>
  <path class="cls-2" d="m59.9,87.8c-.21,0-.38.17-.38.38s.17.38.38.38.38-.17.38-.38-.17-.38-.38-.38Z"/>
  <path class="cls-2" d="m65.24,87.8c-.21,0-.38.17-.38.38s.17.38.38.38.38-.17.38-.38-.17-.38-.38-.38Z"/>
  <circle class="cls-2" cx="69.64" cy="87.3" r=".38"/>
  <path class="cls-2" d="m67.15,85.39c-.21,0-.38.17-.38.38s.17.38.38.38.38-.17.38-.38-.17-.38-.38-.38Z"/>
  <path class="cls-2" d="m72.91,84.27c-.21,0-.38.17-.38.38s.17.38.38.38.38-.17.38-.38-.17-.38-.38-.38Z"/>
  <path class="cls-2" d="m76.47,79.91c-.21,0-.38.17-.38.38s.17.38.38.38.38-.17.38-.38-.17-.38-.38-.38Z"/>
  <circle class="cls-2" cx="77.84" cy="82.46" r=".38"/>
  <path class="cls-2" d="m45.3,80.66c-.21,0-.38.17-.38.38s.17.38.38.38.38-.17.38-.38-.17-.38-.38-.38Z"/>
  <path class="cls-2" d="m46.98,87.42c-.21,0-.38.17-.38.38s.17.38.38.38.38-.17.38-.38-.17-.38-.38-.38Z"/>
  <path class="cls-2" d="m58.31,83.52c-.21,0-.38.17-.38.38s.17.38.38.38.38-.17.38-.38-.17-.38-.38-.38Z"/>
  <path class="cls-2" d="m53.69,103.93l-.58.04-.1-11.18c0-.46-.38-.83-.83-.83h0c-.46,0-.83.38-.83.84l.1,11.29-.35.03c-.41.03-.71.4-.67.8l.17,1.61c.04.41-.26.77-.67.8-1.57.12-4.94.77-3.53,4.11.13.31.45.5.79.45l6.62-1c.36-.05.62-.36.62-.72l.04-5.52c0-.43-.36-.77-.79-.73Z"/>
  <path class="cls-2" d="m69.1,107.47c-.3-.06-.53-.3-.59-.6l-.32-1.67c-.08-.41-.47-.68-.88-.6l-.78.15-2.19-11.34c-.09-.45-.52-.75-.97-.66-.45.09-.75.52-.66.97l2.19,11.34-.51.1c-.41.08-.68.47-.6.88l.68,3.53c.05.26.23.47.48.56l6.62,2.47c.37.14.78-.03.95-.38,1.59-3.37-2.05-4.47-3.41-4.76Z"/>
  <path class="cls-4" d="m43.13,24.54c0-.66.52-1.2,1.19-1.21.66,0,1.2.53,1.21,1.19v.86s4.07-.14,4.07-.14l7.79-.27c.22-.24.52-.39.87-.39.32,0,.61.13.83.33l6.06-.21,3.69-.13c-.02-.61.4-1.15,1.03-1.23.66-.08,1.25.38,1.34,1.04v.11s5.26-.18,5.26-.18c-4.84-11.77-27.07-20.21-37.42,1.31l4.09-.14v-.93Z"/>
  <path class="cls-3" d="m45.54,25.38l.04,4.05c0,.27-.09.52-.25.73l11.79-.11-.04-4.26c0-.32.12-.6.32-.82l-7.79.27-4.07.14Z"/>
  <path class="cls-3" d="m59.1,24.91c.23.22.37.52.38.86l.04,4.26,9.98-.1-.66-5.25s0-.07,0-.11l-3.69.13-6.06.21Z"/>
  <path class="cls-3" d="m43.45,30.17c-.16-.2-.27-.45-.28-.72l-.04-3.99-4.09.14-1.88.07c-.87.03-1.56.75-1.55,1.62l.03,2.96,7.8-.08Z"/>
  <path class="cls-3" d="m71.9,29.86s0,.02,0,.04l6.6-.06c.31,0,.58.12.8.31l-.04-4.29c0-.9-.76-1.62-1.66-1.59l-6.37.22.68,5.38Z"/>
  <path class="cls-2" d="m78.76,32.2c.4-.08.72-.37.86-.74.05-.14.09-.29.09-.44,0-.35-.17-.66-.41-.88-.21-.19-.49-.31-.8-.31l-6.6.06s0-.02,0-.04l-.68-5.38h0s-.01-.11-.01-.11c-.08-.66-.68-1.12-1.34-1.04-.63.08-1.05.62-1.03,1.23h0s-.01.07,0,.11l.66,5.25-9.98.1-.04-4.26c0-.34-.15-.64-.38-.86h0c-.22-.21-.51-.33-.83-.33-.35,0-.65.16-.87.39,0,0,0,0,0,0-.2.22-.32.5-.32.82l.04,4.26-11.79.11c.15-.2.25-.45.25-.73l-.04-4.05h0v-.86c-.01-.66-.55-1.19-1.22-1.19-.66,0-1.19.55-1.19,1.21v.93s.04,3.99.04,3.99c0,.28.11.52.28.72l-7.8.08-2.08.02c-.66,0-1.19.55-1.19,1.21,0,.66.55,1.19,1.21,1.19l2.43-.02,42.5-.41c.08,0,.16,0,.24-.03Z"/>
</svg>