<?xml version="1.0" encoding="UTF-8"?>
<svg id="Layer_1" data-name="Layer 1" xmlns="http://www.w3.org/2000/svg" viewBox="0 0 125 125">
  <defs>
    <style>
      .cls-1, .cls-2, .cls-3, .cls-4, .cls-5, .cls-6, .cls-7, .cls-8, .cls-9 {
        stroke-width: 0px;
      }

      .cls-2 {
        fill: #f3b41b;
      }

      .cls-3 {
        fill: #754c29;
      }

      .cls-4 {
        fill: #3c2415;
      }

      .cls-5 {
        fill: #439cd6;
      }

      .cls-6 {
        fill: #c9cad8;
      }

      .cls-7 {
        fill: #e41e26;
      }

      .cls-8 {
        fill: #31b454;
      }

      .cls-9 {
        fill: #fff;
      }
    </style>
  </defs>
  <path class="cls-8" d="m47.51,5.47c-10.57,4.79-12.24,15.62-12.82,26.04-.03.46-.5.6-.81.45,0,.28,0,.55,0,.77.33.09.68.06.99-.1,1.77-.94,7.12-3.39,13.31-2.42,5.91.93,10.28,3.88,11.93,5.15.29.22.65.3,1,.25.04-.66.08-1.33.11-2.01-.29.03-.59-.13-.56-.5.5-5.19.51-10.46-.95-15.51-1.3-4.49-3.91-9.61-8.22-11.86-.37-.19-.31-.61-.08-.83-.44-.34-.85-.65-1.21-.91,0,0-.01,0-.02,0-.02.24-.05.47-.07.7-.04.69-1.11.69-1.07,0,.01-.26.05-.52.07-.77-.17-.01-.33-.03-.5-.03-.44.2-.86.4-1.27.62.43.11.67.73.18.95Z"/>
  <path class="cls-7" d="m33.88,31.97c-.16-.08-.27-.22-.26-.45.6-10.79,2.45-22.03,13.35-26.97.13-.06.25-.06.37-.03.41-.22.84-.43,1.27-.62-6.47-.28-13.33.71-18.84,3.75-8.93,4.94-15.09,13.84-18.03,19.42-.36.68.1,1.47.86,1.4,2.18-.21,5.95-.42,9.48.13,5.11.8,9.84,3.13,11.51,4.03.09.05.18.08.28.11,0-.23,0-.49,0-.77Z"/>
  <path class="cls-5" d="m52.02,4.82c9.6,5.01,10.6,18.94,9.7,28.29-.03.31-.27.47-.51.5-.03.67-.06,1.34-.11,2.01.17-.02.33-.07.49-.16,1.7-.98,6.15-3,12.43-1.97,4.96.81,8.44,2.34,10.39,3.41.71.39,1.53-.26,1.33-1.04-2.06-7.95-5.64-16.32-11.35-22.09-1.97-1.99-4.23-3.69-6.66-5.1-3.85-2.22-7.5-2.91-11.83-3.89-.98-.22-1.95-.39-2.93-.52-.91-.12-1.84-.2-2.77-.27.36.26.77.57,1.21.91.15-.15.38-.22.62-.09Z"/>
  <path class="cls-1" d="m112.31,61.35c-.76,1.9-2.02,3.56-3.65,4.8-.02.01-.03.03-.04.05-4.59,2.26-11.86,4.11-16.69,1.59v1.13c5.2,2.37,12.55.55,17.36-1.86.07,0,.15-.02.23-.06.91-.45,1.91-.58,2.91-.39.67.13.96-.9.28-1.03-.62-.12-1.23-.14-1.83-.07,1.04-1.13,1.87-2.41,2.46-3.88.26-.64-.78-.92-1.03-.28Z"/>
  <path class="cls-1" d="m44.87,43.32c.28-.13.32-.54.12-.8,0,0,.01,0,.02,0,.69.01.69-1.06,0-1.07-.01,0-.03,0-.04,0,.42-3.27.84-6.53,1.26-9.8.09-.68-.98-.68-1.07,0-.41,3.21-.83,6.43-1.24,9.64-.25-.06-.49-.14-.73-.24-.55-.25-1.03.43-.72.8-.22.15-.28.51-.12.77-.43.03-.7.7-.23,1,.44.29.92.47,1.43.57-.26,1.98-.51,3.96-.77,5.94-.41,3.2-.75,6.44-1.39,9.61-.36,1.77-.85,4.47-2.7,5.3-1.23.55-3.71.37-3.93-1.31-.09-.67-1.16-.68-1.07,0,.28,2.14,2.14,2.81,4.13,2.58,2.91-.33,3.79-2.79,4.41-5.37.97-4.07,1.35-8.35,1.85-12.52.85,4.32,3.11,11.31,8.93,21.14.04-.72.11-1.44.2-2.15-8.82-15.45-8.4-23.39-8.34-24.08Z"/>
  <path class="cls-3" d="m92.13,39.5c0-.65-.25-1.28-.71-1.75-.47-.44-1.08-.73-1.74-.73-9.72-.07-18.88,3.43-25.82,9.85-6,5.56-9.7,12.75-10.66,20.53-.09.71-.16,1.43-.2,2.15-.03.55-.05,1.11-.05,1.66-.06,8.96,3.46,17.41,9.95,23.9.2.2.4.4.61.59.76.73,1.55,1.41,2.37,2.06.34-.24.97.04.84.57,0,.02-.01.04-.02.06,5.44,4.12,11.96,6.65,18.91,7.34-.71-2.67-1.42-5.33-2.13-8-.18-.67.86-.95,1.03-.28.74,2.79,1.49,5.58,2.23,8.37.81.06,1.62.1,2.44.1.65,0,1.28-.25,1.74-.71.46-.46.73-1.08.73-1.73l.25-34.58v-1.13s.21-28.29.21-28.29Zm-33.56,21.27c0-3.52,2.86-6.38,6.38-6.38,2.16,0,4.07,1.08,5.23,2.73,1.16-1.66,3.08-2.75,5.25-2.75,3.54,0,6.4,2.87,6.4,6.4s-2.87,6.4-6.4,6.4c-2.18,0-4.1-1.09-5.25-2.75-1.15,1.65-3.06,2.73-5.23,2.73-3.52,0-6.38-2.86-6.38-6.38Zm24.8,18.98c-.24.66-.55,1.32-.92,1.96-1.19,2.11-3.03,4.05-5.41,5.02-.31.12-.62.24-.94.33-.32.09-.65.16-.97.23-2.28.49-4.52.48-6.48.1-.69-.13-1.33-.31-1.94-.52-2.89-1.02-4.78-2.87-4.54-4.87.31-2.57,3.07-2.98,5.49-2.9.71.03,1.4.09,1.98.16.36.04.69.09.96.12.87.11,1.65.09,2.35-.05.69-.13,1.32-.36,1.88-.66,1.04-.54,1.88-1.32,2.64-2.11.49-.51.94-1.02,1.37-1.49,1.15-1.25,2.21-2.19,3.6-1.82,1.83.49,2.04,3.42.9,6.48Zm-4.61-27.69c-6.27-1.03-10.72,1-12.43,1.97-.15.09-.32.13-.49.16-.35.05-.71-.03-1-.25-.84-.65-2.4-1.73-4.5-2.77,1.17-1.51,2.47-2.95,3.92-4.29,5.3-4.91,11.9-8.1,19.06-9.31,3.35,5.07,5.66,11.07,7.16,16.86.2.78-.62,1.43-1.33,1.04-1.95-1.07-5.42-2.59-10.39-3.41Z"/>
  <path class="cls-1" d="m65.89,97.78c-.09.06-.16.15-.2.29-.91,3.69-1.81,7.38-2.72,11.08.35.1.7.2,1.03.29.9-3.67,1.8-7.34,2.7-11.02,0-.02.01-.04.02-.06.13-.53-.49-.81-.84-.57Z"/>
  <path class="cls-1" d="m83.48,97.75c.71,2.67,1.42,5.33,2.13,8,.22.81.43,1.61.65,2.42.35-.1.7-.2,1.03-.29-.18-.68-.36-1.36-.55-2.04-.74-2.79-1.49-5.58-2.23-8.37-.18-.67-1.21-.38-1.03.28Z"/>
  <path class="cls-2" d="m59.37,108.36c-.75.16-2.79,7.93-2.87,8.11-.08.18-3.84-1.35-5.55.64-.91,1.06-.89,2.32.09,3.26.98.95,3,1.66,4.31,1.96,3.83.88,6.48,1.3,7.22.69.63-.52,2.97-9.67,3.63-12.25.1-.38-.13-.76-.5-.86-.46-.12-1.04-.29-1.68-.47-.34-.09-.68-.19-1.03-.29-1.61-.45-3.23-.87-3.61-.78Z"/>
  <path class="cls-2" d="m82.37,109.49c-.56.53,2.03,8.18,2.06,8.38.02.2-4.53,1.37-4.76,3.29-.17,1.39.5,2.62,1.83,2.91,1.33.3,3.5-.43,4.78-.85,3.73-1.24,6.14-2.26,6.45-3.17.27-.78-2.49-9.52-3.28-12.06-.12-.37-.5-.58-.88-.47-.35.1-.79.22-1.27.36-.33.09-.68.19-1.03.29-1.74.49-3.59,1.03-3.9,1.32Z"/>
  <path class="cls-1" d="m50.1,4.7c.01-.24.05-.47.07-.7.08-.91.2-1.82.4-2.72.15-.67-.88-.96-1.03-.28-.22.97-.35,1.95-.44,2.94-.02.26-.06.51-.07.77-.04.69,1.03.69,1.07,0Z"/>
  <path class="cls-1" d="m34.69,31.51c.58-10.42,2.25-21.25,12.82-26.04.5-.23.26-.84-.18-.95-.11-.03-.24-.03-.37.03-10.91,4.94-12.75,16.18-13.35,26.97-.01.23.1.38.26.45.31.15.78,0,.81-.45Z"/>
  <path class="cls-1" d="m61.73,33.11c.9-9.35-.11-23.28-9.7-28.29-.24-.13-.47-.06-.62.09-.24.23-.29.64.08.83,4.31,2.25,6.92,7.37,8.22,11.86,1.46,5.05,1.45,10.32.95,15.51-.04.37.26.53.56.5.25-.03.48-.19.51-.5Z"/>
  <path class="cls-9" d="m70.18,64.42c1.16,1.66,3.08,2.75,5.25,2.75,3.54,0,6.4-2.87,6.4-6.4s-2.87-6.4-6.4-6.4c-2.18,0-4.1,1.09-5.25,2.75-1.15-1.65-3.06-2.73-5.23-2.73-3.52,0-6.38,2.86-6.38,6.38s2.86,6.38,6.38,6.38c2.16,0,4.07-1.08,5.23-2.73Zm2.94-6.02c1.28,0,2.31,1.04,2.31,2.31s-1.04,2.31-2.31,2.31-2.31-1.04-2.31-2.31,1.04-2.31,2.31-2.31Zm-10.47,4.62c-1.27,0-2.31-1.03-2.31-2.31s1.03-2.31,2.31-2.31,2.31,1.03,2.31,2.31-1.03,2.31-2.31,2.31Z"/>
  <path class="cls-1" d="m62.65,58.4c-1.27,0-2.31,1.03-2.31,2.31s1.03,2.31,2.31,2.31,2.31-1.03,2.31-2.31-1.03-2.31-2.31-2.31Z"/>
  <path class="cls-1" d="m73.12,63.03c1.28,0,2.31-1.04,2.31-2.31s-1.04-2.31-2.31-2.31-2.31,1.04-2.31,2.31,1.04,2.31,2.31,2.31Z"/>
  <path class="cls-4" d="m90.49,54.42c-1.5-5.79-3.81-11.79-7.16-16.86-7.16,1.21-13.76,4.4-19.06,9.31-1.44,1.34-2.75,2.78-3.92,4.29,2.1,1.03,3.66,2.12,4.5,2.77.29.22.65.3,1,.25.17-.02.33-.07.49-.16,1.7-.98,6.15-3,12.43-1.97,4.96.81,8.44,2.34,10.39,3.41.71.39,1.53-.26,1.33-1.04Z"/>
  <path class="cls-9" d="m70.62,79.38c-.27-.04-.6-.08-.96-.12l-1,8.13c1.96.38,4.2.39,6.48-.1l-2.17-7.94c-.71.13-1.49.16-2.35.05Z"/>
  <path class="cls-9" d="m74.86,78.68l2.2,8.04c2.38-.97,4.21-2.9,5.41-5.02l-4.96-5.14c-.76.79-1.61,1.56-2.64,2.11Z"/>
  <path class="cls-9" d="m82.48,73.26c-1.4-.37-2.45.57-3.6,1.82l4.51,4.66c1.14-3.07.92-6-.9-6.48Z"/>
  <path class="cls-9" d="m62.19,81.99c-.25,2,1.64,3.85,4.54,4.87l.95-7.77c-2.42-.09-5.17.33-5.49,2.9Z"/>
  <path class="cls-6" d="m67.68,79.09l-.95,7.77c.61.21,1.25.39,1.94.52l1-8.13c-.59-.07-1.27-.14-1.98-.16Z"/>
  <path class="cls-6" d="m72.97,79.34l2.17,7.94c.32-.07.65-.14.97-.23.32-.09.64-.21.94-.33l-2.2-8.04c-.57.3-1.19.53-1.88.66Z"/>
  <path class="cls-6" d="m77.5,76.57l4.96,5.14c.36-.65.67-1.31.92-1.96l-4.51-4.66c-.43.47-.89.98-1.37,1.49Z"/>
</svg>